<svg width="20" height="20" fill="none" aria-hidden="true" focusable="false" xmlns="http://www.w3.org/2000/svg">
  <path d="M0 20v-2h2v2H0Z" fill="#CA00F5"/>
  <path d="M0 20v-2h2v2H0Z" fill="#CA00F5"/>
  <path d="M0 20v-2h2v2H0Z" fill="#CA00F5"/>
  <path d="M0 20v-2h2v2H0ZM20 2h-2V0h2v2Z" fill="#CA00F5"/>
  <path d="M20 2h-2V0h2v2Z" fill="#CA00F5"/>
  <path d="M20 2h-2V0h2v2Z" fill="#CA00F5"/>
  <path d="M20 2h-2V0h2v2ZM0 16v-4h2v4H0Z" fill="#CA00F5"/>
  <path d="M0 16v-4h2v4H0Z" fill="#CA00F5"/>
  <path d="M0 16v-4h2v4H0Z" fill="#CA00F5"/>
  <path d="M0 16v-4h2v4H0ZM16 2h-4V0h4v2Z" fill="#CA00F5"/>
  <path d="M16 2h-4V0h4v2Z" fill="#CA00F5"/>
  <path d="M16 2h-4V0h4v2Z" fill="#CA00F5"/>
  <path d="M16 2h-4V0h4v2ZM0 10V2h2v8H0Z" fill="#CA00F5"/>
  <path d="M0 10V2h2v8H0Z" fill="#CA00F5"/>
  <path d="M0 10V2h2v8H0Z" fill="#CA00F5"/>
  <path d="M0 10V2h2v8H0ZM0 0h10v2H0V0Z" fill="#CA00F5"/>
  <path d="M0 0h10v2H0V0Z" fill="#CA00F5"/>
  <path d="M0 0h10v2H0V0Z" fill="#CA00F5"/>
  <path d="M0 0h10v2H0V0Z" fill="#CA00F5"/>
</svg>

