<svg width="20" height="20" fill="none" aria-hidden="true" focusable="false" xmlns="http://www.w3.org/2000/svg">
  <path d="M20 0v2h-2V0h2Z" fill="#CA00F5"/>
  <path d="M20 0v2h-2V0h2Z" fill="#CA00F5"/>
  <path d="M20 0v2h-2V0h2Z" fill="#CA00F5"/>
  <path d="M20 0v2h-2V0h2ZM0 18h2v2H0v-2Z" fill="#CA00F5"/>
  <path d="M0 18h2v2H0v-2Z" fill="#CA00F5"/>
  <path d="M0 18h2v2H0v-2Z" fill="#CA00F5"/>
  <path d="M0 18h2v2H0v-2ZM20 4v4h-2V4h2Z" fill="#CA00F5"/>
  <path d="M20 4v4h-2V4h2Z" fill="#CA00F5"/>
  <path d="M20 4v4h-2V4h2Z" fill="#CA00F5"/>
  <path d="M20 4v4h-2V4h2ZM4 18h4v2H4v-2Z" fill="#CA00F5"/>
  <path d="M4 18h4v2H4v-2Z" fill="#CA00F5"/>
  <path d="M4 18h4v2H4v-2Z" fill="#CA00F5"/>
  <path d="M4 18h4v2H4v-2ZM20 10v8h-2v-8h2Z" fill="#CA00F5"/>
  <path d="M20 10v8h-2v-8h2Z" fill="#CA00F5"/>
  <path d="M20 10v8h-2v-8h2Z" fill="#CA00F5"/>
  <path d="M20 10v8h-2v-8h2ZM20 20H10v-2h10v2Z" fill="#CA00F5"/>
  <path d="M20 20H10v-2h10v2Z" fill="#CA00F5"/>
  <path d="M20 20H10v-2h10v2Z" fill="#CA00F5"/>
  <path d="M20 20H10v-2h10v2Z" fill="#CA00F5"/>
</svg>

