<svg width="92" height="72" fill="none" xmlns="http://www.w3.org/2000/svg">
  <path d="M1 0a1 1 0 0 0-1 1v10a1 1 0 0 0 1 1h9v9a1 1 0 0 0 1 1h9v9a1 1 0 0 0 1 1h9v9a1 1 0 0 0 1 1h9v9a1 1 0 0 0 1 1h9v9a1 1 0 0 0 1 1h9v9a1 1 0 0 0 1 1h10a1 1 0 0 0 1-1v-9h9a1 1 0 0 0 1-1V41a1 1 0 0 0-1-1h-9V22h9a1 1 0 0 0 1-1v-9h9a1 1 0 0 0 1-1V1a1 1 0 0 0-1-1H81a1 1 0 0 0-1 1v9h-9a1 1 0 0 0-1 1v9h-9a1 1 0 0 0-1 1v20a1 1 0 0 0 1 1h9v18h-8v-9a1 1 0 0 0-1-1h-9v-9a1 1 0 0 0-1-1h-9v-9a1 1 0 0 0-1-1h-9v-9a1 1 0 0 0-1-1h-9v-9a1 1 0 0 0-1-1h-9V1a1 1 0 0 0-1-1H1Z" fill="#2A0D66"/>
  <path d="M11 0a1 1 0 0 1 1 1v9h9a1 1 0 0 1 1 1v9h9a1 1 0 0 1 1 1v9h9a1 1 0 0 1 1 1v9h9a1 1 0 0 1 1 1v9h9a1 1 0 0 1 1 1v9h8V42h-9a1 1 0 0 1-1-1V21a1 1 0 0 1 1-1h9v-9a1 1 0 0 1 1-1h9V1a1 1 0 0 1 1-1H11Z" fill="#F2ECDB"/>
</svg>
