<svg width="40" height="40" fill="none" aria-hidden="true" focusable="false" xmlns="http://www.w3.org/2000/svg">
  <path d="M0 20v-2h2v2H0Z" fill="#DC36FF"/>
  <path d="M0 20v-2h2v2H0Z" fill="#DC36FF"/>
  <path d="M0 20v-2h2v2H0Z" fill="#DC36FF"/>
  <path d="M0 20v-2h2v2H0ZM20 2h-2V0h2v2Z" fill="#DC36FF"/>
  <path d="M20 2h-2V0h2v2Z" fill="#DC36FF"/>
  <path d="M20 2h-2V0h2v2Z" fill="#DC36FF"/>
  <path d="M20 2h-2V0h2v2ZM0 16v-4h2v4H0Z" fill="#DC36FF"/>
  <path d="M0 16v-4h2v4H0Z" fill="#DC36FF"/>
  <path d="M0 16v-4h2v4H0Z" fill="#DC36FF"/>
  <path d="M0 16v-4h2v4H0ZM16 2h-4V0h4v2Z" fill="#DC36FF"/>
  <path d="M16 2h-4V0h4v2Z" fill="#DC36FF"/>
  <path d="M16 2h-4V0h4v2Z" fill="#DC36FF"/>
  <path d="M16 2h-4V0h4v2ZM0 10V2h2v8H0Z" fill="#DC36FF"/>
  <path d="M0 10V2h2v8H0Z" fill="#DC36FF"/>
  <path d="M0 10V2h2v8H0Z" fill="#DC36FF"/>
  <path d="M0 10V2h2v8H0ZM0 0h10v2H0V0Z" fill="#DC36FF"/>
  <path d="M0 0h10v2H0V0Z" fill="#DC36FF"/>
  <path d="M0 0h10v2H0V0Z" fill="#DC36FF"/>
  <path d="M0 0h10v2H0V0ZM20 40h-2v-2h2v2Z" fill="#DC36FF"/>
  <path d="M20 40h-2v-2h2v2Z" fill="#DC36FF"/>
  <path d="M20 40h-2v-2h2v2Z" fill="#DC36FF"/>
  <path d="M20 40h-2v-2h2v2ZM2 20v2H0v-2h2Z" fill="#DC36FF"/>
  <path d="M2 20v2H0v-2h2Z" fill="#DC36FF"/>
  <path d="M2 20v2H0v-2h2Z" fill="#DC36FF"/>
  <path d="M2 20v2H0v-2h2ZM16 40h-4v-2h4v2Z" fill="#DC36FF"/>
  <path d="M16 40h-4v-2h4v2Z" fill="#DC36FF"/>
  <path d="M16 40h-4v-2h4v2Z" fill="#DC36FF"/>
  <path d="M16 40h-4v-2h4v2ZM2 24v4H0v-4h2Z" fill="#DC36FF"/>
  <path d="M2 24v4H0v-4h2Z" fill="#DC36FF"/>
  <path d="M2 24v4H0v-4h2Z" fill="#DC36FF"/>
  <path d="M2 24v4H0v-4h2ZM10 40H2v-2h8v2Z" fill="#DC36FF"/>
  <path d="M10 40H2v-2h8v2Z" fill="#DC36FF"/>
  <path d="M10 40H2v-2h8v2Z" fill="#DC36FF"/>
  <path d="M10 40H2v-2h8v2ZM0 40V30h2v10H0Z" fill="#DC36FF"/>
  <path d="M0 40V30h2v10H0Z" fill="#DC36FF"/>
  <path d="M0 40V30h2v10H0Z" fill="#DC36FF"/>
  <path d="M0 40V30h2v10H0ZM40 20v2h-2v-2h2Z" fill="#DC36FF"/>
  <path d="M40 20v2h-2v-2h2Z" fill="#DC36FF"/>
  <path d="M40 20v2h-2v-2h2Z" fill="#DC36FF"/>
  <path d="M40 20v2h-2v-2h2ZM20 38h2v2h-2v-2Z" fill="#DC36FF"/>
  <path d="M20 38h2v2h-2v-2Z" fill="#DC36FF"/>
  <path d="M20 38h2v2h-2v-2Z" fill="#DC36FF"/>
  <path d="M20 38h2v2h-2v-2ZM40 24v4h-2v-4h2Z" fill="#DC36FF"/>
  <path d="M40 24v4h-2v-4h2Z" fill="#DC36FF"/>
  <path d="M40 24v4h-2v-4h2Z" fill="#DC36FF"/>
  <path d="M40 24v4h-2v-4h2ZM24 38h4v2h-4v-2Z" fill="#DC36FF"/>
  <path d="M24 38h4v2h-4v-2Z" fill="#DC36FF"/>
  <path d="M24 38h4v2h-4v-2Z" fill="#DC36FF"/>
  <path d="M24 38h4v2h-4v-2ZM40 30v8h-2v-8h2Z" fill="#DC36FF"/>
  <path d="M40 30v8h-2v-8h2Z" fill="#DC36FF"/>
  <path d="M40 30v8h-2v-8h2Z" fill="#DC36FF"/>
  <path d="M40 30v8h-2v-8h2ZM40 40H30v-2h10v2Z" fill="#DC36FF"/>
  <path d="M40 40H30v-2h10v2Z" fill="#DC36FF"/>
  <path d="M40 40H30v-2h10v2Z" fill="#DC36FF"/>
  <path d="M40 40H30v-2h10v2ZM20 0h2v2h-2V0Z" fill="#DC36FF"/>
  <path d="M20 0h2v2h-2V0Z" fill="#DC36FF"/>
  <path d="M20 0h2v2h-2V0Z" fill="#DC36FF"/>
  <path d="M20 0h2v2h-2V0ZM38 20v-2h2v2h-2Z" fill="#DC36FF"/>
  <path d="M38 20v-2h2v2h-2Z" fill="#DC36FF"/>
  <path d="M38 20v-2h2v2h-2Z" fill="#DC36FF"/>
  <path d="M38 20v-2h2v2h-2ZM24 0h4v2h-4V0Z" fill="#DC36FF"/>
  <path d="M24 0h4v2h-4V0Z" fill="#DC36FF"/>
  <path d="M24 0h4v2h-4V0Z" fill="#DC36FF"/>
  <path d="M24 0h4v2h-4V0ZM38 16v-4h2v4h-2Z" fill="#DC36FF"/>
  <path d="M38 16v-4h2v4h-2Z" fill="#DC36FF"/>
  <path d="M38 16v-4h2v4h-2Z" fill="#DC36FF"/>
  <path d="M38 16v-4h2v4h-2ZM30 0h8v2h-8V0Z" fill="#DC36FF"/>
  <path d="M30 0h8v2h-8V0Z" fill="#DC36FF"/>
  <path d="M30 0h8v2h-8V0Z" fill="#DC36FF"/>
  <path d="M30 0h8v2h-8V0ZM40 0v10h-2V0h2Z" fill="#DC36FF"/>
  <path d="M40 0v10h-2V0h2Z" fill="#DC36FF"/>
  <path d="M40 0v10h-2V0h2Z" fill="#DC36FF"/>
  <path d="M40 0v10h-2V0h2Z" fill="#DC36FF"/>
</svg>

