<svg width="92" height="80" fill="none"  aria-hidden="true" focusable="false" xmlns="http://www.w3.org/2000/svg">
  <path d="M1 8a1 1 0 0 0-1 1v10a1 1 0 0 0 1 1h9v9a1 1 0 0 0 1 1h9v9a1 1 0 0 0 1 1h9v9a1 1 0 0 0 1 1h9v9a1 1 0 0 0 1 1h9v9a1 1 0 0 0 1 1h9v9a1 1 0 0 0 1 1h10a1 1 0 0 0 1-1v-9h9a1 1 0 0 0 1-1V49a1 1 0 0 0-1-1h-9V30h9a1 1 0 0 0 1-1v-9h9a1 1 0 0 0 1-1V9a1 1 0 0 0-1-1H81a1 1 0 0 0-1 1v9h-9a1 1 0 0 0-1 1v9h-9a1 1 0 0 0-1 1v20a1 1 0 0 0 1 1h9v18h-8v-9a1 1 0 0 0-1-1h-9v-9a1 1 0 0 0-1-1h-9v-9a1 1 0 0 0-1-1h-9v-9a1 1 0 0 0-1-1h-9v-9a1 1 0 0 0-1-1h-9V9a1 1 0 0 0-1-1H1Z" fill="#2A0D66"/>
  <path d="M11 8a1 1 0 0 1 1 1v9h9a1 1 0 0 1 1 1v9h9a1 1 0 0 1 1 1v9h9a1 1 0 0 1 1 1v9h9a1 1 0 0 1 1 1v9h9a1 1 0 0 1 1 1v9h8V50h-9a1 1 0 0 1-1-1V29a1 1 0 0 1 1-1h9v-9a1 1 0 0 1 1-1h9V9a1 1 0 0 1 1-1V0H11v8Z" fill="#F8F5EC"/>
</svg>
