<svg aria-hidden="true" focusable="false" xmlns="http://www.w3.org/2000/svg" viewBox="0 0 662 1070" xml:space="preserve">
  <g fill="#A6FFFD">
    <path d="M645 281.8c-1.5-12.4-6.9-22.9-15.6-31.6-2.9-2.9-4.2-5.8-3.4-9.8.4-2.2.3-4.5.4-6.8 1-25.4-2.7-49.8-14.6-72.5-10.3-19.9-24.6-36.1-44.7-46.5-12.9-6.7-26.6-8.8-40.9-5.3-1.8.4-2.7.2-3.5-1.7-3.9-9-9.4-16.9-16-24.2-11.7-12.9-25.6-22.7-41.3-30-17.8-8.3-36.5-13.5-55.8-17-2.8-.5-5.9-.7-8.5-1.9-13.6-6.4-27.9-9.7-42.7-11-8.7-.8-17.1-2.2-25.6-4.2-19.1-4.5-37.8-3.9-55.2 6.6-.6.3-1.4.5-2 .5-8.1.1-16.3-.3-24.4.3-27.3 2-50.5 12.9-69.4 32.7-4.1 4.3-7.6 9-11.4 13.5-.8.9-2.1 1.8-3.3 2-20.7 3.1-36.9 13.5-49.3 30.1-2.9 3.9-6.1 6-10.7 7.3-14.9 4.2-29.4 9.7-42.6 18.2-13.8 9-22.6 21.5-26.6 37.5-3.9 15.7-3.5 31.3.7 46.8.8 2.8.5 4.8-1.2 7.2-12.3 17.2-19 36.4-18.8 57.7.1 7.9 1.4 15.6 6.4 22.1 1.4 1.8 1.4 3.1.5 5.1-5.6 12.3-8.4 25.2-8.7 38.8-.4 18.9 4.7 36 16.7 50.6 7.4 9 15.7 17.4 23.4 26.1 1.1 1.3 2.1 3 2.6 4.6 1.4 4.9 2.4 9.9 3.9 14.7 6.4 21.3 14.9 41.7 28.4 59.6.6.8.7 2.2.7 3.3.1 5.5-.2 11.1.3 16.6 1.4 14.9 7.1 28.4 13.8 41.6 1 2 1.3 3.8.9 6-1.9 10.4-2.7 20.9-1.2 31.4 3.6 24.6 17.3 43.4 34.4 60.3.9.9 1.5 2.4 1.6 3.6 1.3 16.2 2.5 32.4 3.8 48.6 1.2 15 2.3 69 1.3 84.1-1.7 24.9-13.1 43.5-34.6 56-9.2 5.3-18.8 9.4-29.1 12-10.1 2.6-20.3 4.7-30.4 7.1-2.8.7-5.6 1.7-8.2 2.8-2 .9-3.3 2.4-3.3 4.9 0 26.5 7.3 50.4 25.2 70.6 12 13.7 25.5 25.6 40.7 35.5 58 37.8 121.5 59.9 190.4 66.2 26.2 2.4 52.2.8 77.7-6.1 54.3-14.6 95.8-46.1 124.5-94.5 7.7-13 14.5-26.6 22-39.8 7.4-13.1 14.9-26.2 22.8-39 7.5-12.1 17.8-20.7 31.9-24.7 9.8-2.8 11.1-6.4 7.2-15.8-1.8-4.4-3.8-8.6-5.3-13.1-.8-2.3-1.8-3.4-4.2-3.9-15.7-3.1-31.6-5.6-46.9-10.7-17.8-5.9-34-53.4-47.1-67.2-.6-.7-1.3-1.4-2.2-2.5 1.1-.2 1.7-.3 2.3-.3 10.7-.9 21.2-3.3 31.1-7.4 35.1-14.7 60.5-39.7 76.2-74 31.7-69.3 6.4-132.9-34.8-169.2-2.7-2.4-3.3-4.4-2.6-7.8 3.5-17.5 4.7-35.1.8-52.7-.9-4.1-1.9-8.1-2.7-11.8 4.6-2.2 9.2-3.6 12.7-6.3 17.9-13.9 31.7-30.3 32.7-54.5 0-.8 1.1-2.1 1.9-2.3 10-2.4 16.6-8.7 21.3-17.6.8-1.6 2.4-3.2 4-4 18.3-9.8 26.1-24.4 23.6-44.9z"/>
    <path d="M320.3 1069.7c-7.8 0-15.8-.4-23.8-1.1-71.3-6.6-138-29.7-198-68.9-16-10.4-30.8-23.4-44.1-38.5C34.9 939.1 25 911.6 25 879.5c0-9 5.1-16.7 13.4-20.3 3.8-1.6 7.4-2.8 10.9-3.7 4.4-1 8.7-2 13-3 6-1.3 11.6-2.6 17.2-4.1 8.4-2.1 16.8-5.6 24.8-10.2 16.6-9.7 25-23.2 26.3-42.6.9-13.5-.1-66.5-1.3-81.7-.5-6.3-1-12.5-1.4-18.8-.6-8.5-1.3-17.2-2-25.8-14.1-14.5-31.8-36.5-36.2-66.8-1.6-10.6-1.3-21.6.8-34.4-6-12.1-12.7-27.8-14.4-45.4-.4-4.4-.4-8.7-.4-12.4v-2.5c-11.8-16.5-20.9-36.1-28.5-61.2-.9-2.9-1.6-5.8-2.3-8.5-.5-1.9-.9-3.7-1.4-5.3-2.5-2.7-5-5.4-7.6-8.3-5.2-5.6-10.5-11.3-15.6-17.5-14.1-17.3-21-38-20.5-61.6.3-13.7 2.9-26.9 7.7-39.4-3.9-7.3-5.8-15.9-5.9-26-.2-22.9 6.4-44.6 19.7-64.4-4.1-17.2-4.1-34.6.1-51.6 5-20.2 16.4-36.2 33.8-47.5 12.9-8.3 27.9-14.8 47.1-20.2 1.1-.3 1.2-.4 1.8-1.2 14.4-19.3 33.2-31.3 55.7-35.8.6-.7 1.2-1.5 1.9-2.3 2.4-2.9 4.9-6 7.7-9 21.8-22.8 48.8-35.6 80.4-37.9 6.1-.4 12-.4 17.7-.3h4.7c18.7-10.1 40.3-12.4 64.4-6.6 7.9 1.9 15.5 3.1 23.2 3.8 17.8 1.6 33.5 5.6 47.9 12.3.5.1 1.3.2 1.9.3 1 .1 2 .3 2.9.5 22.9 4.2 42.5 10.2 59.9 18.3 18.3 8.6 34 20 46.6 34 5.4 6 10.1 12.4 13.9 18.9 14.2-1.4 28.1 1.5 41.7 8.5 21.8 11.3 39.2 29.3 51.9 53.7 12.3 23.6 17.7 50.1 16.4 81v1.5c0 1.3 0 2.7-.2 4.3 10.6 11.4 16.9 24.7 18.7 39.8 3.2 26.6-7.3 47.5-30.5 60.6-5.4 9.5-12.5 16.4-21.2 20.6-4.6 28.3-23.7 46-38.2 57.3-1.2.9-2.4 1.7-3.6 2.5 3.4 16.3 3.3 33.9-.2 53.5 22.4 21 38.8 48.3 46.2 77.4 9.1 35.2 5.3 72.6-10.9 108.1-17.6 38.5-46.2 66.3-85 82.5-3.7 1.6-7.6 2.9-11.5 4.1 1.6 3 3.3 6.1 5 9.3 4.8 8.9 15.9 29.7 21.4 32.7 11.5 3.8 23.6 6.1 36.4 8.5 2.7.5 5.4 1 8.1 1.6 4.7.9 13.3 4.1 16.9 15 .9 2.6 2 5.3 3.3 8.3.5 1.2 1.1 2.5 1.6 3.7 1.8 4.3 5.9 14.3 1 24.4-4.9 10-15.3 12.9-19.2 14-9.5 2.7-16.5 8.2-22.2 17.3-7.5 12.2-14.6 24.6-22.4 38.4-3 5.4-6 10.9-9 16.3-4.2 7.8-8.5 15.8-13.2 23.7-30.9 52.1-76.1 86.5-134.6 102.2-18.6 5-38.6 7.6-59.3 7.6zM58.9 887.8c1.4 20.3 8.2 37.1 20.7 51.2 11.3 12.8 23.8 23.7 37.2 32.5 55.4 36.1 116.9 57.5 182.8 63.6 25.2 2.3 49.4.4 71.8-5.6 50.4-13.5 87.8-41.9 114.3-86.8 4.3-7.3 8.3-14.7 12.5-22.5 3-5.5 6.1-11.3 9.3-16.9 8-14.1 15.3-26.9 23.1-39.5 8.9-14.5 21-24.6 35.8-30.1-.4-1-.9-2.1-1.3-3.2-.6-.1-1.1-.2-1.7-.3-13.4-2.5-27.3-5.1-41-9.7-17.3-5.8-28.4-26.6-40.2-48.6-4.8-9-10.3-19.3-13.8-22.9-.6-.6-1.1-1.2-1.8-2l-.8-.9c-4.1-4.6-5.3-11.1-3.2-16.9s7.2-9.9 13.3-10.9c.3 0 .6-.1.8-.1.7-.1 1.6-.3 2.6-.3 9.3-.8 18.1-2.9 26-6.2 30.7-12.9 53.4-34.9 67.4-65.5 29.4-64.4 3.5-119.6-30.6-149.7-7.2-6.4-9.9-14.4-8-23.8 3.6-17.7 3.9-32.2.9-45.7-.6-2.7-1.2-5.4-1.8-8-.3-1.2-.6-2.4-.8-3.6-1.8-7.6 2-15.5 9.1-18.9 1.9-.9 3.6-1.6 5.2-2.3 1.6-.7 3.9-1.6 4.6-2.2 17.7-13.7 25.6-26.2 26.2-41.9.3-8.3 6.7-16 14.7-17.9 3.4-.8 6.9-2.5 10.4-9.1 2.4-4.6 6.4-8.6 11-11.1 12.3-6.6 16.4-14.4 14.8-28-1-8.3-4.5-15.4-10.8-21.8-8.8-8.9-9.2-18.4-8-24.7 0-.3.1-1.3.1-2.1s0-1.5.1-2.3c1-24.9-3.2-45.9-12.7-64.1-9.5-18.3-21.8-31.2-37.5-39.3-9.7-5-19.3-6.3-29.1-3.9-9.9 2.4-18.9-2-22.9-11.2-3-6.9-7.3-13.3-13.1-19.7-9.7-10.8-21.5-19.3-36-26.1-14.8-6.9-31.7-12-51.6-15.7-.6-.1-1.1-.2-1.7-.3-2.8-.4-6.8-1-10.9-2.9-10.9-5.1-23.1-8.2-37-9.4-9.3-.8-18.5-2.3-28-4.6-17.1-4.1-30.7-2.6-42.6 4.7-3.1 1.8-6.7 2.8-10.5 2.9h-8.4c-5.3 0-10.2-.1-15 .3-23.7 1.5-42.8 10.5-58.8 27.3-2 2.1-3.9 4.5-6 7-1.6 1.9-3.2 3.9-4.9 5.9-3.5 4.1-8.4 6.8-13.4 7.6-15.7 2.4-28.3 10.1-38.3 23.5-5.1 6.8-11.3 11.1-19.5 13.4-16 4.5-28.1 9.7-38.1 16.1-10.1 6.6-16.5 15.5-19.4 27.3-3.2 12.8-3 25.3.6 38.4 2.1 7.8.9 15-3.8 21.4-10.7 15-15.8 30.6-15.7 47.8.1 5.7 1 9.5 2.9 12 5.1 6.6 6 14.5 2.5 22.2-4.6 10.2-7 20.7-7.2 32.2-.4 15.6 3.9 28.5 12.9 39.6 4.4 5.4 9.2 10.5 14.2 16 2.9 3.1 5.9 6.3 8.8 9.6 2.8 3.2 4.9 7 6.1 11.1.8 2.7 1.4 5.3 2 7.8.6 2.4 1.2 4.7 1.8 6.8 7 23 15.2 40.3 25.8 54.3 3.9 5.2 4 10.9 4.1 13.1.1 2.2 0 4.3 0 6.4 0 3.2 0 6.3.2 8.9 1.3 13.1 6.8 25.3 12 35.6 2.7 5.2 3.5 10.8 2.5 16.6-1.8 10.2-2.2 18.4-1.1 26 2.6 17.4 11.7 33.1 29.6 50.9 3.7 3.7 6.1 8.9 6.6 14.2.8 10 1.6 20.1 2.3 29.9.5 6.2.9 12.5 1.4 18.7 1.2 15.3 2.4 70.3 1.3 86.5-2 30.7-16.5 54-43 69.4-10.7 6.2-21.9 10.8-33.4 13.7-6.1 1.5-12.2 2.9-18.1 4.3-3.5.8-7.2 1.6-10.8 2.5zm512.5-56.2z"/>
  </g>
  <path fill="#A6FFFD" d="M561.8 819.4c-6.3 3-11.7 7.4-16.5 12.3-17.4 17.9-30.8 38.7-42.7 60.4-6.5 11.9-12.6 24.1-19.4 35.9-14.1 24.3-32 45.4-55.2 61.4-44.7 30.9-94.3 43.5-148.4 37.5-19.8-2.2-39.1-6.8-58-12.8-19.1-6.1-37.7-13.6-55.8-22.2-24.3-11.6-48.3-23.9-70.5-39.2-13.3-9.1-24.9-20-33.2-33.9-5.5-9.2-10.2-18.8-15.4-28.2-.5-.9-1.2-1.8-1.8-2.6l-.6.3c.1.8 0 1.6.2 2.3 1.9 7.2 3.5 14.5 6 21.4 10.4 29.4 28.3 52.8 55.6 68.7 18.6 10.8 37.7 20.6 57.2 29.6 27.9 12.9 56.5 23.6 86.5 30.6 19.3 4.5 38.7 7.6 58.6 7.8 1 0 1.9.3 2.9.5h9.8c1.1-.2 2.1-.4 3.2-.5 11.4-1.2 23-1.7 34.2-3.7 26.7-4.8 51.4-15 74.3-29.5 12.4-7.8 23.8-16.9 34.1-27.3 5.9-5.9 11.3-12.3 16.6-18.6 14.2-16.9 25.5-35.7 35.1-55.5 5-10.2 9.6-20.5 14.7-30.7 6.5-12.9 15.2-23.9 27.8-31.2 6-3.5 12.3-6.5 18.5-9.7 3-1.5 3.9.5 4.2-2.9 1-12.3-10.8-25.5-22-20.2z"/>
  <path fill="#A6FFFD" d="M590.1 542.6c-8.1-23.4-22.1-42.7-40.9-58.6-2.4-2-4.9-3.9-7.6-6.1 6.1.4 7-.3 8-6.4.1-.6.2-1.3.3-1.9.2-14.5.2-29-2-43.4-1.5-9.9-3.8-19.8-5.2-29.7-1.1-7.9.7-13.7 7.6-19.1 1.7-1.4 2.6-4.3 4.4-5.6 4.8-3.4 9.4-7.1 12.8-12 3.8-5.7 2.7-9.4-4-10.7-6.8-1.3-13.8-2-20.7-2.7-13.8-1.5-27.6-2.6-41.3-4.2-11.2-1.3-21.7-.5-31.7 5.5-10.1 6.1-14.1 15.1-13.7 26.2.4 12.5 3.5 24.6 7.9 36.3.6 1.6 1.9 3 2.3 4.7.8 3.9 1.1 7.9 1.6 11.8 1.3 9.2 1.3 19 10.7 25.7-2.5-.3-4.2-.5-5.9-.7-13.7-1.9-27.5-1.8-41.2 0-15.6 2-30.5 6.3-44.7 12.9-14.8 6.9-28 16-38.7 28.5-2.5 2.9-4.9 5.9-7.2 8.6.8-4.6 2-9.3 2.3-14.1 1-13-2.7-25-8.3-36.4-10-20.5-24.8-37.4-40.8-53.3-11-10.9-22.6-21.2-34.1-31.5-5.5-4.9-11.4-9.6-17.5-13.7-7.2-4.9-10.7-3.5-15.1 4-2.3 3.9-4.6 8-7.7 11.2-10.9 11.1-30.1 15.6-46.3 5.9-8.8-5.3-17.6-10.5-27.9-12.5-2.7-.5-5.2-2.5-7.7-3.9-.8-.4-1.5-1-2.7-1.8 3.2 5.4 6.2 10.3 9 15.2 9 15.8 13.7 32.8 14.2 51.1.6 18.9-1.9 37.4-4.1 56.1-1.4 12-1.1 23.9 1.4 35.7 3.6 16.7 10 32.4 18.2 47.3 7.1 13.1 18 29.9 30 39 18.5 14.1 37.9 14.9 60.8 16 8 .4 15.9.3 23.9.7 7.4.4 15.6 3.4 22.3 6.6 5.6 2.7 4.6.8 5.6-5.4 7.7 33.8 25.1 60.7 53.3 80.5-10.7-3.9-21.7-5.8-32.8-7.2-14.7-1.8-29.2-4.2-43.3-9-25.4-8.6-48.8-21.3-70.7-36.7-11.1-7.8-20.8-16.9-27.8-28.7-.3-.4-.6-.8-1-1.2-.3 1.1-.1 2 .2 2.9 1.1 3.6 2.3 7.1 3.2 10.7l21.6 93c7.9 34.1 15.4 107.3 23.5 141.3 6 24.8 13.8 49.1 22.9 72.9 7.7 20.3 16.9 39.8 30.9 56.5 3.3 3.9 7 7.6 11 10.7 4.4 3.4 7.9 2.3 10.2-2.7.9-2 1.6-4.1 2.1-6.2 2.6-11.3 4.7-22.7 7.6-34 3.5-13.5 8.9-26.3 18.1-37.1 5.9-6.9 12.8-12.2 22.6-11.2 3 .3 6.1 1 9 1.9 11.9 3.6 22.6.7 32.3-6.5 14.2-10.5 23.6-24.7 30.4-40.7 5.1-11.9 9.4-24.2 14.4-36.1 4.6-11 11.1-20.6 21.7-26.7 4.6-2.6 9.2-5.2 13.6-8 5.1-3.3 2-44.9-1.9-49.5-3.2-3.7-5.9-5.8-9.8-8.8-2.2-1.7-2.3-5.2-5.5-6.9 1.6-.1 2.5-.2 3.3-.2 10.8-.3 21.2-2.3 31.4-6 15.9-5.9 30-14.9 42.7-26.1 18.9-16.6 33.1-36.4 41.1-60.5 6.1-18.5 8.5-37.4 7.1-56.8-.9-13.5-3.4-26.4-7.7-38.9zm-276.4 57.2c-4.5-22.9 3.8-45.1 9.5-65.4-7.4 21.2-11 42.9-9.5 65.4z"/>
  <path fill="#A6FFFD" d="M315.6 591.1c0-33.7 9.8-68 29.9-92.2 26.1-31.7 68.1-48.6 112.7-48.6 78.7 0 142.6 63 142.6 140.8 0 77.8-63.5 145.1-142.6 140.8-78.7-4.2-142.6-63.1-142.6-140.8z"/>
  <path fill="#FCFC00" d="M56.9 416.2c3.5 3.9 5.3 8.6 6.3 13.7.3 1.5.5 3.1 1 4.5.3.8 1 1.9 1.6 1.9 1.8.1 1.6 1.3 1.8 2.5.8 4.8 1.4 9.7 2.7 14.4 4.1 14.8 12.6 27.7 19.1 41.4 1.7 3.6 3.6 3.4 5.4-.2 3.2-6.2 6.3-12.5 9.5-18.7 2.8-5.5 2.9-10.9.2-16.4-.3-.5-.4-1.1-.7-1.6 4.8 6.7 9.1 13.5 13.3 20.5 4.8 7.9 9.2 16.1 14.2 23.8 3.1 4.7 7.5 8.1 13.2 9.5 4 1 6.4-.7 6.2-4.7-.3-5-1.2-10.1-1.9-15.1-1.4-10.4-3.4-20.8-3.9-31.2-.5-11.3.7-22.6.8-34 .1-7.5-1.7-14.6-7.1-20.3-7.9-8.4-12.3-18.7-16.4-29.2-2.3-5.9-5.2-11.8-8.8-17.1-4.3-6.5-14-9.5-21.1-7.5-1.4.4-2.8 1.1-4.6 1.7.4-6.2-2.6-10.8-5.5-15.5-11.7-18.9-14.3-38.8-6.7-59.9 2.9-8.1 7.2-15.5 13.8-21.2 11.8-10.2 25.9-15.1 40.9-17.6 5.3-.9 10.9-.9 16 1.7 4.1 2.1 8.2 4.1 12.2 6.5 1.9 1.1 3.5 2.8 5.2 4.3.5.5 1 1.4 1.6 1.4 3.6.5 3.5 3.3 3.8 5.9.1 1.2.2 2.3.4 3.5 2 11.5 8.9 19.9 17.6 27 14.3 11.6 30.6 19 48.4 23.1 16.9 3.9 33.6 3.5 49.1-5.2 16.8-9.4 25.9-24 27.5-43 1.4-16.3-2.9-31.5-10.4-45.8-.6-1.1-1.4-2.2-2.2-3.2-.2.1-.5.1-.7.2-.1.8-.3 1.7-.2 2.5.1 2.1.4 4.1.5 6.2.3 12.2-.9 24.3-3.3 36.2-3.9 18.9-15.5 30.4-34 35.3-8.2 2.2-16.5 2.6-24.8 1.3-17.1-2.7-31.5-10.3-42.2-24-7-9-7.6-37.7-5-40.7 3 9.3 8.3 16 16.4 19.8 4.6 2.2 8.5 4.9 12.4 8.1 12.3 10.2 26.4 11 39.2 1.4 11.2-8.4 18.5-19.9 22-33.5 3.3-12.8.5-24.7-7.3-35-10.5-13.8-25.3-20.1-42.2-21.8-4-.4-8.1-.1-12.2-.1 2.8-1.6 5.7-2.5 8.6-3.5 8.6-3 17.4-5.1 26.7-3.6 1.3.2 2.7.1 4.1 0 2.7-.2 3.6-1.6 2.6-4.1-1.2-2.8-2.5-5.6-4-8.3-5.8-10.8-9.4-22.2-6.2-34.5 1.3-5.2 3.7-10.2 5.9-15.1 2-4.3 2.2-8.2-.8-12-.6-.8-1.1-1.7-1.7-2.5-4.6-5.6-4.6-11.7-1.3-17.8 1.5-2.8 3.4-5.6 5.6-8 7.6-8.3 17.3-13 28-15.8 11.9-3.2 24.1-3.6 36.4-2.9 14.9.9 26.8 6.9 36.2 18.3 3.8 4.6 7.8 9 12 13.3 4.2 4.4 7.3 4.6 11.7.7 6.2-5.6 13.5-6.5 21.1-5.2 19.2 3.5 32.5 14.9 41 32 3.1 6.3 5.2 13.2 7.6 19.8 3.4 9.2 9.7 15.4 19.1 17.7 5.6 1.4 11.4 2.2 17.1 2.4 9.4.4 15.4-4.2 18.4-13.1 3.9-11.6 2.1-22.6-3.6-33-9.2-16.6-23.2-27.5-40.6-34.5-12.3-4.9-25.1-7.8-38-10.1-24.3-4.4-48-10.8-70.7-20.9-13.6-6.1-27.6-11-42.6-12.5-15.2-1.5-28.8 1.8-39.7 13.2-7.2 7.5-15.9 12.5-25.4 16.5-15.2 6.4-30.5 12.5-45.8 18.9-9.2 3.8-18.5 7.8-28.5 8.7-14.2 1.4-26.6 6.5-37.6 15.4-10.5 8.5-19.7 17.9-24.5 30.9-3.7 9.8-10.2 17.7-18.2 24.3-6.3 5.3-12.7 10.5-18.8 16.1-13.1 12.3-20.7 27.8-25.4 44.9-6.3 23.4-8.2 47.5-9.7 71.5-1.1 17.4.8 34.6 3.6 51.7 3.5 21.5 6.8 43 8.4 64.7.7 7.6 2.6 14.8 7.9 20.6zm22.8-41.6v24.8c-1.9-7.5-2-20.4 0-24.8zm159.2-160.3c5.4 5.8 6.9 12.7 5.1 20.3 0-1.8.2-3.6 0-5.3-1.5-10.8-7.8-17.9-17.8-21.3-5.6-1.9-11.6-2.4-16.5-3.3 10.3-1.1 20.9.7 29.2 9.6zm-39.5-8.4c.1.3.3.6.4.9-4 1.9-7.9 3.7-11.9 5.6-.1-.3-.3-.5-.4-.8 4-1.9 7.9-3.8 11.9-5.7zm-17.9 12.3c-3.2 5.4-6.3 10.7-9.4 16-1.8-2.6 3.6-11.8 9.4-16z"/>
  <path fill="#A6FFFD" d="M644 288.2c-.4-12.9-6.1-23.5-14.5-32.9-6.7-7.4-14.9-13-23.5-17.9-8.6-4.8-16.1-11.7-25.8-14.1.8-4.9 1.9-9.6 2.5-14.5 1.3-10.8-.8-20.9-6-30.4-4.2-7.7-10.2-13.8-16.4-19.8-7-6.8-15.5-10.6-25.2-11.2 2.6 5.1 5.3 10 7.7 15.1 4 8.4 5.5 17.5 5.4 26.7 0 8.6-1.9 16.9-7 24.2-1.7 2.4-2.2 5-.6 7.6 4.6 7.2 9.3 14.5 14.1 21.6 2.4 3.6 5.8 5.1 10.1 4.1 9.8-2.2 19.1-.7 27.8 4.1 19.4 10.7 34.6 33.5 27.3 60.9-.8 3.2-1.6 6.3-2.2 9.5-.2.9.2 1.9.3 2.8 1-.2 2-.4 3-.7.4-.1.8-.5 1.1-.8 4.5-4.3 9.1-8.3 13.3-12.8 5.5-5.9 8.9-13 8.6-21.5zm-70.8-51.6c2-3.7 4-7.3 5.9-11-.2 4.6-2.4 8.1-5.9 11zM413.5 364c1.9-2.8 3.4-5.9 5.2-8.8 1.9-3 3.9-5.9 6.2-8.5 2.1-2.5 4.8-4.4 7-6.8 3-3.2 4.9-7 5.7-11.3.7-4.1-1.4-7.5-5.3-8.5s-7.7-1.9-11.6-2.7c-3.6-.7-5.3.1-6.6 3.5-.9 2.2-1.5 4.5-2.1 6.7-1.4 5.3-3.1 6.1-8 3.7-.6-.3-1.1-.6-1.7-.9-6-3.5-12.1-6.8-19-7.9-8.9-1.4-17.9-2.4-26.9-3.4-10.7-1.1-21.4-2.2-32.2-3-9.7-.7-19.4-1.2-28.9 1.3-6.3 1.6-11.5 4.8-15.3 10.2-8.3 11.8-2.4 28.2 11.2 30.3 3.9.6 8.2-.1 12-1.2 10.2-2.9 20.2-6.3 30.3-9.7 14.3-4.8 28.5-5.7 42.9-.6 9.6 3.4 18.1 8.1 22 18.3.4 1 1.3 1.7 2 2.5.3 0 .6-.1.8-.1-.4-5.9 1.6-11 5.3-15.3 3.7-4.3 8.2-7.2 15.1-7.1-3.3 6.7-8.5 11.8-8.1 19.3z"/>
  <g>
    <path fill="#FCFC00" d="M315.6 591.1c0-33.7 9.8-68 29.9-92.2 26.1-31.7 68.1-48.6 112.7-48.6 78.7 0 142.6 63 142.6 140.8 0 77.8-63.5 145.1-142.6 140.8-78.7-4.2-142.6-63.1-142.6-140.8z"/>
  </g>
  <g>
    <path fill="#FCFC00" d="M230.6 960.3c-3.9-21.4-10.1-42.1-17.4-62.6-9.2-25.8-17.2-52.1-22.8-78.9-8-38.2-15.4-115.5-22.9-153.7-8.7-44.2-17.8-88.4-30.6-131.7-1.7-5.7-4.2-11.2-6.5-16.7-.8-1.9-2.1-3.7-5.1-.9 2.8-10.3-.7-18.3-6.1-25.7-.8-1.1-1.6-2.2-2.3-3.4-2.2-4.1-4.3-8.1-6.5-12.2-.8-1.5-1.6-2.9-2.4-4.3-1.2 1.2-2.8 2.3-3.6 3.7-12 21.2-15.4 43.3-4.5 65.9 8.2 17.1 17.8 33.7 26.7 50.5.3.6.6 1.1.9 1.7-6.9-7-14.3-13.5-17.1-23.5-.7 3.2-1 6.3-1.3 9.4-1 9.9-1.8 19.7 1.1 29.4 4.8 15.9 12.6 30.2 23.1 43.1 1.2 1.5 2.8 2.9 4.3 4.1 1.5 1.3 3.3 2.2 5.4-.2.3 3.8.4 6.9.7 9.9 1.4 17.4 2.7 34.7 4.1 52.1 1.1 13.2 2.9 65.3 1.9 78.6-1.4 17.7-7.6 33.3-20.5 45.9-12.2 11.8-26.9 19-43.1 23.2-9.6 2.5-19.4 4.6-29 7.1-2.8.7-5.5 1.8-8.1 3.1-2.8 1.5-3.4 3.6-1.7 6.4 1.9 3 3.8 6 6.1 8.6 5 5.9 10.4 11.4 15.3 17.3 20.7 24.9 45.7 44.1 75 57.9 23.6 11.1 48.1 19.8 73.3 26.5 6.5 1.7 13.1 2.7 19.7 3.7 2.4.4 5.5.6 6.8-2.1 1.3-2.5-.2-5-1.9-7-6.2-7.2-9.3-16-11-25.2zm-98.5-389.8c-1.7-7.2-3.4-14.5-5.1-21.7.3-.1.5-.2.8-.2 1.6 7.3 3.3 14.5 4.9 21.8-.2 0-.4.1-.6.1zm8.7 53.7c-1.8-7.5-3.7-15-5.5-22.4.7-1.9 1.5-4 2.4-6.2 1.1 9.5 2.3 19.1 3.4 28.7-.1-.1-.2-.1-.3-.1z"/>
    <path fill="#00FFFA" d="M442.6 683c.8-.3 1.5-1 2.3-1.5 0-.3-.1-.6-.1-.9-2.4-.4-4.8-1-7.3-1.1-18.5-1.1-35.6-6.7-51.5-15.8-14.8-8.5-29.3-17.4-44-26-19.1-11.3-39.7-18.6-61.9-20.9-14.1-1.5-28.3-2.7-42.4-4.3-12.2-1.4-23.5-5.1-33.4-12.6-10.3-7.8-18-17.8-24.9-28.5-9.3-14.5-16.2-30.2-22.5-46.2-.4-1-.8-1.9-1.2-2.9-.2 0-.3.1-.5.1.3 2.8.6 5.6.8 8.4-.1 0-.2 0-.3.1-.3-.9-.6-1.8-1.1-3.4 0 1.5-.1 2.2 0 2.9 2 9.9 3.4 20.1 6.4 29.7 7.4 23.8 21.6 43.6 38.8 61.3 25.5 26.1 55.5 45.3 89.6 58.2 25.3 9.6 51.4 15.4 78.2 17.7 26.3 2.1 50.8-5.5 75-14.3zM624 223.5c-2.3-14.9-5-29.7-7.9-44.4-1.9-9.9-5.6-19.2-11.6-27.3-12.1-16.5-28.1-28.2-46.6-36.4-8.7-3.8-17.7-6.6-27.3-6.5-6 .1-7.8 2.4-6.6 8.3.5 2.6 1.2 5.1 1.9 8.3-.5-.7-.7-.8-.8-1-.6-2-1.4-3.9-1.9-6-4.4-16.3-13.8-29.4-25.9-40.8-11.7-11.1-25.4-19.3-40.2-25.5-5.4-2.3-10.9-4.3-16.3-6.5l-.3.6c2.3 1.1 4.6 2.2 6.8 3.3-.1.2-.2.4-.2.6-1.3-.3-2.6-.6-3.9-1-9.4-3.2-18.8-6.5-28.3-9.8-1.2-.4-2.4-.5-3.6-.8-.1.2-.2.5-.3.7 1.9 2.4 3.8 4.7 5.6 7-4.3-3.1-8.5-6.6-13.1-9.3-11.7-6.8-24.6-10-37.7-12.5-2.8-.5-5.8-.6-8.6-.3-1.9.2-3.7 1.5-5.5 2.3 1.3 1.4 2.4 3 4 4.1 5.4 3.8 11.2 7.1 16.4 11.2 6.6 5.1 10.2 11.9 10.1 20.4 0 1.3.1 2.5.3 3.8.4 3.5 1.3 3.9 4.4 2 2.2-1.4 4.3-3 6.6-4.4 5.9-3.8 12.4-5.6 19.4-4.3 6.6 1.2 13.3 2.5 19.8 4.3 4.7 1.3 9.5 2.9 13.5 5.4 8.5 5.3 16.7 11.2 24.8 17.1 8.3 6 12.9 14.4 13.7 24.6.4 5.1.1 10.1.3 15.2.1 2.7.1 5.5.5 8.1.7 4.3 3.4 6.7 7.8 6.9 2.6.1 5.3.1 7.8-.4 6.3-1.1 12.4-1.1 18.6.4 2.6.6 5.4.6 8 .9.6.1 1.4.3 1.6.7 1.6 3.9 5.2 4.6 8.6 5.3 5.5 1.1 10.5 3.3 15 6.7 11.2 8.2 18.9 19.1 24.6 31.6 4.5 9.9 6.5 20 2.5 30.6-.2.6-.3 1.2-.4 1.9-.5 3.2.4 5.3 3.3 6.8 2.3 1.1 4.6 2.1 7.1 2.7 8.2 2.3 15.7 5.9 22.5 11.2 1.1.8 2.2 1.6 3.4 2.3 4.4 2.7 6.9 1.8 7.6-3.3.8-4.8 1.3-9.9.5-14.8z"/>
    <path fill="#FCFC00" d="M374.2 882.6c-3.7-10.4-8.5-20.3-15.9-28.6-2.9-3.3-6.3-6.3-9.9-8.7-3.3-2.3-5.9-1.2-7.2 2.6-1.1 3.1-1.9 6.5-2.3 9.8-1.9 16-5.8 31.5-11.4 46.7-4.9 13.4-9.8 26.7-14.4 40.2-3.8 11.1-6.5 22.5-6.8 34.9.2 8 1.4 16.4 4.9 24.3.8 1.8 2.6 3.2 3.9 4.8 1-1.7 2.3-3.4 2.9-5.2 2.3-6.9 3.5-14.5 6.9-20.8 7.7-14.8 16.1-29.2 24.9-43.3 5.9-9.6 14.8-15.9 25.9-18.5 1.8-.4 3.7-1 5.5-1.6 7.4-2.3 8.5-4.7 4.4-11.5-4.7-8.1-8.3-16.5-11.4-25.1z"/>
    <path fill="#00FFFA" d="M54.4 419.9c.9.7 2 .9 3.1 1.4.5-1.1 1.3-2.2 1.3-3.3-.1-2.5-.3-5.1-1-7.5-3.8-13.1-3.1-26.4-1.4-39.7.9-6.7 3.7-12.6 7-18.4 1.7-2.8 1.3-3.7-1.6-5.1-3.2-1.5-5.5-3.9-6.9-7-1.4-3.2-2.7-6.5-3.7-9.9-4-14.7-5.2-29.8-4.7-45 .1-2.6-.2-5.3-.3-8-.4-.1-.7-.2-1.1-.3-3.9 3.7-5.8 8.9-9.6 12.8.4-.9.6-1.8 1.1-2.6 2.5-3.8 5-7.6 7.7-11.2 4.8-6.4 7.9-13.4 8.9-21.3.5-4.1.6-8.3-2.1-11.8-4-5.2-6.1-11.1-7.6-17.3-.2-1-.7-1.9-1.2-3.1-1.7 1.4-2.8 3.2-4.4 3.7-5.8 1.9-8.3 6.5-10 11.7-4.5 13.5-7.4 27.4-6.5 41.7.5 8 1.1 16.1 6.7 22.7-1.4 3.4-2.9 6.7-4 10.1-4.5 13.8-5.7 28.1-4.7 42.5.8 12.2 4.2 23.6 11.3 33.7 6.7 9.6 13.8 18.8 20.8 28.2.7 1 1.7 2.1 2.9 3zM48.5 231.9c-.1-1.3-.1-2.5-.3-3.8-.7-5.5.1-10.9 2.1-16 9.1-24.1 34.1-39.2 59.6-35.8 3.3.4 6.7.9 10.6 1.5-3.2-1.8-5.9-3.1-8.4-4.7-5.6-3.5-8.6-8.6-8.1-15.3.5-7.3.9-14.7 2.3-21.8 1.2-5.8 3.9-11.3 5.9-16.9.4-1.3.3-2.7.4-4.1-1.4.1-2.8.1-4.1.4-1 .2-2 .8-3 1.2-6.6 2.4-13.1 4.8-19.7 7-4 1.4-8.1 2.5-12.2 3.9-11.6 3.9-20.3 11.4-26.5 21.8-7.9 13.3-10.8 27.7-9.7 43.1.9 13.9 5 26.9 11.1 39.5z"/>
    <path fill="#FCFC00" d="M300.1 307.5c11.3.3 22.6.5 34 .6 8.2 0 15.8 1.5 23.3 5.2 6.2 3.1 13 5 19.6 7.1 9.6 3.1 19.4 5.9 29 9.1 1.9.6 3.8 1.9 5.1 3.4 1.1 1.2 2.1 3.2 1.9 4.8-.3 3.3-1.3 6.6-2.1 9.9-2-5.5-6.1-8.3-11.1-9.5-3.4-.8-7-1.2-10.5-1.2-13.8.1-27.1 3.7-40.4 6.6-.4.1-.7.4-1.9 1.1 1.7.5 2.7 1.1 3.8 1.1 2.2 0 4.3-.1 6.5-.4 5.9-.6 11.8-.8 17.4 1.5 7.3 3 14 7 19.6 12.5 1.9 1.9 3.7 4 5.5 6 1.4 1.5 2.3 1.7 3.3-.5 2-3.9 4.3-7.7 6.5-11.7 1.6 3 2.6 3.4 5.3 1.9 2-1.1 4.3-2.3 5.7-4.1 4.2-5.3 8.4-10.6 12.1-16.4 4.1-6.4 6.9-14.3-4.2-14-6.6.1-12.4-4.7-18.8-5.9-8.7-1.5-16.7-4.4-24.2-9.1-7.5-4.6-15.2-8.8-22.9-13-7.2-4-14.7-4.2-22.4-1.6-2.1.7-4.1 1.5-6.2 2.1-6.6 1.8-13.3 3.7-19.9 5.2-4 .9-8.4.9-12.3 2.1-3.8 1.2-7.2 3.6-10.7 5.5 0 .2 0 .5.1.7 2.9.5 5.9 1 8.9 1z"/>
    <path fill="#00FFFA" d="m266.7 182.7.5-.5c-.5-.9-1.1-1.8-1.6-2.7-4.2-6.7-6.7-13.7-6.2-21.8.2-3.4-1.2-6.9-2.3-10.2-.8-2.3-2.2-4.3-3.4-6.5-5-9.6-5.3-19.4-1.6-29.5 1-2.7 2.2-5.4 3.2-8.1 2-5.6.8-8.2-5-9.7-4.5-1.2-9.1-1.8-13.6-2.5-10-1.5-20-2.1-29.8 1.4-6.3 2.3-12.5 4.8-18.8 7.2-.9.3-1.7.9-2.5 1.3.6.5 1.1.5 1.6.5 5.1-.1 10.2-.5 15.2-.2 10.7.7 19.3 5.2 23.6 15.5 1.8 4.4 2.9 9.2 3.4 13.9 1.1 10.1-1.8 19.4-7.4 27.8-2.3 3.6-4.9 7-7.1 10.6-1.4 2.3-.7 3.5 2 3.4 2.3-.1 4.7-.4 7-.8 13.6-2.4 26.3-.5 37.8 7.7 1.7 1.1 3.4 2.1 5 3.2zM145.2 317.9c-1.4-6.2-4.3-11.7-9-16.2-11.4-11-28.2-8-35.2 6.2-6.3 12.7-2.4 29.8 11.8 37.7 11.2 6.2 20.1 15 29.4 23.6 2.8 2.6 3.1 2.6 4.4-1 1.1-3.1 2.4-3.9 5.6-2.8 3.2 1.1 6.2 2.6 9.3 3.8 4.3 1.7 8.7 3.4 13.1 5.1.1-.2.2-.5.3-.7-.4-.2-.7-.5-1.1-.7-14.4-7-22.5-18.6-24.9-34.4-1.1-6.9-2.3-13.8-3.7-20.6zM139 437.6c2.7-8.2.1-15.9-4.3-23-3.1-5-6.5-9.9-9.3-15-4.3-7.9-8.1-16-12.5-23.8-4-7.2-7.8-7.3-13-.9-10.6 13.1-10.1 28.3-1.7 42.3.4.6 1 1.1 1.4 1.7.8 1.1 2 2.1 2.2 3.2 3.9 17.8 10.7 34.4 19.4 50.3 2 3.6 4.2 7.1 6.3 10.7.3-.1.7-.2 1-.3-.2-1.4-.3-2.8-.5-4.2-.6-4.3-1.4-8.6-1.7-12.9-.3-5.9 2.3-10.8 5.7-15.5 2.9-4 5.5-8.2 7-12.6zM175.2 75.7c4.1 1 8.3 1.4 12.3 2 8.7-.9 17.1-1.5 25.4-2.7 10.9-1.6 21.4-4.7 29.5-12.6 9.3-9 18.1-18.5 27-28 1.2-1.3 1.6-3.4 2.4-5.1-1.8-.5-3.7-1.5-5.5-1.4-6.9.5-13.9 1.2-20.8 2.1-24.7 3-46.8 11.8-64.2 30.3-2.9 3.1-5.7 6.3-8.2 9.7-2 2.8-1.3 4.9 2.1 5.7zM588.5 347.6c-3.8-2-7.6-1.1-11 1.2-1 .7-2.1 1.5-2.9 2.4-1.7 1.9-3.4 3.7-4.9 5.8-5.6 7.7-11.9 14.6-19.2 20.7-6 5-8.9 11.6-7.2 19.6.3 1.6.5 3.2.7 4.8.6 5.5 1.9 6.3 7 4 .2-.1.5-.2.7-.3 13-7.3 24.4-16.3 32.8-28.8 4.2-6.2 7.3-13 7.4-20.7-.1-3.2.2-6.8-3.4-8.7zM391.9 475.4c2.9-2.2 6.2-4 9.3-6.1 4.4-3.1 7-7.4 7.7-12.7.5-3.7.6-7.6.4-11.4-.3-7.3-.6-14.7-1.4-21.9-.4-3.7-1.5-7.5-3.2-10.8-2.2-4.2-5.1-4-6.9.4-1.7 4.1-3 8.4-4 12.7-3.9 17.5-8.8 34.8-15.8 51.4-1.3 3.1-2.2 6.3-2.8 9.6-2 10.5 4.8 20.6 15.3 22.8.9.2 1.9 0 3.7 0-1.4-1.5-2.2-2.3-3-3.2-1.9-2.2-4.1-4.2-5.7-6.5-4.2-5.9-4.3-12.3 0-18.2 1.7-2.3 4.1-4.3 6.4-6.1zM576.4 257.4c-3.2-2.2-6.4-4.5-9.7-6.5-1.7-1.1-3.6-2-5.5-2.9-3.7-1.6-4.7-.9-4.2 3 .4 3.2 1.2 6.4 1.8 9.6 2.4 11.6 4.8 23.2 7.1 34.9.8 4.1 1.1 8.3 2 12.3 1.2 5.1 4.6 6.7 9.5 4.9 5.5-2 9.3-5.8 10.9-11.3 1.4-4.7 2.1-9.7 3.1-14.5-.2 0-.5-.1-.7-.1.7-12.5-4.2-22.3-14.3-29.4zM163.9 258.5c-1.4 5.5-.5 10.8 1.6 16 3.8 9.5 9.8 17.5 16.8 24.8 9.1 9.4 19.6 17 30.6 23.9 8 5.1 13.4 11.8 14.8 21.4.1.5.3 1 .6 2.3 0-8.9.2-17-.1-25.1-.3-7.5-4.3-12.7-11.1-15.8-3.5-1.6-7-3-10.6-4.3-6.5-2.4-12.2-6.1-16.7-11.3-7.9-9.3-14.6-19.2-17-31.5-.9-4.8-7.4-9-12.6-8.5 4.3 1.6 4.6 4.6 3.7 8.1zM339.8 205.1c9-.3 18.6-7.5 21-15.6 1-3.4.4-6.6-1.6-9.3-6.1-8.2-13.4-14-24.5-12.4-1.7.2-3.4.2-5.1.4-.6.1-1.3.3-1.6.6-2 2.2-3.9 4.5-5.8 6.8-2.2 2.8-3.8 5.8-3.8 9.5.4 1.8.6 3.7 1.2 5.5 2.9 8.4 11.9 14.8 20.2 14.5zM216 216.6c-1.9 1.6-4.4 2.6-6.3 4.1-1.4 1.1-2.9 2.6-3.6 4.2-.8 2-.9 4.4-1.4 7.6.9 4 1.6 8.8 3.2 13.4 1.7 5.2 5.8 7.6 11.3 7.8 13.9.5 25.1-13 22.7-27.1-2.4-13-16-18.6-25.9-10zM463.2 351.6c-4.8 5.6-6.6 12.6-8.4 19.5-.5 1.9-.4 4-.2 5.9 1.2 11.1 5.6 21.1 11.4 30.3 4.5 7.1 12 9.9 20.3 10.3.7 0 1.5-.5 2.2-.7-.3-.8-.5-1.7-1.1-2.3-.9-1-2-1.8-3.1-2.6-3.1-2.5-6.3-4.8-9.4-7.4-10.7-9-13.9-20.3-10.5-33.7 1.6-6.3 5.3-10.6 11.3-13.1 6.2-2.6 12.6-3.7 19.4-2.9 4.4.5 8.8 1 13.2 1.4v-.1h2.2c2.2-.1 4.3-.6 4.9-3 .6-2.4-1.5-3.2-3.1-4.2-.6-.4-1.3-.7-1.9-1-5.5-2-11-4.4-16.7-5.7-4-.9-8.5-1-12.6-.4-7.1 1-13.3 4.3-17.9 9.7zM520.2 183c-1.6-.8-3.4-1.4-5.1-1.8-4.8-1.1-9.3.2-13.8 1.7-5.3 1.7-10.7 3.3-16.1 4.6-2.3.6-4.9.5-7.3.9-2.5.4-3.1 1.5-2.1 3.8.4.9.9 1.8 1.5 2.6 6.6 8.4 15.2 13.3 28 13.7 2.2-.6 6.3-1.4 10.1-2.9 4.4-1.7 7.6-4.9 9.5-9.2 2.5-5.5.8-10.5-4.7-13.4zM133.4 223.9c1.3 2.8 2.5 5.6 3.4 8.6.9 2.9-.2 5-2.9 6.2-2 .9-4.3 1.4-6.5 1.9-2.5.5-5.1.8-7.6 1.2 0 .2-.1.4-.1.6.2.1.4.3.7.4 11.4 3.1 22.9 5.3 34.8 4.9 3.1-.1 3.7-1.6 1.9-4.1-2.4-3.3-5.1-6.4-7.2-9.8-6.9-11.6-11.8-23.8-12.7-37.5-.3-4.6-1.5-9-5.1-12.3-3.5-3.2-7-2.4-7.8 2.2-.7 4-.8 8.3-.3 12.4.9 9.1 5.5 17.1 9.4 25.3zM453.2 566.6c-.1-1.3-.4-2.7-.5-4-.4-4-2.2-5.2-6-3.5-2.3 1-4.5 2.3-6.8 3.4-7.7 3.4-14.3 1.8-19.7-4.7-1.2-1.4-2.4-2.8-3.6-4.1-3.7-3.9-8.4-5.3-13.6-4.6-3.6.5-7.2 1.6-10.7 2.8-2.9 1-5.6 2.5-8.5 3.5-7.5 2.6-15.1 4.1-22.7.6-.9-.4-1.9-.5-2.9-.5-1.8 0-3.1 1-3.3 2.9-.2 2 1 3.1 2.9 3.2 1.5.1 3.1.1 4.6-.2 11-1.8 20.7.6 28.6 8.8.5.5 1.1.9 1.6 1.4 4.6 4.3 10 5.7 16.1 4.8 4.4-.6 8.4-2.4 11.5-5.7-.1-.3-.2-.7-.3-1-2.5.1-5 .2-7.5.4-8.9.6-16.3-2.6-22.5-8.8-1.4-1.4-2.3-3.4.1-4.1 4.5-1.3 9.3-2.3 14-2.7 1.5-.2 3.4 1.4 4.9 2.5 1.6 1.3 2.9 3 4.4 4.4 7.6 7.2 17.6 8.5 26.9 3.6 1.1-.6 2.2-1.3 3.4-1.7 3-1.1 5.4.7 4.6 3.7-.5 1.9-1.8 4.1-3.4 5.2-2 1.4-4.7 1.7-7 2.5-2 .6-4.2 1-6.1 1.9-.8.4-1.4 2.2-1.3 3.2.1.6 1.8 1.4 2.8 1.4 6.4 0 12.1-2.1 16.8-6.5 2.2-1.9 3.3-4.8 3.2-8.1zM342.7 90.9c9-.2 17.2 2.3 24.8 6.8 5.9 3.5 11.6 7.4 17.4 11.1 1.2.7 2.4 1.2 3.7 1.8.2-.2.4-.4.7-.6-.5-1.4-.9-2.8-1.5-4.2-3.2-7-6.5-14-9.8-21-7-15-17-27.3-31.1-36.2-1.2-.7-2.5-1.4-3.7-2-.1.2-.3.3-.4.5 2 2.1 4 4.1 5.9 6.2 5.7 6.3 10.1 13.3 11 22 .7 6.8-2.2 11.3-8.8 12.4-4.1.7-8.3.4-12.4.5h-3.6c0 .3 0 .6-.1.9 2.4 1.7 5.2 1.8 7.9 1.8z"/>
    <path fill="#A6FFFD" d="M360.1 362.9c.5-.2.9-.6 1.6-1.1-4-.7-6.6-.4-12.3 1.5-3.8 1.2-5.4 3.3-5.7 7.4-.3 4.3 1 8.1 3.5 11.5 5.6 7.7 13.7 9.7 22.6 9.6 4.6-.1 9.7-.1 13.1-3.4 3.7-3.5 7.4-4.9 12.3-3.9.4.1.9-.1 1.8-.2-.4-.9-.6-1.5-.9-2-2.3-3.8-4.5-7.6-7-11.3-1.3-2-3-3.9-4.8-5.5-1.4-1.3-3.3-1.6-5.3-.4 1.3 1.7 2.6 3.2 3.8 4.8 2.4 3.3 4 7 3.3 11.2-.2 1-1.1 2.7-1.9 2.8-5.4.8-10.8 1.7-16.1 1.6-6.2-.2-11.8-5.5-13.2-11.3-1.3-5.6.3-9 5.2-11.3z"/>
    <path fill="#00FFFA" d="M305.4 224.2c7.3 5.6 15.5 9.6 24.5 11.9 6.9 1.7 13.6 1.5 20.3-.9 1-.3 1.8-1 2.8-1.6-1.5-.8-2.7-1-3.9-1.2-4.4-.6-8.9-.8-13.2-1.7-16.3-3.6-27.9-12.6-32.1-29.5-1.1-4.4-1.2-8.9-1.8-13.2-1.5 3.1-3.2 6.3-4.7 9.5-.7 1.6-1.3 3.2-1.5 4.9-1.2 9.2 2.6 16.3 9.6 21.8zM434.9 597.7c-1.3.1-2.7.3-4 .6-9.4 2.3-18.3.9-26.5-4.3-.9-.6-1.9-1.2-2.9-1.5-1.1-.4-2.3-.5-3.5-.7-.1 1.2-.3 2.5-.1 3.7.2 1.1.7 2.3 1.3 3.3 4.7 8.2 11.9 12.3 21.1 13.2 7.6-.5 13.2-4.2 17.1-10.6 1.5-2.6.6-3.9-2.5-3.7zM437.1 484.4c-.4.2-.7.4-1.1.7-.3 2.7-.9 5.5-1 8.2-.2 9.3 4.1 14.7 13.2 16.5 9.9 1.9 17.9-1.8 24.8-8.7.5-.5.7-1.2 1.5-2.7-16.8 6.1-29.1 1.4-37.4-14z"/>
    <path fill="#A6FFFD" d="M513.9 372c.7-.4 1.4-.8 2.5-1.5-2.1-.5-3.7-.7-5.2-1.2-3.7-1.1-5.7-.5-8 2.6-3.9 5.5-3.6 13 1.2 18.3 4.7 5.3 10.9 7.7 17.9 7.6 3.9 0 7.1-2 9.7-4.9.6-.7.7-1.7 1-2.6-.8-.2-1.7-.6-2.5-.6-2.8.1-5.6.5-8.4.5-4-.1-7.7-1.4-10.4-4.6-4-4.6-3.1-10.4 2.2-13.6z"/>
    <path fill="#00FFFA" d="M429.4 528c-1.1-.8-2.7-.9-4.2-1.3-.3 1.3-1.1 2.7-.9 4 .7 5.1 3.3 9 7.9 11.4 5 2.6 10.4 2.9 15.9 2 1.2-.2 2.3-.6 3.5-1v-.8c-1.5-.4-2.9-.8-4.4-1.1-5.8-1.2-10.7-3.7-13.8-9.1-1.1-1.6-2.5-3.1-4-4.1zM466.4 388.8c.7.3.8.4 1 .4 5-.6 10-1.6 14.6 1.8 1.3.9 2.3-.1 2.4-2 .3-3.8 1-7.6 1.5-11.4.2-1.5.3-2.9.5-4.4-1.5.4-3.4.3-4.5 1.2-4.7 3.9-9.2 8.1-13.8 12.2-.6.5-1 1.3-1.7 2.2z"/>
  </g>
  <g>
    <path fill="#00FFFA" d="M474.1 732.6c-2.1.5-3.1-.5-4.2-2.2-2.3-3.6-4.4-7.2-6.6-10.9-1.3-2.3-2.5-4.6-3.7-6.9-2.2-4.4-4-9.1-5.5-13.8-1.1-3.5-1.9-7-2.8-10.6-.5-2-.9-4-1.2-6.2-.4 0-.9-.1-1.2.1-1.3.9-2.7 1.3-4.1 1.9-4.7 2.1-9.3 4.2-14.2 5.7-2.6.8-5.2 1.9-7.8 2.7-2.3.7-4.6 1.5-7 2-1.7.4-3.5.9-5.2 1.2-1.8.3-3.5.9-5.3 1-.9.1-1.8.4-2.8.5-.8.1-1.8-.2-2.5.6h-.3c-2.5.2-4.9.4-7.4.5-3.5.2-7.1.7-10.6.6-3.6-.1-7.2-.1-10.9 0-1 0-1.9-.2-2.8-.6-1.3-.6-1.3-2.7 0-3.2.8-.3 1.6-.6 2.5-.6 5.9.1 11.8 0 17.6.1 1.6 0 3.1-.3 4.7-.6 1.5-.3 3.2.4 4.7-.5.3-.2.7 0 1.1 0 1.1 0 2.2.1 3.3-.5.9-.5 2.1.4 3-.6 2.4.4 4.5-1 6.9-1.1.9 0 1.9-.2 2.7-.6 2.4-1.2 5-1.6 7.4-2.3 3.1-.9 6-2.2 9-3.1 2.4-.7 4.7-1.8 7-2.7.8-.3 1.6-.8 2.4-1.6-.5 0-1-.1-1.5 0-3.4.4-6.8-.3-10.1-.7-2.1-.2-4.3-.9-6.5-1.3-2.7-.5-5.3-1.3-7.9-1.9-2.4-.5-4.8-1.6-7.1-2.4-5.5-1.9-11-4.1-16.2-6.7-2.3-1.1-4.8-2-7-3.4-3.1-1.9-6.5-3.2-9.5-5.3-1.7-1.2-3.8-1.9-5.6-2.9-3.7-2.2-7.4-4.5-11.1-6.7-2.5-1.5-5-2.8-7.5-4.3-6.1-3.7-12.6-6.6-19-9.8-3.6-1.8-7.2-3.5-11.1-4.8-1.1-.4-2.1-1.1-3.1-1.6-1-.6-1.3-1.1-1.1-2.1.1-.7 1.1-1.7 1.8-1.7.5 0 1 .2 1.5.3 1.2.4 2.3 1 3.5 1.4 1.9.6 3.6 1.8 5.4 2.6 3.4 1.3 6.6 3.3 10.1 4.6 4.4 1.7 8.4 4.2 12.5 6.4 4.5 2.5 8.9 5.2 13.3 8 4 2.6 8.2 5 12.5 7.2 3 1.5 6 3 8.9 4.7 3.3 1.9 6.8 3.4 10.2 5 5 2.4 10.1 4.4 15.4 6.1 1.8.6 3.7 1 5.6 1.7 1.8.7 3.9.5 5.6 1.6 2.5-.1 4.8.8 7.1 1.2 2.1.3 4.2.1 6.3.5 1.7.3 3.3.6 4.9.4 4.2-.5 8.4-.7 12.4-2.1 3.2-1.1 7-2.9 10.3-5.3 1.2-.9 2.3-1.9 3.4-2.9 1-.8 2.2-1.6 3-2.5 4.3-4.9 8.5-9.8 11.9-15.5 2-3.3 4.1-6.6 5.9-10.1 2.8-5.2 5.6-10.4 8-15.7 1.4-3.1 3-6 4.2-9.1 1.4-3.5 3.2-6.8 4.6-10.3 1.3-3.2 2.6-6.4 4-9.5 1.6-3.5 3.1-7.1 4.4-10.7 1.7-4.5 4-8.9 5.1-13.7 1.5-2 1.7-4.6 2.7-6.8.9-2.1 1.3-4.5 2.3-6.7 2.4-5.3 3.7-11 5.7-16.4.6-1.6.8-3.3 1.3-4.9.5-1.6 1.1-3.2 1.6-4.8 1.2-3.5 2-7.1 3.1-10.7.6-1.9 1.2-3.9 1.6-5.9.4-1.9.6-3.9 1.2-5.8s1-3.9 1.6-5.9c.6-1.9 1-3.9 1.6-5.9.5-1.7.7-3.5 1.1-5.2.9-3.5 1.5-7 2.2-10.5.2-1.1 1.1-1.9 2.1-1.9 1.1 0 1.6.4 1.7 1.5.2 2.1-.2 4.1-.8 6-.4 1.2-.6 2.5-.8 3.7-.3 2.1-.9 4-1.4 6-.4 2.1-.8 4.1-1.4 6.2-.9 3.3-1.7 6.6-2.5 9.8-.9 3.8-2.1 7.5-3 11.3-.5 2.3-1.5 4.5-2.1 6.7-.9 3.2-1.7 6.3-2.7 9.5-1.7 5.2-3.5 10.4-5.2 15.5-1.2 3.4-2.2 6.9-3.5 10.2-1.4 3.4-2.5 7-4 10.3-1.1 2.5-1.8 5.2-3 7.7-.7 1.4-1.1 3-1.7 4.5-.7 1.5-1.8 3-2.1 4.6-.3 1.7-1.5 3-1.8 4.7-.2 1.3-1.1 2.6-1.7 3.9-1 1.9-1.6 3.9-2.5 5.8-2.3 4.8-4.3 9.6-6.6 14.4-2.6 5.4-5.2 10.7-7.9 16.1-2.3 4.5-4.9 8.9-7.6 13.2-2.4 3.9-5.1 7.5-7.9 11.1-2.8 3.6-6 6.7-9.3 9.7-3.6 3.2-7.7 5.9-12.4 7.3-.7.2-1.3.7-2.2 1.2.2 1.8.1 3.7.7 5.4.7 1.9.9 4 1.5 5.9 1 3.5 2 7 3.1 10.4.8 2.4 1.8 4.7 2.9 7 .9 2 1.7 4 2.7 5.9 1.7 2.9 3.3 5.9 5.1 8.8 1.3 2.1 2.5 4.2 4 6.2 1.5 1.5 1.4 2 .6 3.9z"/>
    <path fill="#A6FFFD" d="M524.9 485.7c-6.5-3.3-13.2-6-20.8-5.7-5.1.2-7.5 3.3-6.7 8.3.8 5.3 3.2 9.9 7.1 13.5 5.1 4.7 10.4 9 15.8 13.3 25.7 20.7 37 47.4 33 80.3-3.1 24.9-13.5 46.5-29.8 65.4-12.3 14.2-27.3 24-46.1 27.4-8.3 1.5-16.7 2.3-25 3.6-4.8.7-9.7 1.4-14.4 2.8-4.7 1.4-5.8 4.8-3.1 8.9 1.4 2.2 3.5 4.2 5.7 5.6 2.8 1.7 6.1 3 9.2 3.9 12 3.4 24.9 2.3 27.2 2.3.5 0 1.1 0 1.6-.1 38.4-3.6 68.7-21.3 90.1-53.4 21.5-32.3 25.1-67.6 15-104.5-8.9-32.5-28.8-56.4-58.8-71.6z"/>
    <path fill="#00FFFA" d="M407.7 421.2c1.6 1.8 1.8 3.9 2.5 5.8.4 1 .1 2.5.7 3.2.7.9-.1 2.2 1 2.9.2 1.7.1 3.5.6 5.2 1 3.6.3 7.3.5 10.9.1 1.1 0 2.2-.5 3.3-.4.9.2 2.1-.6 3 .1 2.5-.9 4.7-1.6 6.9-1.3 3.7-2.9 7.2-6 9.8-.6.5-1.2 1.1-1.9 1.3-3.7.9-6.7 3.1-9.8 5.1-1.7 1.1-2.9 2.8-4 4.6-.9 1.5-1.6 3.1-2.2 4.8-.9 2.7-.8 5.7-.5 8.5.3 2.1 1.5 4.1 3.2 5.7l5.4 5.4c.4.4.5 1 1 2-1-.2-1.6-.1-2.1-.3-1.5-.6-2.9-1.3-4.3-2.1-3.4-2.1-5.9-5-7.1-8.9-.7-2.4-.5-6.1-.1-9.1.4-2.2 1-4.3 2-6.2 2.1-4.2 5.4-7.3 9.4-9.8 1.9-1.1 3.7-2.2 5.9-2.9 2.3-.8 3.9-2.5 5.1-4.8 1.7-3.3 2.6-6.7 3.7-10.2.5-1.8.4-3.8.6-5.7.2-2.1.5-4.2.5-6.3 0-1.6-.4-3.3-.5-4.9-.1-1.7.2-3.5-.1-5.2-.5-2.6-.7-5.2-1-7.7-.1-.8-.8-1.6-.5-2.5.2-.7.4-1.2.7-1.8zM469.1 515.4c1.2-1.5 2-2.7 2.9-3.9 1.6-2 3.4-4 5-6.1 1.3-1.8 2.1-3.8 2.7-5.9.9-3.2.7-6.6.5-9.8-.3-2.9-1.4-5.7-2.4-8.5-1.6-4.6-3.2-9.2-4.2-14.1-.3-1.4-.5-2.8-.9-4.2-.5-1.4-.2-3-.7-4.4-.4-1.3-.2-2.7-.6-3.8-.4-1.3-.4-2.6-.5-3.9 0-.5 0-1 .5-1.4 1.1-1.2 1.8-1.2 2.8 0 .5.6 1 1.4 1 2-.2 1.9.3 3.7.7 5.5.6 3.3 1.1 6.5 1.9 9.8.6 2.4 1.5 4.9 1.9 7.4.2 1.3.7 2.6 1.3 3.8 1.2 2.5 1.7 5.3 2.5 7.9 1.1 3.2 1.1 6.4 1 9.6-.1 3.7-2.2 9.6-4.9 13.5-1.7 2.4-4 3.8-6.2 5.4-.9.7-2.4 1.5-4.3 1.1zM428.2 502.7c0 .6.1 1.2 0 1.7-.1.8-.5 1.3-1.3 1.3-1.4.1-2.7-.1-3.9-1.1-2.1-1.8-4.7-3-7.3-4-2.3-.9-4.8-1.7-7.3.2-1.4 1-3.3.9-4.9.5-2.8-.8-3.2-4.2-1.6-6.4.8-1.2 1.9-2.2 3.1-3.1 2.1-1.5 4.5-1.8 6.9-1.1 4.3 1.2 7.9 3.5 11 6.7 1.7 1.8 3.4 3.5 5.3 5.3z"/>
  </g>
  <g fill="#8D00AB">
    <path d="M645 281.8c-1.5-12.4-6.9-22.9-15.6-31.6-2.9-2.9-4.2-5.8-3.4-9.8.4-2.2.3-4.5.4-6.8 1-25.4-2.7-49.8-14.6-72.5-10.3-19.9-24.6-36.1-44.7-46.5-12.9-6.7-26.6-8.8-40.9-5.3-1.8.4-2.7.2-3.5-1.7-3.9-9-9.4-16.9-16-24.2-11.7-12.9-25.6-22.7-41.3-30-17.8-8.3-36.5-13.5-55.8-17-2.8-.5-5.9-.7-8.5-1.9-13.6-6.4-27.9-9.7-42.7-11-8.7-.8-17.1-2.2-25.6-4.2-19.1-4.5-37.8-3.9-55.2 6.6-.6.3-1.4.5-2 .5-8.1.1-16.3-.3-24.4.3-27.3 2-50.5 12.9-69.4 32.7-4.1 4.3-7.6 9-11.4 13.5-.8.9-2.1 1.8-3.3 2-20.7 3.1-36.9 13.5-49.3 30.1-2.9 3.9-6.1 6-10.7 7.3-14.9 4.2-29.4 9.7-42.6 18.2-13.8 9-22.6 21.5-26.6 37.5-3.9 15.7-3.5 31.3.7 46.8.8 2.8.5 4.8-1.2 7.2-12.3 17.2-19 36.4-18.8 57.7.1 7.9 1.4 15.6 6.4 22.1 1.4 1.8 1.4 3.1.5 5.1-5.6 12.3-8.4 25.2-8.7 38.8-.4 18.9 4.7 36 16.7 50.6 7.4 9 15.7 17.4 23.4 26.1 1.1 1.3 2.1 3 2.6 4.6 1.4 4.9 2.4 9.9 3.9 14.7 6.4 21.3 14.9 41.7 28.4 59.6.6.8.7 2.2.7 3.3.1 5.5-.2 11.1.3 16.6 1.4 14.9 7.1 28.4 13.8 41.6 1 2 1.3 3.8.9 6-1.9 10.4-2.7 20.9-1.2 31.4 3.6 24.6 17.3 43.4 34.4 60.3.9.9 1.5 2.4 1.6 3.6 1.3 16.2 2.5 32.4 3.8 48.6 1.2 15 2.3 69 1.3 84.1-1.7 24.9-13.1 43.5-34.6 56-9.2 5.3-18.8 9.4-29.1 12-10.1 2.6-20.3 4.7-30.4 7.1-2.8.7-5.6 1.7-8.2 2.8-2 .9-3.3 2.4-3.3 4.9 0 26.5 7.3 50.4 25.2 70.6 12 13.7 25.5 25.6 40.7 35.5 58 37.8 121.5 59.9 190.4 66.2 26.2 2.4 52.2.8 77.7-6.1 54.3-14.6 95.8-46.1 124.5-94.5 7.7-13 14.5-26.6 22-39.8 7.4-13.1 14.9-26.2 22.8-39 7.5-12.1 17.8-20.7 31.9-24.7 9.8-2.8 11.1-6.4 7.2-15.8-1.8-4.4-3.8-8.6-5.3-13.1-.8-2.3-1.8-3.4-4.2-3.9-15.7-3.1-31.6-5.6-46.9-10.7-17.8-5.9-34-53.4-47.1-67.2-.6-.7-1.3-1.4-2.2-2.5 1.1-.2 1.7-.3 2.3-.3 10.7-.9 21.2-3.3 31.1-7.4 35.1-14.7 60.5-39.7 76.2-74 31.7-69.3 6.4-132.9-34.8-169.2-2.7-2.4-3.3-4.4-2.6-7.8 3.5-17.5 4.7-35.1.8-52.7-.9-4.1-1.9-8.1-2.7-11.8 4.6-2.2 9.2-3.6 12.7-6.3 17.9-13.9 31.7-30.3 32.7-54.5 0-.8 1.1-2.1 1.9-2.3 10-2.4 16.6-8.7 21.3-17.6.8-1.6 2.4-3.2 4-4 18.3-9.8 26.1-24.4 23.6-44.9zM533.4 112.2c11-1.4 21.3.8 31.1 5.7 15 7.4 26.7 18.7 36.1 32.3 13.8 20.1 20.5 42.5 21.6 66.7.4 8.3.1 16.7.1 25-.3.1-.6.3-.9.4-12.5-8.1-25.5-15.3-39.6-20.2.7-3.5 1.5-6.9 2-10.3 2.5-20.5-4.9-37.1-19.7-50.9-8.2-7.7-17.9-13-28.7-16-2-.6-2.6-1.5-3-3.5-1.9-9.1-4-18.2-6.1-27.8 1.8-.4 4.4-1.1 7.1-1.4zm-23.5 99c8.5-2 14.9-6.6 17.4-15.4 2.5-8.9-2.1-15.7-11.2-16.1-4.2-.2-8.8.4-12.7 1.9-21.3 8.2-42.6 5.8-63.9.4-10.9-2.8-19.6-9.6-27.7-17.2-.8-.8-1.1-2.4-1.1-3.7-.2-11.6-2.3-22.8-7.5-33.1-2.1-4.2-5.1-7.9-7.5-11.9-1.7-2.7-3.4-5.5-4.6-8.5-3.1-7.3-6-14.6-8.7-22-.5-1.3-.4-2.9 0-4.3.8-3.3 2.2-6.5 2.9-9.9.4-1.7 1-2.6 2.7-3.3 17.2-6.7 34.3-6.7 51.5-.1 12.7 4.9 23.9 12.1 33.1 22.2 7.3 8 11.8 17.3 12.6 28.3.5 6.8 1.1 13.5 1.7 20.5-14.3 2.6-27-3.3-33.1-16-2.5-5.2-3.8-11.1-5.7-16.7-.3-.9-.4-1.8-.9-2.5-.9-1.3-2.7-1-3.2.6-.2.7-.2 1.4-.1 2.1 1.6 8.8 4.4 17 9.6 24.3 5.6 7.9 13.6 11.8 23 12.2 8 .3 16.1-.6 24.1-1.1 1.8-.1 3.6-.4 5.4-.7 10.1-1.4 18.6 1.8 25.7 8.9 9.1 9.1 13.3 20.4 13.9 33.1.6 12.5-1.7 24.4-7.5 35.5-1.5 2.9-2.9 5.9-4.7 8.6-8.8 13.6-21.2 21-37.5 21.7-16.9.7-31.8-4.4-43.9-16.7-11.7-11.9-13.7-27.8-5.7-42.3.7-1.3 1.5-1.7 3-1.5 7.4.9 14.8 1.6 22.1 2.5.9.1 2 1 2.5 1.8 7.3 14.7 21.2 21.8 36 18.4zm-32.7-20.1c3.4-.3 5.9-.3 8.3-.8 6.3-1.5 12.6-3.1 18.9-4.9 4.1-1.2 8.2-2.4 12.5-1.5 5.3 1.1 7.6 4.3 6.6 9.6-1.1 5.9-4.7 9.8-10.1 12.2-9.9 4.4-22.1 2.1-29.5-5.9-2.3-2.5-4.2-5.4-6.7-8.7zm66.9 23.9c5.9-14.9 7.5-30.2 3.1-45.8-1.9-6.9-5.3-13.1-10.2-19.2 1.3.3 1.9.4 2.5.6 13.2 5.1 24 13.4 31.8 25.3 8.7 13.2 10.6 27.5 6.7 42.7-3 11.6-9.9 20.2-20.1 26-4.3-7-8.2-13.9-12.7-20.4-2.2-3.2-2.5-5.5-1.1-9.2zM414 41.5c22.2 4.6 43.8 11.1 63.3 23.1 15.2 9.3 28.1 21.1 37.4 36.5 7.3 12.2 11.1 25.7 13.3 39.7 0 .2-.1.5-.1.8-.2 0-.5.1-.6 0-8.8-5.5-18.2-5.2-27.9-3.6-2.1.4-4.1.5-6.2.9-1.7.3-2.4-.3-2.6-2.1-.4-5.3-1.1-10.7-1.4-16-.6-15.7-7.7-28.1-19-38.4-11.5-10.5-24.8-17.6-39.8-21.4-1.2-.3-2.6-1.2-3.1-2.2-3.4-6.1-7.8-11.3-13.1-15.8-.5-.4-.9-.8-1.6-1.6.7.1 1.1 0 1.4.1zM394 36c11.7 4.8 21.8 11.7 28.3 23.2-12.7-1.4-24.8.9-36.9 5.5-2.5-17.5-13.1-28.5-27.8-36.4 4.3-1.3 25.5 3.2 36.4 7.7zm-181.5 5.5c18.3-9.4 37.8-11.7 58.2-11.2-.2.6-.3.8-.4 1-5.8 6.2-11.9 12.1-17.3 18.7-15.1 18.6-34.2 27.3-58.1 25.6-6.6-.5-13.1-.9-20.1-1.4 10.2-13.9 22.6-24.9 37.7-32.7zM43.2 164.6c4.2-13.5 12.6-23.7 24.5-31.2 13-8.2 27.3-13.3 42-17.6.3-.1.7 0 1.3 0-5.1 11.6-6.6 23.6-6.3 36 .2-1 .5-1.9.7-2.9 2.2-8.3 3.7-16.9 6.8-24.9 9.7-24.9 28-39.8 54.2-44.7 9.1-1.7 18.3-.4 27.4.3 25.1 2 45.6-6.7 61.6-26.3 2.1-2.5 4.1-5 6.2-7.6 16.5-20.5 37.9-27.9 63.6-23.8 13.7 2.2 26.6 6.6 38 14.5C372.6 42.9 379 51.5 381 63c.9 5.4-.1 11.3-2.5 15.2-.6-1-1.2-1.9-1.7-2.8-7.6-13.2-19.2-21.7-32.7-28.1-.9-.4-3-.2-3.5.5-1.1 1.6.5 2.5 1.8 3.2 2.3 1.2 4.7 2.4 7 3.7 12 6.7 21.2 16.1 27 28.6 3.5 7.4 6.6 14.9 10.1 22.7-1-.1-1.3-.1-1.5-.2-13.3-10.1-28.7-14.4-45-16.2-1.7-.2-3.5-.6-5.1-.4-1 .1-1.9 1.2-2.9 1.8.9.7 1.6 2 2.6 2.1 6.6 1.1 13.3 1.8 19.8 3.1 10.9 2.3 20.9 6.8 29.5 14 16.5 13.7 22.7 31.9 22.4 52.8-.1 5.9-1 11.7-3.3 17.2-2.1 4.8-5.4 8.4-10.2 11V184c-.1-13.8-4.7-25.9-15-35.2-4.4-4-9.4-7.3-14.2-10.9-1.2-.9-2.8-1.6-3.8.1-1 1.7.5 2.6 1.7 3.4 3.2 2.2 6.5 4.3 9.5 6.8 19.5 16.1 23.4 42.9 9.4 64.1-12.5 19-37.5 27.1-58.8 19-4-1.5-7.6-3.8-11.5-5.6-8.1-3.8-10.6-10.9-11-18.9-.5-9.1 2.6-17.4 7.4-24.9 2.6-4.1 6-7.7 9.5-11.1 2.6-2.6 6.1-3.8 10.4-4.4-.9.7-1.2 1-1.6 1.2-8.7 5.7-12.1 15.7-8.1 25.4 3.6 8.8 9.9 14.7 19.5 15.8 10.2 1.1 18.8-2.5 24.9-10.9 4-5.5 3.9-11.6.9-17.5-5.6-11.2-15.2-16.8-27.2-18.2-10.8-1.3-19.8 2.3-26.8 10.6-7.4 8.7-11.6 18.8-12.9 30-.9 8.1 2 15.2 5.8 22 1.7 3.1 3.5 6.2 5.3 9.2 13.1 22.1 7 47.9-10.4 63.9-3.7 3.4-7.7 6.3-12.5 7.9-1.5.5-2.9 1-4.3 1.8-11.7 6.4-24.2 6.2-36.8 4.3-14-2.2-27.1-6.9-38.8-14.8-14.8-10.1-24.9-23.6-29.2-41.2-.8-3.1-.9-6.5-.4-9.6.6-4.4 1.7-8.7 3.1-12.9 5.7-16.5 17.5-25.1 35-25.4 4.3-.1 8.6.7 12.9 1v.8c-.4.1-.8.4-1.2.4-14.7 2.1-23.8 17.7-20.6 33 3.2 15.8 15.9 25.7 33.6 25.9 21.8.3 40.8-15.2 45.8-37.7 3.5-15.9.5-30.6-9.4-43.7-1.1-1.4-1.8-3.2-2.5-4.8-5-11.5-8.5-23.3-7.7-36.1.6-10.4 4.1-19.8 10.2-28.2 5.5-7.4 12.1-13.8 19.4-19.3 1.3-1 3.5-2 2-4s-3.2-.4-4.4.7c-6 5.6-12.4 11-17.8 17.1-8.5 9.6-13 21-14.1 34.1-.4-.7-.8-1.4-1.1-2.2-4.5-10.1-4.2-20.6-1.3-30.9 1.6-5.7 4-11.2 6.2-16.8.8-2.1.4-3.3-2.2-3.8-7.6-1.4-15.1-3.2-22.8-3.8-36.3-2.7-65.1 11.9-87.3 40-11.2 14.1-15.6 30.7-15.5 48.6v5.1c-17.8-11-36.2-12.6-54.9-4.7-18.8 7.9-30.7 21.7-33.5 43.3-.7-2.1-1.2-3.4-1.7-4.8-5.8-17.3-6.3-34.9-.8-52.6zm285.8 5.7c12.5-5.4 27 1.8 30.4 15.2.9 3.6.4 7-1.6 10.1-4.3 6.6-13.9 10.7-22.1 9.3-7.6-1.3-14.3-7.9-16.1-15.9-.3-1.2-.4-2.5-.5-3.5.4-7.2 3.4-12.4 9.9-15.2zm-71.3-14.4c.4.7.8 1.4 1 2.2 1.7 6.7 3.4 13.5 5.1 20.3.1.2 0 .5.1 1.1-.8-.4-1.4-.7-1.9-1-23.4-15.5-65.7-14.6-84.9 22.4-7.8 14.9-10.6 30.7-8.7 47.4.1 1.2.3 2.3.5 4.2-4.5-3.1-9.3-4.1-12.2-9.1-9.3-16.2-16.1-33.2-18.2-51.7-3.4-30 5.4-55.6 29.3-75.3 26-21.4 55.4-27.2 87.8-19.3.3.1.6.3.6.2-2.1 7.8-4.4 15.1-5.9 22.6-2.8 13 .2 25 7.4 36zm-43.4 100.5c.6.2 1.2.3 1.8.5 5.1 2 9.9 1.4 14.6-1.3 11.4-6.7 17.3-23 12.8-35.5-1.8-4.9-4.8-8.8-9.5-11.1-15.8-7.8-31.4-6.9-46.4 2.2-6.5 4-10.4 10.2-13.4 17.1-.4 1-.8 2-1.2 2.9-.3 0-.5-.1-.8-.1.5-2.8.8-5.7 1.4-8.5 2.8-13.1 8.3-24.9 17.9-34.5 19-19 53.7-20.2 73.5-2.1 13.7 12.5 17.2 28.6 12.7 46.1-4.2 16.6-14.8 27.8-31.8 32.1-7.8 2-15.7 1.5-23.2-1.8-3.1-1.3-5.9-3.4-8.8-5.1.1-.3.2-.6.4-.9zm-5.8-9.8c-1-.8-1.5-2.5-1.8-3.8-3.3-16 6.7-28.5 23.5-28.9 3.6-.8 5.9 1.5 7.8 4.7 6.7 11.2.2 29.9-11.9 34.6-2.7 1.1-5.6 1.4-8.2 0-3.2-1.9-6.4-4.2-9.4-6.6zm-39.4 10.9c.6.3 1.1 1.2 1.3 1.9 7.7 25.4 25 41.5 49.1 50.9 3.2 1.2 4.5 2.9 5.1 6 2.3 11.4 3.9 22.7 1.7 34.3-3.5 18-14.1 26.6-32.4 25.5-17.2-1-30.6-8.9-39.3-24-3.8-6.6-4.3-14.1-5.7-21.4-1.3-6.8-2.8-13.7-4.9-20.3-2-6.3-6.5-10.8-12.3-14-10.3-5.5-21.1-3.4-28.5 5.7-9.5 11.7-8.3 30.1 2.9 41.8.7.7 1.6 1.1 2.5 1.8-6.4 1.2-11.9 2.3-17.7 3.4-9.8-14-17.3-29.5-17-47.9.7-40.3 40.9-67.4 78.3-52.5 5.9 2.5 11.3 5.8 16.9 8.8zM22.9 282.6c-.9-18.8 4-36.1 13.8-52 1.4-2.2 2.8-4.3 4.5-7 .8 2.1 1.4 3.7 2.1 5.3 2.6 6.1 5.3 12.1 7.9 18.2.3.8.4 1.8.2 2.6-2.3 12-6.2 23.5-12.7 33.9-3.3 5.3-6.5 10.6-10 16.4-4.1-5.4-5.5-11.3-5.8-17.4zM56 415.5c-7.5-8.6-15.6-16.8-22.2-26C20 370.6 18.6 349.2 23.2 327c2.1-10.1 6.1-19.5 11.2-28.5 2.8-4.9 5.9-9.7 9.3-14.4v2.8c-.5 13.5.4 26.8 4.8 39.7 2.9 8.3 7 15.9 12.8 22.5.9 1 1.5 1.9.7 3.3-8.5 15.7-9.6 32.4-6.9 49.7.7 4.5 1.3 9.1 2.1 14-.6-.3-1-.4-1.2-.6zm37.6 81.3c-1.7-2.4-3.1-4.3-4.4-6.3-10.6-17.1-18.1-35.5-23.3-54.9-3.7-13.7-6-27.6-7.6-41.7-1.5-14 .8-27.3 7.5-39.7 1.5-2.7 1.1-4.7-.8-6.9-11.6-13-16.3-28.7-17.1-45.7-.4-9.1.3-18.3.5-27.4 0-.8.5-1.5.7-2.3 2-6.7 4.1-13.3 5.9-20.1 1-3.7.5-7.2-1.5-10.8-6.4-11.9-5.4-24.2 1.1-35.6 9-16.2 23.5-24.4 41.6-26.6 13-1.5 24.8 1.8 35.6 8.9.9.6 1.7 1.7 1.8 2.7 2.7 18.5 8.3 36 17.7 52.3.2.4.3.8.6 1.5-1-.3-1.7-.4-2.3-.6-41.5-13.2-83.1 19.8-80 63.3 1.2 17 8.4 31.5 18.1 45.3-1.3 1.5-2.8 3.1-4.1 4.8-4.4 6.1-6.3 13.2-7.2 20.6-2 16.7.9 32.7 6.8 48.3 5.3 14.1 12.9 27 20.9 39.7 1.2 1.9 1.3 3.2 0 5.2-4.4 7.3-7.9 15.1-10 23.4.1.5-.1 1.2-.5 2.6zm4.7 32.4c-4.6-19.7-1.1-38.2 9-55.5.1-.2.3-.5.4-.7.1-.1.3-.2.7-.5 6.6 10.8 12.2 22 16.1 34 .2.8.3 1.6.2 2.4-2.7 21.8.8 43 6 64.1 2 8.3 3.6 16.6 4.9 25.3-.5-.4-1.1-.7-1.5-1.2-3.3-3.9-6.9-7.5-9.7-11.7-11.5-17.5-21.4-35.7-26.1-56.2zm43.2 126.2c-23-23.2-36.5-49.3-30.3-83.2.7 1.1 1.2 1.8 1.6 2.5 6.1 11.1 13.6 21 22.7 29.7.9.9 1.7 2.2 1.9 3.4 1.5 15.4 3 30.9 4.4 46.3 0 .2-.1.5-.3 1.3zm434.1 167.3c2.1 4.6 4.1 9.3 5.8 14.1 1.2 3.3.6 4.6-2.6 6-2.1.9-4.2 1.7-6.4 2.3-10.1 3-18.3 8.7-24.7 17-4.5 5.8-8.9 11.8-12.5 18.1-8.8 15.2-16.9 30.9-25.7 46.1-7.9 13.7-15.4 27.9-24.7 40.6-33.7 45.8-79.3 72.2-135.6 79.7-35.9 4.8-71.3 1.1-106.3-7.6-41.9-10.4-82.1-25.4-119.2-47.8-17.9-10.8-34.8-23.1-49-38.5-8-8.6-15.1-17.9-20.1-28.6-3.5-7.3-5.6-15.1-6.3-23.1l.6 1.2c6 16 16.4 28.7 29.3 39.5 11.5 9.6 24 17.5 36.7 25.3 35.7 21.9 73.1 40 113.5 51.7 33.4 9.7 67.4 13.5 102.2 10.3 53.7-5 97.8-27.9 132.2-69.6 15-18.2 27.5-37.8 39.1-58.2 8.1-14.2 16.1-28.4 24.7-42.3 5-8 11-15.6 17.2-22.7 7.6-8.8 17.9-13.1 29.3-14.6.8-.2 2.2.5 2.5 1.1zm17.5-195.9c-11.7 43-37.4 74.8-77.7 94.2-11.8 5.7-24.4 8.7-37.5 9.5-1.4.1-20.2-.2-27.4-1.3-27.8-4.1-53.3-14.4-76.5-30.2-18.6-12.6-34.2-28.1-44.6-48.2-3.5-6.9-6.5-14.2-8.7-21.6-5.7-19.2-5.4-38.8-2.9-58.5 2-16 6.1-31.3 12.9-45.9 14.5-31.6 39.2-51.7 71.6-63 16.4-5.7 32.9-8.3 51-8.3 6.1.4 12.2.4 18.2 1.2 24.4 3 47.7 9.7 68.2 23.7 36.3 24.7 71.9 80.2 53.4 148.4zm-232.2 68.1c-.7.1-1.2.2-1.8.2-65.9-5.8-121.3-32.8-165.1-82.7-15.9-18.1-27.9-38.7-33.8-62.3-1.6-6.2-2.5-12.6-3.8-18.9.3-.1.5-.1.8-.2l3.6 9c6 14.5 13 28.4 22.5 40.9 3.7 4.8 7.7 9.4 12 13.7 13.3 13.6 29.9 20 48.6 21.6 13.5 1.1 27.1 2 40.6 3.3 10.1.9 19.8 3.7 29.1 7.4 1.1.4 2.3 1.6 2.6 2.7 7.3 25.5 22.1 46 42.3 62.9.6.5 1.3 1 1.9 1.6.3.2.3.4.5.8zm188.9-247.4c-.2 10-1.6 19.8-3.7 30.3-10.5-8-21.7-13.7-33.7-17.9-12-4.2-24.2-7.4-37-9.1-1-5.8-1.6-11.9-3-17.8-3-12.4-6.6-24.7-9.7-37.1-1.8-7.1-3.3-14.3-4.9-21.4-.4-1.7.3-3 1.7-4.2 19.6-16 41.3-17.8 64.5-9.5 2.6.9 5 2.6 7.2 4.3 3.4 2.6 4.4 6.2 3.7 10.7-.2 0-.4.1-.5 0-10.8-10.5-24.1-11.3-37.9-9.1-12.3 2-22.6 7.5-30 17.9-.6.9-1.3 1.8-1.5 2.8-1 4.5 1.3 7.1 5.8 5.8 6.4-1.7 11.9-.4 17.6 2.9 11.4 6.6 24 7.4 36.7 4.8 5.4-1.1 8.9-4.9 11.5-9.6 1.7-3 2.7-5.9 1.8-9.5-.4-1.6.6-3.5.8-5.3.8-7.6-2.1-13.2-8.7-17.1-5.5-3.2-11-6.5-16.6-9.7-8.4-5-17.6-7.4-27.3-8.3-14-1.4-23.7-9.8-27.6-23.4-.4-1.6-.6-4-2.9-3.5-2.5.6-1.5 2.9-1 4.6 3 10.6 9 18.7 19.3 23.2.4.2.7.4 1.3.7-.3.3-.5.5-.7.6-16.5 4.8-24.4 23.7-20.6 37.4 2.1 7.8 4.2 15.6 6.6 23.3 4.5 14.2 7.6 28.7 9.7 43.5.1.7.1 1.4.2 2.4-1.4-.1-2.7-.1-3.9-.2-32-2.5-62.3 2.9-90.4 18.9-23.5 13.4-40.6 32.6-51 57.6-12.6 30.2-16.2 61.5-11.2 93.9.1.7.1 1.4.2 2.2-.6-.1-.9-.1-1.2-.2-16.3-6.3-33.5-7.6-50.7-8.8-10-.7-20.1-1.6-30-3.3-15.3-2.5-27.5-10.9-37.8-22.1-13-14.1-22.2-30.7-29.4-48.3-3.6-9-6.4-18.3-9.6-27.5-.5-1.4-.8-3-2.7-2.8-2.1.3-1.9 2.1-1.9 3.6.7 37.3 13 70.2 37 98.6 38.7 46 88 73.6 146.9 84.4 9.8 1.8 19.8 2.2 29.7 3.5 2 .2 4.1.9 5.7 2 26 17.5 54.4 28.8 85.6 32.4 4.9.6 9.8.5 14.6.8 1.1.1 2.5.4 3.1 1.1 17.8 20.5 28.1 66.6 53.7 72.9 7.9 1.9 29 6.7 37 8.4.7.1 1.4.3 2.7.6-1 .4-1.4.6-1.8.7-10.7 2.4-19.6 8-26.4 16.3-6.6 8-12.8 16.5-18.2 25.3-9.6 15.6-18.5 31.6-27.6 47.5-12.3 21.5-26.6 41.5-43.5 59.7-30.1 32.5-67.4 50.4-110.9 56.2-43.1 5.7-84.9-.3-125.8-14.3-43.7-15-83.9-36.8-121.8-63-3-2.1-5.8-4.4-8.6-6.6-19.4-14.9-30.5-34.8-35.8-58.3-.6-2.5.2-3.6 2.4-4.1 7.7-1.8 15.3-3.6 23-5.4 12.1-2.7 23.9-6 35-11.5 3.8-1.9 7.5-4 11.1-6.3 19.9-12.6 30.8-30.7 32.9-54.1 1.3-14.2.6-67.3-.5-81.4-1.9-25.5-3.9-51-5.6-76.5-1.9-27.1-6.1-53.9-12.6-80.3-3.1-12.7-5-25.6-4.5-38.8 0-1 .1-2.1.2-3.1h.5c.9 2 1.7 4 2.6 5.9 3.4 7.1 9.5 10.2 16.8 11.4.9.1 2-.9 3-1.4-.8-.8-1.4-1.8-2.3-2.5-.5-.4-1.4-.3-2.1-.5-6.2-1.4-10.6-5-12.8-11.1-1.8-5.1-3.4-10.3-5.1-15.5-4.8-14.8-12.2-28.3-20.1-41.5-6.2-10.4-12.4-20.9-17.7-31.8-8-16.5-12.3-33.9-10.5-52.4.4-4.1 1.2-8.3 2.4-12.3 4.3-13.9 14.8-20 29.1-16.7 10.6 2.4 19.4 8.4 27.5 15.3l2.4 1.8c.2-.2.4-.4.7-.6-.6-.8-1.1-1.7-1.7-2.4-6-7.1-13.5-12.3-21.6-16.7-10.6-5.8-17.6-14.3-18.1-26.8-.2-3.9.6-8.2 2.1-11.9 2.9-6.9 7.9-11.9 15.8-12.5 8.1-.6 14.7 3 18.8 9.9 2.7 4.6 4.4 9.9 5.7 15.2 1.4 5.6 1.9 11.4 2.8 17.2 4.4 28 34.1 45.1 60 39.3 10.7-2.4 17.8-9 21.6-19.1 3.9-10.2 4.4-20.7 3-31.4-.6-4.9-1.6-9.8-2.4-15.1.9.1 1.6.2 2.3.4 13.4 3.6 27 4.4 40.7 1.8 2.3-.4 4.5-1.3 6.8-2 26-8.4 51.9-9.1 77.8.6 12.7 4.8 25.7 8.7 38.5 13.3 4.4 1.6 8.6 3.7 12.7 6 3 1.6 4.4 4.6 4 8.1-1.2 8.4-5.2 15.5-9.4 23-.6-.8-1-1.1-1.2-1.6-2.3-5.6-6.7-9-11.7-12-16-9.4-33-10.5-50.5-5.8-14.5 3.9-28.8 8.6-43.2 12.9-1.4.4-3.1 1-2.4 2.9.7 1.8 2.3 1.4 3.7.9 11.9-3.6 23.8-7.1 35.6-10.9 11.7-3.7 23.4-5.5 35.6-3.6 8.5 1.3 16.1 4.9 23.1 9.8 2.1 1.4 3.5 3.8 5.1 5.9.8 1.1 1.2 2.4 1.9 3.6 1.8 2.9 4.3 3.1 6.7.5.2-.2.4-.4.5-.6 4.6-7.4 8.5-15.2 10-23.9.9-4.9-.8-9-4.8-12-2.4-1.8-5-3.5-7.7-4.5-20.4-7-40.7-14.2-61.3-20.5-12.3-3.8-25.1-3.6-37.8-2.1-.8.1-1.6.2-2.5-.1.9-.3 1.7-.7 2.6-1 14.7-4.8 29.8-7.8 45.1-9.7 5.9-.7 11.6.1 16.9 2.9 4.1 2.2 8.3 4.5 12.2 7.2 16 10.9 34 16.5 53 19.1 1.2.2 2.5.3 4.5.6-1.2 4-1.7 8-3.5 11.2-2.8 4.9-6.3 9.5-10 13.8-5.4 6.3-10.7 12.7-10.9 21.3-.1 5.2.9 10.4 1.8 15.6.1.9 1.7 1.6 2.7 2.4.4-1.1.8-2.3 1.2-3.4 0-.1 0-.2-.1-.3-4.1-13.1-.7-24.1 9.1-33.4 13.8-13.3 16-29.6 11.9-47.5-.3-1.4-.8-3.1-2.7-2.7-2.2.5-1.5 2.3-1.3 3.8.7 4.8 1.3 9.6 2.1 14.9-1.8-.1-2.8-.1-3.8-.2-18.3-2.6-35.6-8-51.3-18.4-18.9-12.5-22.8-13.3-45-9-11 2.1-21.8 5.2-32.8 7.8-.6.1-1.2.3-2.3.6 18.6-21.3 22.2-44.1 8.1-69.6 1.8.9 2.9 1.5 4 2.1 26 14.2 52.5 3.9 65.2-9.5 6.3-6.7 10.6-14.4 13.2-23.2.3-1.2 1.2-2.6 2.2-3.1 9.7-4.8 14.6-12.9 16.4-23.2.2-1.1.4-2.1.7-3.7 9.8 8.5 20 15.2 32 18-1.5 5.4-3.4 10.4-4.4 15.6-1.9 10 .6 19.2 6.7 27.2 11.1 14.7 26.3 21.9 44.4 23.1 21.7 1.4 38.3-7.4 49.5-26.2.5-.8 1-1.6 1.8-2.8 4.6 6.4 9.6 12.3 11.6 19.6 3.2 11.8 5.7 23.8 8.1 35.8 2.6 13.1 4.8 26.2 9.3 38.9.1.2 0 .5 0 .6-9.1 5.8-18.5 10.5-29.2 12.3-5 .8-10.1 1.2-15.1 1.8-.6.1-1.4-.2-1.9.1-.9.6-1.5 1.4-2.3 2.1.8.6 1.6 1.7 2.4 1.7 4.1-.1 8.1-.4 12.2-.8 12.3-1.5 23.5-5.8 33.9-12.5.4-.3.9-.5 1.5-.8 4.3 9.4 5.4 18.7.6 28.1-4.8 9.4-11.9 16.9-19.8 23.6-5.7 4.8-9 10.9-9.1 18.1-.1 5.8.7 11.8 1.9 17.5 2.6 12.3 5.6 24.5 5.3 37.3zm-90.9-82.4c.5-1.3.8-2.2 1.2-3 4.8-9.4 12.1-15.1 22.8-16.1 9.5-.9 18.2 1.6 26.5 6.1-24.1-.7-29.2.6-50.5 13zm72.8 26.5c-3.3 4.5-8 6-13.3 6.2-10.6.6-20.8-.6-30-6.5-5-3.2-10.4-4.1-16.1-2.6-.7.2-1.4.3-2.1.4-.2 0-.3-.1-1.1-.3.7-1.2 1.2-2.2 1.9-3.1 7.3-9.6 17.5-14 29.2-15.5 6.9-.9 13.7-.6 20.4 1.6 4.1 1.3 7.8 3.4 10.7 6.7 4.2 4.8 4.2 7.9.4 13.1zm26.9-140.7c11.2 1.6 20.3 5.9 25.9 16 5.1 9.2 7.2 19 5.7 29.4-1.4 9.8-6.8 14.7-16.7 15.4-1.9.1-2.4-.8-2.7-2.3-2-9.1-4.1-18.2-6-27.4-2-9.5-3.8-19-5.7-28.6-.2-.7-.4-1.6-.5-2.5zm31.1 104c-.7 7.2-2.7 13.9-6.3 20.1-5.9 10.2-13.7 18.7-22.9 25.9-3.7 2.9-7.8 4.9-12.5 5.4-3.1-8.9-2.5-21.6 6.3-28.7 9-7.4 16.9-15.9 21.8-26.8.3-.6 1.3-1.3 1.9-1.4 3.9-.1 7.8-.1 12.1-.1-.2 2.1-.3 3.9-.4 5.6zm50-54.6c-2.7 9.7-9.2 16.2-17.6 21.1-.2.1-.5.1-.9.1.6-3.6 1.5-7.2 1.8-10.7.4-6 .4-12.1.5-18.2 0-.6.1-1.4-.3-1.8-.5-.7-1.4-1.5-2.1-1.6-.5 0-1.3 1-1.6 1.8-.3.8-.1 1.8 0 2.7.4 10.8-.2 21.4-4.2 31.6-6.2 15.6-20.1 23.1-37.3 19.6 2.7-10.4-1.8-19.4-5-28.9 2.3-.5 4.3-.8 6.2-1.3 7.5-1.8 12.5-6.4 14.2-13.8 3.8-16.8.1-31.8-11.8-44.5-4.1-4.4-9.4-6.7-15.1-8.1-1.3-.3-2.5-.7-4.5-1.2 8.4-5.6 14.5-12.2 18.1-21.2 1.1.4 2.1.7 3 1 13.5 5 26.4 11.4 37.7 20.2 8.1 6.3 14.5 14.7 17.9 24.8 2.9 9.4 3.6 18.8 1 28.4z"/>
    <path d="M320.3 1053.9c-7.4 0-14.8-.3-22.3-1-68.8-6.3-133-28.7-190.9-66.4-14.8-9.6-28.5-21.6-40.9-35.7-17.1-19.4-25.4-42.8-25.4-71.3 0-2.7 1.3-4.7 3.9-5.8 3-1.3 5.7-2.2 8.4-2.8 4.3-1 8.6-2 12.8-3 5.8-1.3 11.8-2.7 17.7-4.2 9.8-2.5 19.5-6.5 28.8-11.9 21.3-12.4 32.5-30.4 34.1-55.1 1-15.2-.2-69.4-1.3-84-.5-6.3-1-12.5-1.4-18.8-.7-9.8-1.5-19.9-2.3-29.8-.1-1-.7-2.3-1.3-3-20.8-20.7-31.5-39.4-34.7-60.9-1.4-9.5-1-19.6 1.2-31.7.3-1.9.1-3.5-.8-5.3-6-11.8-12.3-25.9-13.9-42-.3-3.6-.3-7.3-.3-10.8v-5.8c0-.8 0-2.1-.5-2.7-11.9-15.8-21-34.8-28.6-59.9-.8-2.6-1.4-5.2-2-7.7-.6-2.3-1.2-4.7-1.8-7-.4-1.5-1.3-3.1-2.3-4.2-2.8-3.1-5.7-6.3-8.5-9.3-5-5.4-10.2-11-14.9-16.8-11.7-14.3-17.4-31.5-16.9-51.3.3-13.7 3.3-26.9 8.8-39.2.8-1.7.7-2.7-.4-4.1-4.4-5.8-6.5-13-6.6-22.7-.2-20.8 6.2-40.4 19-58.3 1.5-2.1 1.8-3.8 1.1-6.4-4.3-15.8-4.6-31.8-.7-47.3 4-16.2 13.1-29 27.1-38 11.5-7.5 25.2-13.3 42.9-18.3 4.4-1.3 7.4-3.3 10.1-6.9 12.8-17.2 29.6-27.4 50-30.5.8-.1 1.9-.8 2.6-1.7 1.5-1.8 3.1-3.6 4.5-5.4 2.2-2.7 4.5-5.5 6.9-8.1 19-19.9 42.5-31 70.1-33 5.5-.4 11-.4 16.4-.3h8.1c.6 0 1.2-.1 1.5-.3 16-9.7 34.3-11.9 56-6.7 8.7 2.1 17 3.4 25.5 4.2 16.1 1.4 30.2 5 43.1 11.1 1.7.8 3.7 1.1 5.9 1.4.8.1 1.6.2 2.3.4 21.5 3.9 39.9 9.5 56 17.1 16.4 7.7 30.4 17.9 41.6 30.3 7.1 7.8 12.4 15.8 16.2 24.5.6 1.3.9 1.4 2.3 1.1 14.1-3.5 28-1.7 41.6 5.4 19.1 9.9 33.9 25.2 45.2 46.9 11 21.1 15.8 45 14.7 73v1.8c0 1.7-.1 3.4-.4 5.1-.6 3.4.3 6 3.1 8.9 9.1 9.2 14.4 20 15.9 32.2 2.5 20.9-5.4 35.9-24.1 45.9-1.4.8-2.8 2.2-3.6 3.6-5.2 9.9-12.3 15.8-22 18.2-.4.1-1.1.9-1.1 1.3-.8 21.2-11.1 38.2-33.1 55.3-2.5 1.9-5.5 3.2-8.6 4.5-1.2.5-2.4 1-3.6 1.6l.6 2.7c.6 2.7 1.3 5.4 1.9 8.2 3.5 16 3.3 32.9-.8 53.1-.6 3.1-.1 4.7 2.3 6.9 21.9 19.4 37.9 45.2 45 72.8 8.2 31.7 4.7 65.5-10 97.7-15.9 34.8-41.7 59.9-76.7 74.6-9.6 4-20.2 6.6-31.4 7.5h-.4c.3.4.6.7.9 1 5.1 5.4 10.7 15.8 16.6 26.8 9.2 17.2 19.6 36.6 30.1 40.1 12.6 4.2 25.9 6.7 38.7 9.1l8.1 1.5c2.7.5 4 1.8 5 4.5 1.1 3.2 2.4 6.4 3.7 9.5l1.5 3.6c2.3 5.5 2.7 8.8 1.4 11.4-1.2 2.5-4 4.3-9.3 5.7-13.3 3.7-23.5 11.7-31.3 24.2-7.7 12.4-14.8 25-22.8 38.9-3.1 5.5-6.2 11.1-9.1 16.6-4.1 7.6-8.4 15.6-12.9 23.2-28.7 48.5-70.8 80.4-125.1 95-18.2 4.6-36.9 7-56.2 7zm-58-1026.4c-3.7 0-7.4.1-11 .3-27 2-50.1 12.9-68.7 32.4-2.4 2.5-4.6 5.3-6.8 7.9-1.5 1.8-3 3.7-4.6 5.5-.9 1-2.3 2.1-3.9 2.4-19.8 3-36.1 13-48.6 29.7-3 4-6.4 6.3-11.2 7.7-17.5 5-31 10.7-42.3 18.1-13.5 8.7-22.3 21.1-26.2 36.8-3.8 15.2-3.5 30.8.7 46.3.9 3.2.5 5.5-1.4 8.1-12.5 17.6-18.8 36.8-18.6 57.1.1 9.2 2.1 16.1 6.2 21.5 1.5 2 1.7 3.7.6 6.2-5.4 12-8.3 24.9-8.6 38.4-.4 19.2 5.1 36 16.5 49.9 4.7 5.7 9.9 11.3 14.8 16.7 2.8 3.1 5.7 6.2 8.6 9.4 1.2 1.4 2.2 3.2 2.8 5 .7 2.4 1.3 4.8 1.9 7.1.6 2.5 1.3 5.1 2 7.6 7.5 24.9 16.5 43.7 28.3 59.3.8 1.1.9 2.8.9 3.9v5.9c0 3.5-.1 7.1.3 10.6 1.5 15.7 7.8 29.6 13.7 41.2 1.1 2.2 1.4 4.2 1 6.6-2.1 11.9-2.5 21.8-1.1 31.1 3.1 21 13.6 39.4 34.1 59.8 1 1 1.8 2.8 1.9 4.3.8 9.9 1.6 20 2.3 29.8.5 6.3 1 12.5 1.4 18.7 1.1 14.6 2.3 68.9 1.3 84.2-1.7 25.1-13.5 44.2-35.1 56.8-9.4 5.5-19.3 9.5-29.3 12.1-5.9 1.5-11.9 2.9-17.7 4.2-4.2.9-8.5 1.9-12.7 2.9-2.5.6-5.2 1.5-8 2.7-1.8.8-2.6 2-2.6 3.9 0 28 8.1 50.9 24.9 69.9 12.2 13.9 25.8 25.8 40.5 35.3 57.6 37.6 121.5 59.8 189.9 66.1 27.1 2.5 53.1.5 77.3-6.1 53.8-14.4 95.4-46.1 123.8-94 4.5-7.6 8.7-15.5 12.9-23.1 3-5.5 6-11.1 9.1-16.6 7.9-14 15.1-26.6 22.8-39 8.1-13 18.7-21.2 32.5-25.1 4.6-1.3 7.1-2.7 8-4.7 1-2 .5-4.9-1.5-9.7-.5-1.2-1-2.4-1.5-3.5-1.3-3.1-2.7-6.3-3.8-9.6-.7-2.1-1.5-2.8-3.4-3.2-2.7-.5-5.4-1-8-1.5-12.9-2.4-26.2-4.9-39-9.2-11.3-3.8-22-23.6-31.3-41.1-5.8-10.9-11.3-21.1-16.2-26.3-.4-.5-.8-.9-1.3-1.5-.3-.3-.5-.6-.9-1-.3-.3-.3-.7-.2-1 .1-.4.4-.6.8-.7.4-.1.7-.1 1-.2.6-.1 1-.2 1.4-.2 11-.9 21.3-3.4 30.8-7.4 34.5-14.5 60-39.2 75.6-73.5 33-72.3 3.8-134.2-34.5-168-2.9-2.6-3.7-5-3-8.8 4-19.9 4.3-36.5.8-52.2-.6-2.8-1.3-5.6-1.9-8.2-.3-1.2-.6-2.4-.8-3.6-.1-.5.1-1 .6-1.2 1.5-.7 3-1.4 4.5-2 3-1.3 5.8-2.4 8.1-4.2 21.5-16.6 31.5-33.2 32.3-53.7.1-1.3 1.4-2.9 2.7-3.2 9-2.2 15.7-7.8 20.6-17.1.9-1.8 2.6-3.5 4.4-4.5 17.9-9.6 25.4-23.9 23-43.8-1.4-11.8-6.6-22.2-15.3-31-3.4-3.4-4.5-6.6-3.7-10.7.3-1.5.3-3.1.3-4.7v-1.9c1.1-27.7-3.6-51.3-14.4-72-11.1-21.3-25.6-36.4-44.3-46.1-13.1-6.8-26.6-8.5-40.1-5.2-2.4.6-3.8-.1-4.7-2.2-3.7-8.4-8.9-16.3-15.8-23.9-11-12.2-24.8-22.2-41-29.8-16-7.5-34.2-13-55.5-16.9-.7-.1-1.5-.2-2.3-.4-2.2-.3-4.4-.6-6.4-1.6-12.6-5.9-26.5-9.5-42.4-10.9-8.5-.7-17-2.1-25.8-4.2-21.1-5-38.9-2.9-54.4 6.5-.8.5-1.8.6-2.6.6h-8.1c-1.9-.3-3.6-.3-5.4-.3zm54.8 1022.2c-23.5 0-48.1-3.2-74.3-9.8-46-11.5-85.1-27.1-119.5-47.9-20.9-12.6-36.5-24.9-49.2-38.7-9.3-10.1-15.8-19.3-20.3-28.9-3.6-7.6-5.7-15.5-6.4-23.5 0-.5.3-.9.8-1.1.5-.1 1 .1 1.2.5.1.1.1.2.2.3.2.3.3.6.4.9 5.5 14.6 15 27.4 29 39.1 11.7 9.7 24.5 17.8 36.6 25.2 39.3 24.1 76.4 40.9 113.2 51.6 34.2 9.9 68.4 13.3 101.8 10.2 53.5-4.9 97.7-28.3 131.5-69.3 13.1-15.9 25.5-34.4 39-58l3-5.3c7-12.3 14.2-24.9 21.8-37.1 4.5-7.2 10-14.5 17.3-22.9 7.1-8.2 17.2-13.2 30-14.9 1.2-.2 3 .8 3.5 1.9 2.3 5.2 4.2 9.8 5.9 14.1 1.4 3.8.6 5.6-3.2 7.3-2.1.9-4.3 1.7-6.5 2.4-9.7 2.9-17.9 8.5-24.2 16.6-3.7 4.8-8.5 11.2-12.4 18-4.4 7.6-8.7 15.5-12.8 23-4.2 7.6-8.4 15.4-12.8 23.1-1.6 2.8-3.2 5.5-4.7 8.3-6.2 10.9-12.5 22.2-20.1 32.4-33.5 45.6-79.3 72.5-136.3 80.1-10.8 1.7-21.5 2.4-32.5 2.4zM50.5 908.5c1.1 5.1 2.8 10.2 5.1 15.1C60 933 66.4 942 75.5 951.9c12.6 13.7 28.1 25.9 48.8 38.4 34.2 20.7 73.1 36.3 118.9 47.7 38.2 9.5 72.8 12 105.9 7.6 56.3-7.5 101.7-34.2 134.9-79.2 7.4-10.1 13.8-21.3 19.9-32.2 1.6-2.8 3.1-5.6 4.7-8.3 4.4-7.6 8.7-15.5 12.8-23 4.2-7.6 8.4-15.4 12.8-23.1 4-6.9 8.8-13.4 12.6-18.2 6.6-8.5 15.1-14.3 25.2-17.3 2.1-.6 4.2-1.4 6.3-2.3 2.8-1.2 3.1-1.9 2.1-4.7-1.6-4.3-3.5-8.9-5.8-14-.2-.3-1-.7-1.3-.7-12.4 1.6-21.8 6.3-28.7 14.2-7.2 8.3-12.6 15.5-17.1 22.6-7.6 12.1-14.8 24.7-21.7 37l-3 5.3c-13.5 23.8-26 42.3-39.2 58.3-34.2 41.5-78.9 65-132.9 70-33.6 3.1-68.2-.3-102.6-10.3-37.1-10.7-74.3-27.7-113.7-51.8-12.2-7.5-25.1-15.6-36.8-25.4-12.3-10.4-21.2-21.5-27.1-34zM306 1027c-30.3 0-61-5.5-93.3-16.5-40.9-14-80.8-34.7-122.1-63.2-2.1-1.4-4.1-3-6-4.5l-2.7-2.1c-18.6-14.3-30.4-33.5-36.2-58.9-.7-3 .4-4.7 3.2-5.4l4.4-1c6.1-1.4 12.4-2.9 18.7-4.3 10.7-2.4 23.2-5.6 34.8-11.4 3.9-1.9 7.6-4 11-6.2 19.4-12.3 30.3-30.2 32.5-53.4 1.3-14 .6-66.6-.5-81.2l-.8-11c-1.6-21.5-3.3-43.7-4.8-65.5-1.8-26.7-6-53.6-12.5-80.1-3.5-14.2-5-27-4.6-39.1 0-.7.1-1.4.1-2.2l.1-1c0-.5.4-.9 1-1h.5c.4 0 .8.2 1 .6.3.6.5 1.3.8 1.9.6 1.3 1.2 2.7 1.8 4 2.9 6.1 8 9.5 16.1 10.8.2 0 .9-.4 1.3-.7-.5-.5-.9-1-1.4-1.4-.1-.1-.5-.2-.9-.2-.3 0-.6-.1-.8-.1-6.8-1.6-11.3-5.5-13.5-11.7-1.4-4-2.7-8.1-4-12l-1.1-3.5c-4.5-13.9-11.2-26.6-20-41.3-6.3-10.6-12.5-21.1-17.7-31.9-8.8-18.2-12.3-35.5-10.6-53 .4-4.5 1.2-8.6 2.4-12.5 4.5-14.5 15.5-20.8 30.3-17.4 11.1 2.6 20.1 9 26.8 14.6-5.1-5.7-11.6-10.6-20.3-15.4-11.9-6.5-18.2-15.8-18.7-27.7-.2-4 .6-8.5 2.2-12.3 3.3-8 9.1-12.6 16.7-13.1 8.4-.6 15.4 3.1 19.7 10.4 2.9 4.9 4.6 10.5 5.8 15.4 1 3.9 1.5 8 2 11.9.2 1.8.5 3.6.8 5.4 1.9 12.3 9 23.1 19.9 30.6 11.5 7.8 26 10.8 38.9 7.9 10-2.2 17.1-8.4 20.9-18.5 3.5-9.1 4.4-19.2 2.9-30.9-.4-3.4-1-6.7-1.6-10.2-.3-1.6-.6-3.2-.8-4.9-.1-.3.1-.7.3-.9.2-.2.6-.3.9-.3.3 0 .5.1.8.1.6.1 1.1.2 1.6.3 13.8 3.6 27.3 4.3 40.2 1.8 1.8-.3 3.6-.9 5.3-1.5.4-.1.9-.3 1.3-.4 27.7-9 53.4-8.8 78.5.7 7.2 2.7 14.6 5.2 21.8 7.6 5.5 1.8 11.2 3.7 16.7 5.7 4.8 1.7 9.4 4.1 12.9 6.1 3.4 1.9 5 5.2 4.5 9.1-1.1 8.2-5 15.2-9 22.5l-.5.9c-.2.3-.5.5-.8.5-.3 0-.7-.1-.9-.4-.2-.3-.4-.5-.5-.7-.3-.4-.6-.7-.8-1.1-2.4-5.7-7-9-11.3-11.5-14.9-8.8-31.2-10.6-49.7-5.7-10.3 2.8-20.7 6-30.7 9.1-4.2 1.3-8.3 2.6-12.5 3.8-.5.2-1.5.5-1.7.9-.1.2-.1.4.1.7.2.7.5.9 2.5.3 3.1-.9 6.2-1.9 9.3-2.8 8.6-2.6 17.5-5.3 26.3-8 13.5-4.2 25-5.4 36.1-3.6 8.1 1.3 15.8 4.5 23.5 10 1.8 1.2 3.1 3 4.3 4.8.3.5.7.9 1 1.3.5.7.9 1.5 1.2 2.2.2.5.5 1 .8 1.5.5.8 1.3 1.7 2.3 1.8 1.1.1 2.1-.7 2.7-1.5.2-.2.3-.3.4-.5 5.5-8.9 8.6-16.2 9.9-23.6.8-4.5-.7-8.3-4.4-11-2.2-1.6-4.8-3.4-7.5-4.3-3.3-1.1-6.7-2.3-10-3.5-16.8-5.8-34.1-11.7-51.3-17.1-10.5-3.2-22-3.9-37.3-2-.9.1-1.9.2-2.9-.2-.4-.1-.7-.5-.7-1 0-.4.3-.8.7-1 .3-.1.5-.2.8-.3.6-.2 1.2-.5 1.9-.7 13.8-4.5 28.6-7.7 45.3-9.8 6.3-.8 12.2.2 17.5 3.1 3.7 2 8.1 4.4 12.3 7.3 14.5 9.9 31.6 16 52.5 18.9l4.5.6c.3 0 .6.2.7.5.2.3.2.6.1.9-.4 1.2-.7 2.5-1 3.7-.7 2.8-1.3 5.4-2.7 7.8-2.5 4.3-5.7 8.7-10.1 13.9-5.1 6-10.4 12.3-10.6 20.7-.1 4.2.6 8.6 1.3 12.9.1.8.3 1.7.4 2.5.1.2.7.6 1.1.9l.6-1.8c-4.1-12.9-.9-24.5 9.4-34.4 12.3-11.8 16.1-27 11.6-46.5-.4-2-.8-2.1-1.5-2-.8.2-.9.3-.6 2 0 .2.1.4.1.6l2.1 14.9c0 .3-.1.6-.3.8-.2.2-.5.3-.8.3-.6 0-1.1-.1-1.6-.1-.9 0-1.6-.1-2.3-.2-20.3-2.9-37.2-8.9-51.7-18.5-18.6-12.3-22.4-13.1-44.2-8.9-7.6 1.4-15.2 3.4-22.6 5.3-3.4.9-6.8 1.7-10.1 2.5-.4.1-.7.2-1.2.3l-1 .3c-.4.1-.9-.1-1.1-.4-.2-.4-.2-.9.1-1.2 18.9-21.6 21.5-44 8-68.4-.2-.4-.2-.9.2-1.2.3-.3.8-.4 1.2-.2l1.7.9c.9.5 1.6.8 2.3 1.2 26.7 14.6 52.8 2.4 63.9-9.3 6.1-6.5 10.4-14.1 12.9-22.8.4-1.4 1.4-3.1 2.7-3.7 8.8-4.3 14-11.7 15.9-22.5.1-.7.3-1.5.4-2.4l.2-1.3c.1-.4.3-.7.7-.8.3-.1.7 0 1 .2 11.4 9.9 21.2 15.4 31.6 17.7.3.1.5.2.7.5.1.2.2.5.1.8-.5 1.7-1 3.4-1.5 5-1.1 3.6-2.2 7-2.8 10.5-1.8 9.5.4 18.3 6.5 26.4 10.4 13.8 25.1 21.4 43.6 22.6 21.2 1.4 37.6-7.3 48.6-25.7.3-.6.7-1.1 1.1-1.8l.7-1.1c.2-.3.5-.5.8-.5.3 0 .7.2.9.4.8 1.1 1.5 2.1 2.3 3.1 4 5.4 7.8 10.5 9.5 16.8 3.4 12.8 6.2 25.9 8.2 35.8l1.2 6c2.1 10.8 4.3 22.1 8 32.7.1.4.1.7.1.9 0 .4-.2.7-.5.9-11 7-20.1 10.9-29.6 12.4-3.5.6-7.2 1-10.7 1.3-1.5.2-3 .3-4.5.5h-1.5c-.4.3-.9.7-1.3 1.2.3.3.7.7.9.7 4.4-.1 8.3-.4 12.1-.8 11.6-1.4 22.9-5.5 33.5-12.3.3-.2.6-.4 1-.6l.5-.3c.3-.1.6-.2.8-.1.3.1.5.3.6.6 5 10.9 5.1 20.1.6 29-4.3 8.4-10.7 16-20.1 23.9-5.7 4.7-8.6 10.6-8.8 17.3-.1 5.2.5 11 1.9 17.2l.6 2.5c2.6 11.3 5.2 23 4.9 35-.2 9-1.3 18.4-3.7 30.5-.1.4-.3.6-.6.8-.3.1-.7.1-1-.1-10-7.5-20.9-13.3-33.4-17.8-12.6-4.4-24.6-7.4-36.8-9-.5-.1-.8-.4-.9-.9-.3-1.8-.6-3.7-.8-5.5-.6-4-1.2-8.2-2.2-12.2-1.7-7-3.6-14.1-5.5-20.9-1.4-5.3-2.9-10.7-4.3-16.1-1.4-5.3-2.5-10.8-3.7-16-.4-1.8-.8-3.6-1.2-5.5-.6-2.7.9-4.3 2.1-5.2 19-15.5 40.4-18.7 65.5-9.7 2.3.8 4.7 2.2 7.5 4.4 3.6 2.8 4.9 6.6 4.1 11.6-.1.5-.5.9-1 .9-.3 0-.8.1-1.3-.3-9-8.7-20.4-11.4-37-8.8-12.7 2-22.5 7.9-29.3 17.5-.6.8-1.2 1.7-1.4 2.5-.4 1.9-.2 3.4.6 4.2.8.7 2.2.9 3.9.4 6.2-1.7 11.9-.8 18.4 3 10.3 5.9 22 7.5 35.9 4.7 4.4-.9 7.8-3.8 10.8-9.1 1.6-2.9 2.5-5.5 1.7-8.8-.3-1.3 0-2.6.3-3.8.2-.7.3-1.3.4-1.8.8-7.2-1.9-12.4-8.1-16.1-3.3-1.9-6.6-3.9-9.9-5.8l-6.6-3.9c-7.6-4.5-16.4-7.2-26.9-8.2-14.3-1.4-24.4-10-28.5-24.2-.1-.3-.1-.5-.2-.8-.2-.7-.4-1.7-.8-1.9-.1-.1-.4-.1-.7 0-.4.1-.7.2-.8.4-.3.5.1 1.5.3 2.3.1.2.1.4.2.5 3.1 11 9.3 18.4 18.7 22.6.3.1.6.3.9.5.1.1.3.2.5.3.3.2.5.5.5.8 0 .3-.1.7-.4.9l-.2.2c-.2.2-.4.4-.8.6-15.8 4.6-23.5 22.9-19.9 36.2l1.2 4.3c1.7 6.2 3.4 12.7 5.4 19 4.3 13.7 7.6 28.4 9.7 43.7.1.5.1 1 .1 1.5v.9c0 .3-.1.6-.3.8-.2.2-.5.3-.8.3l-1.4-.1c-.9 0-1.7-.1-2.6-.1-33.7-2.6-63.1 3.5-89.9 18.7-23.2 13.2-40.3 32.4-50.5 57.1-12.4 29.7-16.1 61-11.2 93.3.1.5.1 1 .1 1.5v.8c0 .3-.1.6-.3.8-.2.2-.5.3-.9.3-.2 0-.3 0-.5-.1-.3 0-.6-.1-1-.2-16.6-6.5-34.6-7.7-50.4-8.7-11.8-.8-21.3-1.8-30.1-3.3-14.1-2.3-26.7-9.7-38.4-22.4-11.8-12.8-21.5-28.8-29.6-48.7-2.6-6.5-4.8-13.2-7-19.7-.9-2.6-1.7-5.2-2.6-7.8l-.1-.4c-.5-1.5-.7-1.8-1.4-1.7-.9.1-1 .5-1 2.3v.3c.7 36.8 13 69.8 36.7 98 37.8 45 87 73.2 146.2 84 6.1 1.1 12.4 1.7 18.5 2.3 3.6.3 7.4.7 11.1 1.2 2.3.3 4.5 1.1 6.2 2.2 26.7 18 55.3 28.8 85.2 32.2 2.9.3 5.8.4 8.7.5l6 .3c.8.1 2.8.3 3.8 1.5 6.6 7.6 12 18.3 17.7 29.7 9.7 19.2 19.6 39 35.5 42.9 8 2 29.2 6.7 37 8.4.4.1.9.2 1.5.4l1.2.3c.4.1.8.5.8.9s-.2.9-.6 1c-.3.1-.6.3-.8.4-.4.2-.8.3-1.1.4-10.3 2.3-19 7.7-25.8 15.9-7.2 8.7-13.1 17-18.2 25.2-7.4 12.1-14.5 24.6-21.4 36.7-2.1 3.6-4.1 7.2-6.2 10.8-12.9 22.6-27.2 42.2-43.6 59.9-29.2 31.5-66.7 50.5-111.6 56.5-10.7 1.8-21.7 2.6-32.8 2.6zM129 523.3c-.4 11.8 1.1 24.3 4.5 38.3 6.5 26.6 10.8 53.7 12.6 80.4 1.5 21.8 3.2 44 4.8 65.5l.8 11c1.1 14.6 1.8 67.5.5 81.6-2.2 23.8-13.4 42.3-33.4 54.9-3.5 2.2-7.3 4.4-11.2 6.3-11.8 5.9-24.5 9.2-35.3 11.6-6.2 1.4-12.5 2.9-18.6 4.3l-4.4 1c-1.5.4-2.1.9-1.6 2.9 5.7 25 17.3 43.9 35.5 57.9l2.7 2.1c1.9 1.5 3.9 3.1 5.9 4.5 41.1 28.4 80.9 48.9 121.6 62.9 43.7 15 84.7 19.7 125.3 14.3 44.3-5.9 81.5-24.7 110.3-55.8 16.3-17.6 30.4-37 43.3-59.5 2.1-3.6 4.1-7.2 6.2-10.8 6.9-12.1 14-24.7 21.4-36.7 5.1-8.3 11.1-16.6 18.3-25.4 6.7-8.1 15.1-13.6 25.1-16.2-8.5-1.8-28.4-6.3-36.1-8.2-16.8-4.1-27-24.4-36.8-44-5.7-11.3-11-21.9-17.4-29.3-.3-.4-1.3-.7-2.4-.8-1.9-.1-3.9-.2-5.9-.3-2.9-.1-5.9-.2-8.8-.6-30.2-3.5-59.1-14.4-86.1-32.6-1.4-.9-3.3-1.6-5.3-1.8-3.7-.5-7.4-.8-11-1.2-6.2-.6-12.5-1.2-18.7-2.3-59.8-10.9-109.4-39.4-147.5-84.7-19-22.6-30.8-48.3-35.2-76.4-.1.3-.3.5-.5.7-.3.1-.6.3-.9.5-.8.5-1.8 1.2-2.8 1-8.7-1.4-14.4-5.3-17.6-12-.4-1.1-.8-2.1-1.3-3.1zm24.5-14.9c2.1 0 2.7 1.9 3.1 3.1l.1.4c.9 2.6 1.7 5.2 2.6 7.8 2.1 6.5 4.3 13.2 6.9 19.6 7.9 19.7 17.5 35.4 29.2 48 11.4 12.4 23.6 19.5 37.2 21.8 8.7 1.4 18.1 2.5 29.9 3.3 15.9 1.1 33.9 2.3 50.7 8.8 0-.3 0-.5-.1-.8-5-32.6-1.2-64.4 11.3-94.4 10.5-25.1 27.8-44.6 51.4-58.1 27.1-15.4 56.9-21.6 91-19 .8.1 1.6.1 2.5.1h.2c0-.4 0-.8-.1-1.1-2.1-15.2-5.4-29.8-9.7-43.3-2-6.3-3.7-12.8-5.4-19l-1.2-4.3c-3.8-13.9 4-32.8 20-38.3-9.8-4.5-16.1-12.2-19.3-23.6 0-.2-.1-.3-.2-.5-.4-1.2-.8-2.7-.1-4 .4-.7 1.1-1.2 2.1-1.4.9-.2 1.6-.1 2.2.3 1.1.7 1.4 2.1 1.7 3.2.1.3.1.5.2.7 3.8 13.3 13.3 21.4 26.7 22.7 10.8 1.1 19.8 3.8 27.8 8.5l6.6 3.9c3.3 1.9 6.6 3.9 9.9 5.8 6.9 4.1 10 10.1 9.2 18.1-.1.7-.3 1.5-.5 2.2-.3 1.1-.5 2-.3 2.8 1.1 4.2-.2 7.4-1.8 10.3-3.3 5.8-7.3 9.1-12.2 10.1-14.4 2.9-26.6 1.2-37.4-5-6-3.4-11.2-4.3-16.8-2.8-2.5.7-4.6.3-5.9-.9-1.4-1.3-1.8-3.5-1.2-6.1.3-1.2 1-2.3 1.7-3.2 7.1-10.1 17.4-16.3 30.7-18.4 11.3-1.8 25.6-2.5 37.7 8.3.2-3.5-.9-6.1-3.5-8.1-2.6-2.1-4.8-3.4-6.9-4.1-24.3-8.7-45.1-5.6-63.5 9.3-1.3 1-1.6 1.9-1.4 3.2.4 1.8.8 3.6 1.2 5.5 1.1 5.2 2.3 10.7 3.7 15.9 1.4 5.4 2.8 10.8 4.3 16.1 1.9 6.9 3.8 14 5.5 21 1 4.1 1.6 8.3 2.2 12.4.2 1.6.5 3.2.7 4.7 12 1.7 24 4.6 36.5 9 12.2 4.3 22.9 9.9 32.7 17.1 2.1-11.2 3.2-20 3.3-28.5.2-11.8-2.4-23.3-4.9-34.5l-.6-2.5c-1.4-6.4-2.1-12.4-2-17.7.2-7.4 3.4-13.7 9.5-18.9 9.2-7.7 15.4-15.1 19.6-23.2 4.1-8.1 4.1-16.4-.1-26.2-.1.1-.3.2-.4.2-10.8 7-22.4 11.2-34.3 12.6-3.8.5-7.8.7-12.3.9-1 0-1.7-.7-2.4-1.3-.2-.2-.4-.4-.7-.6-.2-.2-.4-.5-.4-.8 0-.3.1-.6.3-.8l.6-.6c.5-.6 1.1-1.2 1.8-1.6.6-.4 1.2-.3 1.8-.3h.6c1.5-.2 3-.3 4.5-.5 3.5-.4 7.1-.7 10.5-1.3 9-1.5 17.7-5.1 28.3-11.8-3.7-10.7-5.9-21.9-8-32.7l-1.2-6c-2-9.9-4.7-22.9-8.1-35.7-1.6-5.9-5.2-10.9-9.1-16.1-.5-.6-1-1.3-1.4-1.9-.4.5-.7 1-.9 1.5-11.4 19.2-28.4 28.1-50.5 26.7-19.1-1.2-34.3-9.1-45.1-23.5-6.5-8.5-8.8-18-6.9-28 .7-3.6 1.8-7.1 2.9-10.8l1.2-3.9c-9.9-2.5-19.3-7.7-30-16.8-.1.7-.2 1.3-.3 1.9-2 11.5-7.6 19.4-17 24-.6.3-1.3 1.4-1.6 2.4-2.6 9-7.1 16.9-13.4 23.6-9.2 9.7-23.9 16.6-39.8 16.6-8.7 0-17.8-2.1-26.6-6.9-.3-.2-.7-.4-1-.5 11.7 23.2 9.2 44.6-7.6 65.3 3.1-.8 6.2-1.5 9.3-2.3 7.4-1.9 15.1-3.8 22.7-5.3 22.4-4.3 26.7-3.4 45.7 9.2 14.3 9.4 30.9 15.4 50.8 18.2.6.1 1.3.1 2.1.1h.4l-1.9-13.6c0-.2-.1-.4-.1-.6-.2-1.3-.7-3.8 2.2-4.4 3-.6 3.6 2.3 3.9 3.5 4.6 20.3.6 36.1-12.2 48.4-9.8 9.4-12.7 20-8.8 32.3.1.2.2.5.1.9-.3 1-.7 1.9-1 2.9l-.2.5c-.1.3-.4.6-.7.7-.3.1-.7 0-.9-.2-.2-.2-.6-.4-.9-.6-1-.6-1.9-1.3-2.1-2.3-.1-.8-.3-1.7-.4-2.5-.7-4.3-1.5-8.8-1.4-13.3.2-9.2 6-16 11.1-22 4.3-5.1 7.5-9.4 9.9-13.6 1.2-2.1 1.8-4.6 2.4-7.2.2-.9.4-1.7.7-2.6l-3.3-.5c-21.2-2.9-38.7-9.2-53.4-19.2-4-2.8-8.4-5.2-12.1-7.1-4.9-2.6-10.4-3.6-16.3-2.8-14.8 1.8-28 4.6-40.3 8.3 9.3-.8 21.4-1 33.1 2.6 17.2 5.3 34.6 11.3 51.3 17.1 3.3 1.2 6.7 2.3 10 3.5 3 1 5.7 2.9 8 4.6 4.3 3.1 6.1 7.7 5.2 13-1.3 7.6-4.5 15.1-10.2 24.3-.2.3-.4.5-.6.7-1.8 2-3.4 2.3-4.5 2.2-1-.1-2.5-.7-3.9-2.8-.4-.6-.6-1.1-.9-1.7-.3-.7-.6-1.3-1-1.8-.3-.4-.7-.9-1-1.4-1.2-1.6-2.4-3.3-3.8-4.3-7.5-5.2-14.9-8.4-22.6-9.6-10.8-1.7-22-.6-35.2 3.6-8.7 2.7-17.7 5.4-26.3 8-3.1.9-6.2 1.9-9.3 2.8-1.3.4-4 1.2-5-1.6-.3-.9-.3-1.7 0-2.3.6-1.2 2.1-1.7 3-1.9 4.2-1.3 8.3-2.5 12.5-3.8 10.1-3.1 20.5-6.3 30.8-9.1 18.8-5 36-3 51.2 5.9 4.5 2.7 9.5 6.3 12.1 12.5 0 0 0 .1.1.1 3.8-7 7.4-13.7 8.5-21.3.4-3.1-.8-5.6-3.4-7-3.4-1.9-7.9-4.2-12.6-5.9-5.5-2-11.2-3.9-16.7-5.7-7.2-2.4-14.6-4.9-21.9-7.6-24.6-9.2-49.9-9.4-77.1-.6-.4.1-.9.3-1.3.4-1.8.6-3.7 1.2-5.6 1.6-13.2 2.5-27 1.9-41.1-1.9-.3-.1-.5-.1-.8-.2.2 1.2.4 2.3.6 3.5.6 3.5 1.2 6.8 1.6 10.2 1.5 12 .5 22.4-3.1 31.9-4.1 10.7-11.6 17.4-22.4 19.8-13.6 3-28.4 0-40.5-8.2-11.4-7.7-18.7-19.1-20.7-31.9-.3-1.8-.5-3.6-.8-5.4-.5-3.9-1-7.9-2-11.7-1.2-4.7-2.8-10.2-5.6-14.9-3.9-6.5-10.2-9.9-17.8-9.3-8.5.6-12.8 6.8-14.9 11.8-1.5 3.5-2.2 7.7-2 11.4.5 11.2 6.2 19.7 17.6 26 9.5 5.2 16.5 10.6 21.9 16.9.5.6.9 1.2 1.3 1.8.2.3.3.5.5.8.3.4.2 1-.1 1.3l-.7.6c-.4.4-.9.4-1.3.1-.2-.2-.5-.4-.8-.6-.6-.4-1.1-.8-1.7-1.3-7.1-6-15.9-12.5-27.1-15.1-13.8-3.2-23.7 2.5-27.9 16-1.1 3.7-1.9 7.7-2.3 12-1.6 17.1 1.8 34.1 10.4 51.9 5.2 10.7 11.3 21.2 17.7 31.8 8.8 14.8 15.7 27.6 20.2 41.7l1.1 3.5c1.3 3.9 2.6 8 4 12 1.9 5.5 6 9 12 10.4.2 0 .4.1.6.1.6.1 1.3.2 1.9.6.7.5 1.3 1.2 1.8 1.9.2.2.4.5.6.7l.1.1c-1.1-7.2-1.7-14.5-1.8-22v-.3c0-1.5-.1-4 2.8-4.4 0-.3.2-.4.3-.4zm396.3-60.9zM415.7 384zm61.4 347.5c-4.1 0-20.2-.4-26.8-1.3-27.4-4.1-53.2-14.3-76.9-30.4-20.6-14-35.3-29.9-44.9-48.6-3.6-7-6.6-14.4-8.8-21.8-5-16.8-5.9-35-2.9-58.9 2.1-16.5 6.4-32.1 12.9-46.2 13.9-30.3 38.2-51.7 72.2-63.6 16.2-5.7 32.6-8.3 51.4-8.4 2 .1 3.9.2 5.8.3 4.1.2 8.4.4 12.5.9 27.7 3.4 50.2 11.3 68.7 23.9 39.6 27.2 71.6 84 53.8 149.7l-1-.3 1 .3c-11.8 43.6-38.2 75.6-78.3 94.9-11.6 5.6-24.3 8.8-37.9 9.6-.1-.1-.4-.1-.8-.1zm-23.9-277.2c-18.5.1-34.6 2.7-50.6 8.3-33.9 11.8-57.1 32.3-71 62.5-6.4 13.9-10.7 29.3-12.8 45.6-3 23.6-2.1 41.5 2.8 58 2.2 7.3 5.1 14.5 8.6 21.5 9.4 18.4 23.9 34 44.2 47.8 23.4 15.9 49 26 76 30 7.1 1.1 25.8 1.4 27.2 1.3 13.3-.8 25.8-3.9 37.1-9.4 39.5-19 65.5-50.5 77.2-93.5 17.6-64.7-14-120.7-53-147.4-18.4-12.6-40-20.1-67.7-23.6-4.1-.5-8.3-.7-12.4-.9-1.7.1-3.6 0-5.6-.2zm-93.8 241.8h-.3c-66.8-5.9-122.5-33.8-165.8-83-17-19.3-28.4-40.5-34-62.7-1.1-4.3-1.9-8.7-2.7-13-.4-2-.7-4-1.1-6-.1-.3 0-.5.2-.8.2-.2.4-.4.7-.4l.8-.2c.5-.1 1 .2 1.2.6.4 1 .8 1.9 1.1 2.9.8 2.1 1.6 4.1 2.5 6.1 6.9 16.7 14 29.6 22.4 40.6 3.4 4.5 7.4 9.1 11.9 13.6 12.4 12.7 28.1 19.6 47.9 21.3 5.3.4 10.5.8 15.8 1.3 8.1.6 16.6 1.3 24.8 2.1 9.4.9 19 3.3 29.4 7.5 1.2.5 2.8 1.8 3.2 3.4 6.9 24.1 20.6 44.5 41.9 62.4.7.6 1.3 1.1 1.9 1.6.2.2.3.4.4.6 0 .1.1.2.2.3.2.3.2.7 0 1s-.5.5-.8.6c-.2 0-.4.1-.6.1-.3 0-.6.1-1 .1zM158.8 537.4c.7 4.1 1.5 8.3 2.5 12.4 5.6 22.3 16.6 42.5 33.6 61.9 42.7 48.7 97.9 76.4 163.8 82.3-.2-.2-.4-.4-.6-.5-21.7-18.2-35.6-38.9-42.7-63.5-.2-.7-1.2-1.7-2-2-10.2-4.1-19.6-6.5-28.8-7.4-8.3-.8-16.7-1.4-24.8-2.1-5.3-.4-10.6-.8-15.8-1.3-20.4-1.7-36.5-8.9-49.2-21.9-4.5-4.6-8.6-9.3-12-13.8-8.5-11.2-15.7-24.2-22.7-41.1-.5-1-.9-2-1.3-3zm-17.3 119c-.3 0-.5-.1-.7-.3-26.5-26.7-36.2-53.4-30.6-84.1.1-.4.4-.7.8-.8.4-.1.8.1 1.1.5.2.4.4.7.6 1 .4.6.7 1.1 1 1.6 6 11 13.6 20.9 22.5 29.5.9.9 2 2.4 2.2 4.1 1.3 13.2 2.6 26.6 3.8 39.6l.6 6.7c0 .3 0 .6-.1.9 0 .2-.1.4-.1.6-.1.4-.3.7-.7.8-.2-.1-.3-.1-.4-.1zm-29.7-81.5c-4.4 28.3 4.8 53.2 28.8 78l-.5-5.4c-1.2-13-2.5-26.4-3.8-39.6-.1-.8-.7-2-1.5-2.8-9-8.7-16.7-18.8-22.9-30 0 0 0-.1-.1-.2zm23.8 24.4c-.2 0-.5-.1-.6-.2-.1-.1-.3-.2-.4-.3-.4-.3-.8-.6-1.2-1-1-1.1-2-2.3-2.9-3.4-2.4-2.7-4.8-5.4-6.8-8.4-14-21-22.1-38.4-26.4-56.5-4.5-19.3-1.4-38.2 9.2-56.3.2-.3.3-.6.5-.8.2-.2.4-.3.6-.5.1-.1.2-.1.4-.2.2-.2.5-.2.8-.1.3.1.5.2.7.5 7.2 11.7 12.5 22.9 16.2 34.2.3.8.4 1.9.2 2.9-2.8 23.2 1.4 45.2 6 63.8 2 8.2 3.6 16.5 4.9 25.4.1.4-.1.8-.5 1-.3-.2-.5-.1-.7-.1zM108.3 474c0 .1-.1.1 0 0-10.4 17.7-13.4 36.1-9 54.9 4.2 17.8 12.2 35.1 26.1 55.8 1.9 2.9 4.3 5.6 6.6 8.2.7.8 1.5 1.7 2.2 2.5-1.2-7.7-2.6-15-4.4-22.2-4.6-18.7-8.9-41-6-64.5.1-.7 0-1.4-.2-2-3.5-10.8-8.5-21.5-15.3-32.7zm-14.7 23.8c-.3 0-.7-.2-.8-.4-.5-.8-1.1-1.5-1.6-2.2-1-1.4-2-2.7-2.8-4.1-10.2-16.5-18-35-23.4-55.2-3.5-13-6-26.7-7.6-41.9-1.6-14.5 1-28.1 7.7-40.3 1.2-2.2 1-3.8-.6-5.7-10.8-12.2-16.5-27.4-17.4-46.4-.3-6.6 0-13.2.3-19.7.1-2.6.2-5.2.3-7.9 0-.7.3-1.3.5-1.9.1-.2.2-.5.2-.7.6-1.9 1.2-3.9 1.7-5.8 1.4-4.7 2.8-9.5 4.1-14.2.9-3.4.5-6.6-1.4-10.1-6.2-11.6-5.9-24.2 1.1-36.6 8.8-15.7 23-24.8 42.4-27.1 12.7-1.5 24.9 1.5 36.3 9.1 1.1.7 2.1 2.2 2.3 3.5 2.7 18.9 8.6 36.4 17.6 51.9.2.3.3.6.4 1 .1.2.1.4.2.6.1.4.1.8-.2 1.1-.3.3-.7.4-1 .3-.3-.1-.6-.2-.9-.2-.6-.1-1-.2-1.5-.4-19.4-6.2-39.7-2.5-55.7 10.1a61.02 61.02 0 0 0-23 52.1c1.1 14.8 6.8 29 17.9 44.8.3.4.3.9-.1 1.3-.4.5-.8 1-1.3 1.4-.9 1-1.9 2.1-2.7 3.3-3.8 5.2-6 11.6-7 20.1-1.9 15.3.3 30.9 6.7 47.8 5 13.3 12 25.4 20.8 39.5 1.4 2.3 1.5 4 0 6.3-4.7 7.7-7.9 15.3-9.9 23.2-.1.4-.2.9-.4 1.5l-.4 1.2c-.1.4-.4.7-.8.7.1 0 0 0 0 0zm8.9-318.5c-2 0-4 .1-6 .4-18.7 2.2-32.4 11-40.9 26.1-6.7 11.9-7 23.6-1.1 34.6 2.1 4 2.6 7.6 1.6 11.6-1.3 4.8-2.7 9.6-4.1 14.3-.6 1.9-1.2 3.9-1.7 5.8l-.3.9c-.2.4-.3.9-.3 1.2-.1 2.6-.2 5.3-.3 7.9-.3 6.4-.5 13-.3 19.5.8 18.5 6.3 33.3 16.8 45.1 2.3 2.6 2.5 5 .9 8-6.4 11.9-8.9 25-7.4 39.1 1.6 15.1 4.1 28.7 7.5 41.6 5.3 19.9 13.1 38.3 23.2 54.6.8 1.3 1.7 2.6 2.7 4 .1.2.2.3.4.5.1-.2.1-.4.2-.6 2-7.9 5.4-15.9 10.1-23.7 1-1.7 1-2.5 0-4.2-8.9-14.2-15.8-26.4-20.9-39.9-6.5-17.2-8.8-33.2-6.9-48.8 1.1-8.9 3.4-15.6 7.4-21.1.9-1.2 1.9-2.4 2.9-3.4.2-.3.5-.5.7-.8-11.1-15.8-16.7-30.2-17.8-45.2-1.5-20.8 7.4-41 23.7-53.9 16.3-12.8 37.8-16.7 57.6-10.5.1 0 .1 0 .2.1-8.9-15.6-14.8-33.1-17.5-52.1-.1-.7-.7-1.6-1.3-2-9.3-6.1-19-9.1-29.1-9.1zm-45.2 238c-.2 0-.4-.1-.6-.2-.2-.2-.4-.3-.6-.4l-.9-.6c-2.3-2.6-4.7-5.3-7-7.9-5.2-5.8-10.6-11.8-15.3-18.2-12.5-17.1-16-37.8-10.8-63.3 1.9-9.5 5.6-18.9 11.3-28.8 3-5.3 6.1-10 9.4-14.5.3-.4.7-.5 1.2-.4.4.1.7.5.7 1v2.9c-.6 15.7.9 28.2 4.8 39.4 3.1 8.8 7.2 16.1 12.6 22.2.8.8 2 2.3.8 4.5-7.6 14-9.8 30-6.7 49.1.5 3.1.9 6.2 1.4 9.4.2 1.5.4 3 .7 4.6.1.4-.1.8-.5 1-.1.2-.3.2-.5.2zM42.7 287.4c-2.5 3.6-5 7.5-7.4 11.7-5.6 9.7-9.2 18.9-11.1 28.2-5.1 24.8-1.7 45 10.4 61.6 4.6 6.3 10 12.3 15.2 18 2 2.2 4.1 4.5 6.1 6.8-.1-.6-.2-1.3-.3-1.9-.5-3.3-.9-6.3-1.4-9.4-3.1-19.5-.9-36 7-50.4.5-.8.3-1.2-.5-2.1-5.6-6.3-9.9-13.8-13-22.9-4-11.3-5.6-23.9-5-39.6zm505.3 120c-.4 0-.8-.3-1-.7-3.3-9.5-2.5-22.4 6.6-29.9 10.2-8.3 17.2-16.9 21.5-26.4.5-1 1.8-1.9 2.9-2 2.9-.1 5.8-.1 8.9-.1h3.3c.3 0 .6.1.8.3.2.2.3.5.3.8l-.1 1.9c-.1 1.3-.2 2.5-.3 3.7-.7 7.3-2.8 14.2-6.4 20.5-5.7 9.9-13.3 18.5-23.2 26.2-4.1 3.2-8.4 5.1-13 5.6-.2.1-.3.1-.3.1zm35.8-57c-2 0-3.9 0-5.8.1-.3 0-.9.4-1 .8-4.4 9.8-11.6 18.7-22.1 27.2-8.1 6.6-9 18.1-6.2 26.8 3.9-.6 7.6-2.3 11.1-5.1 9.7-7.6 17.1-16 22.6-25.6 3.5-6 5.5-12.6 6.2-19.7l.3-3.6.1-.8h-2.2c-1-.1-2-.1-3-.1zm5.9 4.5zM513.8 399c-10.5 0-18.9-2.2-26-6.7-4.8-3.1-9.8-3.9-15.3-2.5-.7.2-1.3.3-2 .4h-.2c-.3 0-.6 0-.9-.1-.1 0-.4-.1-.7-.2-.3-.1-.6-.3-.7-.6-.1-.3-.1-.6.1-.9.2-.4.4-.7.6-1.1.4-.8.8-1.5 1.3-2.1 6.8-8.9 16.5-14.1 29.8-15.9 7.4-1 14.4-.5 20.9 1.6 4.7 1.5 8.3 3.8 11.2 7 4.6 5.1 4.8 8.8.6 14.5-4.1 5.5-10 6.4-14 6.7-1.6-.1-3.2-.1-4.7-.1zm-36.3-11.9c4 0 7.8 1.2 11.4 3.5 7.8 5 17.1 7 29.4 6.3 5.9-.3 9.8-2.1 12.5-5.8 3.6-4.9 3.5-7.5-.5-11.9-2.6-2.9-6-5-10.3-6.4-6.2-2-12.9-2.5-20-1.5-12.7 1.7-22 6.7-28.5 15.1-.4.5-.7 1-1 1.7.5-.1.9-.1 1.4-.3 2-.5 3.8-.7 5.6-.7zM197 377.2c-1 0-2 0-3-.1-17.8-1.1-31.3-9.3-40.2-24.5-3.2-5.4-4.1-11.5-5.1-17.3-.2-1.5-.5-2.9-.7-4.4-1.4-7.7-3-14.3-4.9-20.1-1.8-5.6-5.8-10.1-11.8-13.4-9.9-5.3-20.1-3.3-27.2 5.5-9.2 11.3-8 29.1 2.9 40.5.4.4.8.7 1.4 1l.9.6c.3.2.5.7.4 1.1-.1.4-.4.7-.8.8l-17.7 3.4c-.4.1-.8-.1-1-.4-7.6-10.8-17.6-27.6-17.2-48.5.3-19.7 9.8-37.1 26-47.9 16.1-10.7 35.7-12.7 53.7-5.5 4.3 1.7 8.5 4 12.5 6.2l4.5 2.4c.9.5 1.6 1.6 1.8 2.5 7.3 24 23.1 40.4 48.5 50.2 3.4 1.3 5 3.2 5.7 6.8 2.6 12.7 3.9 23.5 1.7 34.7-3.4 17.5-13.7 26.4-30.4 26.4zm-76.6-84.8c3.9 0 7.9 1 11.8 3.1 6.5 3.5 10.8 8.4 12.8 14.5 1.9 5.9 3.5 12.6 5 20.4.3 1.5.5 3 .8 4.5.9 5.9 1.8 11.5 4.8 16.6C164 366.1 177 374 194.1 375c17.6 1.1 27.9-7 31.3-24.7 2.1-10.9.8-21.4-1.7-33.9-.6-2.9-1.7-4.2-4.4-5.3-25.6-10-42.4-27.3-49.7-51.6-.2-.6-.6-1.1-.8-1.3-1.5-.8-3-1.6-4.5-2.5-4-2.2-8.1-4.4-12.3-6.1-17.4-7-36.3-5-51.8 5.3-15.6 10.4-24.8 27.3-25.1 46.2-.3 15.5 4.8 30 16.5 46.7l14.6-2.8c-.2-.2-.4-.3-.6-.5-11.5-12.1-12.9-31.1-3-43.2 4.7-5.8 11.1-8.9 17.8-8.9zm338.5 73.8c-.2 0-.5-.1-.7-.2-.3-.3-.5-.8-.3-1.2.2-.4.3-.8.5-1.2.3-.7.5-1.3.8-1.9 5.1-10.1 13.1-15.7 23.7-16.7 9.1-.8 18 1.2 27 6.2.4.2.6.7.5 1.2s-.6.8-1 .8c-24.1-.8-28.7.4-49.9 12.8-.3.1-.4.2-.6.2zm27.8-19.3c-1.2 0-2.5.1-3.7.2-10 .9-17.2 6-22 15.5 0 0 0 .1-.1.1 18-10.4 24.2-12.1 43.9-11.7-6.1-2.8-12-4.1-18.1-4.1zm99.2-.1c-2.6 0-5.4-.3-8.2-.8-.3-.1-.5-.2-.7-.5-.2-.2-.2-.5-.1-.8 2.2-8.5-.6-16-3.5-24-.5-1.4-1-2.8-1.5-4.3-.1-.3-.1-.6.1-.9.1-.3.4-.4.7-.5.8-.2 1.5-.3 2.2-.4 1.4-.3 2.7-.5 4-.8 7.2-1.7 11.9-6.2 13.4-13.1 3.8-16.7-.1-31.4-11.6-43.6-3.5-3.7-8.3-6.3-14.6-7.8-.8-.2-1.7-.4-2.7-.7l-1.8-.5c-.4-.1-.7-.4-.8-.8s.1-.8.5-1c8.8-5.8 14.4-12.4 17.7-20.8.2-.5.8-.8 1.3-.6l1.1.4c.7.2 1.3.4 1.9.7 15.1 5.6 27.6 12.2 38 20.4 8.6 6.7 14.9 15.5 18.3 25.3 3.4 10.1 3.8 19.6 1.2 29l-1-.3 1 .3c-2.5 9.1-8.2 16-18.1 21.8-.3.2-.7.2-1 .2h-.3c-.3 0-.7-.1-.9-.3-.2-.2-.3-.6-.3-.9.2-1.1.4-2.3.6-3.4.5-2.5 1-4.8 1.1-7.2.3-4.4.4-8.9.4-13.3 0-1.6.1-3.2.1-4.8v-.2c0-.3 0-.9-.1-1-.5-.6-1-1-1.2-1.1-.2.2-.6.7-.7 1-.1.4-.1.9 0 1.5 0 .3 0 .5.1.8.3 9.6.1 21-4.3 32-5.4 13.5-16.4 21-30.3 21zm-6.7-2.7c16.1 2.8 29.2-4.3 35.1-19.2 4.3-10.7 4.5-21.7 4.1-31.2 0-.2 0-.5-.1-.7-.1-.7-.1-1.6.1-2.4.2-.7 1.3-2.6 2.7-2.5 1.2.1 2.2 1.1 2.9 1.9.5.7.5 1.6.5 2.3v.2c0 1.6-.1 3.2-.1 4.8-.1 4.4-.2 9-.5 13.4-.2 2.5-.7 5-1.1 7.5-.1.5-.2 1.1-.3 1.6 8.8-5.4 14-11.7 16.2-19.9 2.5-9 2.1-18.1-1.2-27.8-3.2-9.5-9.3-17.9-17.6-24.3-10.3-8-22.5-14.6-37.4-20.1-.6-.2-1.2-.4-1.9-.6l-.2-.1c-3.2 7.7-8.5 14-16.3 19.6.9.2 1.6.4 2.3.6 6.8 1.6 11.9 4.4 15.6 8.4 11.9 12.7 16 28 12.1 45.5-1.7 7.7-6.9 12.7-14.9 14.6-1.3.3-2.7.6-4.1.8-.3.1-.7.1-1 .2.4 1 .7 2.1 1.1 3.1 3 7.8 5.8 15.7 4 24.3zm-323.6-29.8c-4.9 0-9.6-.5-13.8-1.2-14.7-2.3-27.9-7.3-39.2-15-15.5-10.5-25.4-24.6-29.6-41.8-.8-3.1-.9-6.7-.5-10 .6-4.3 1.7-8.8 3.1-13.1 5.8-17 17.9-25.8 36-26.1 3-.1 6 .3 8.9.6 1.3.2 2.7.3 4 .4.5 0 1 .5.9 1.1v.8c0 .4-.3.8-.7.9-.1 0-.2.1-.3.1-.3.1-.7.3-1.1.3-6.1.9-11.6 4.3-15.4 9.7-4.4 6.3-6 14.3-4.4 22.1 3.2 15.5 15.4 24.9 32.6 25.1h.7c21.2 0 39.3-15.1 44.1-36.9 3.5-15.8.4-30.2-9.2-42.9-1-1.3-1.7-2.9-2.3-4.4l-.3-.6c-6-13.7-8.4-25.3-7.8-36.6.6-10.5 4.1-20.2 10.4-28.8 5.2-7.1 11.6-13.5 19.6-19.5.2-.2.4-.3.7-.5.6-.4 1.4-.9 1.4-1.4 0-.2-.1-.5-.3-.7-.2-.3-.5-.5-.7-.5-.6-.1-1.6.9-2.2 1.4-1.5 1.4-3.1 2.8-4.7 4.3-4.5 4-9.1 8.2-13.1 12.8-8.1 9.2-12.8 20.4-13.8 33.5 0 .5-.4.8-.8.9-.4.1-.9-.1-1.1-.5-.1-.2-.2-.4-.4-.7-.3-.5-.6-1-.8-1.6-4.2-9.4-4.6-19.7-1.4-31.6 1.2-4.5 3-8.8 4.7-13l1.5-3.9c.3-.8.4-1.4.2-1.7-.2-.3-.8-.6-1.7-.8-1.9-.3-3.7-.7-5.6-1.1-5.6-1.1-11.4-2.2-17.1-2.7-34.5-2.5-63.6 10.8-86.5 39.6-10.4 13.1-15.4 28.8-15.2 47.9v5.1c0 .4-.2.7-.5.9-.3.2-.7.2-1 0-17.4-10.8-35.6-12.4-54-4.7-19.4 8.1-30.2 22-32.9 42.5-.1.5-.4.8-.9.9-.5 0-.9-.2-1.1-.7-.2-.7-.5-1.3-.7-1.9-.4-1.1-.7-2-1-3-5.6-18.2-5.8-36.2-.5-53.4l1 .3-1-.3c4.1-13.2 12.5-23.9 25-31.7 14-8.8 29.2-13.9 42.3-17.7.4-.1.7-.1 1.1-.1h.6c.3 0 .7.2.9.5s.2.7.1 1c-3.6 8.1-5.6 17-6.1 27 .2-.8.4-1.6.6-2.3 1.3-5.7 2.7-11.6 4.9-17.2 9.7-25 28.2-40.3 55-45.4 7.8-1.5 15.7-.8 23.4-.1 1.4.1 2.9.3 4.3.4 24.7 2 45.1-6.7 60.7-25.9.8-1 1.7-2 2.5-3 1.2-1.5 2.5-3 3.7-4.5 16.3-20.3 38.1-28.4 64.6-24.2 15.1 2.4 27.7 7.2 38.5 14.7C374 42.8 380.2 52 382 63c1 5.6-.1 11.9-2.7 15.9-.2.3-.5.5-.9.5s-.7-.2-.9-.5l-.5-.9c-.4-.7-.8-1.3-1.2-1.9-6.8-11.7-17-20.5-32.3-27.6-.6-.3-1.9-.1-2.2.2 0 .1-.2.3-.1.5.1.4 1.1.9 1.6 1.2.7.4 1.4.7 2 1.1 1.6.8 3.3 1.7 5 2.6 12.4 6.9 21.6 16.7 27.5 29 2.4 5.1 4.6 10.1 6.9 15.4 1 2.4 2.1 4.9 3.2 7.3.2.3.1.7-.1 1-.2.3-.6.5-1 .4-.4-.1-.7-.1-.9-.1-.4 0-.8-.1-1.1-.3-11.7-8.9-25.8-13.9-44.5-16-.4 0-.8-.1-1.3-.2-1.3-.2-2.5-.3-3.6-.2-.4 0-.9.5-1.4.9.4.4.9 1 1.2 1 2.7.5 5.5.9 8.1 1.2 3.9.5 7.9 1.1 11.8 1.9 11.5 2.4 21.5 7.2 29.9 14.2 15.7 13.1 23.1 30.6 22.8 53.6-.1 6.8-1.2 12.6-3.4 17.6-2.2 5-5.7 8.8-10.7 11.5-.3.2-.7.2-1 0-.3-.2-.5-.5-.5-.9V184.2c-.1-14.1-5-25.7-14.6-34.5-3.2-2.9-6.9-5.6-10.4-8.1-1.3-.9-2.5-1.8-3.8-2.7-.7-.5-1.3-.8-1.7-.7-.1 0-.3.1-.6.5-.4.6-.3.9 1.1 1.8l.3.2c.9.6 1.7 1.2 2.6 1.8 2.3 1.6 4.7 3.2 7 5 19.8 16.4 23.9 43.9 9.6 65.5-12.7 19.3-38.5 27.6-60 19.4-2.5-1-4.9-2.2-7.2-3.4-1.4-.7-2.9-1.5-4.4-2.2-7.4-3.4-11-9.7-11.6-19.8-.5-8.5 2-16.9 7.5-25.5 2.8-4.3 6.4-8.1 9.6-11.3 2.5-2.5 5.9-4 11-4.7.5-.1.9.2 1.1.6s0 .9-.3 1.2c-.3.3-.6.5-.8.6-.4.3-.6.5-.9.6-8.4 5.5-11.5 15-7.7 24.2 3.7 9.1 10 14.2 18.7 15.1 10 1.1 18.1-2.4 23.9-10.5 3.6-4.9 3.9-10.5.8-16.5-5.1-10.2-14-16.2-26.4-17.7-10.4-1.3-19.1 2.2-25.9 10.3-7.1 8.4-11.3 18.3-12.6 29.5-.9 8 2.2 15 5.6 21.4 1.5 2.7 3.1 5.6 5.3 9.2 12.7 21.5 8.5 47.7-10.6 65.2-4.4 4-8.5 6.6-12.9 8.2-1.3.4-2.8 1-4.1 1.7-7.8 4.4-16.1 5.7-23.7 5.7zm-43.4-105.2h-.5c-17.1.3-28.5 8.6-34 24.7-1.4 4.2-2.5 8.5-3.1 12.7-.4 3.1-.3 6.4.4 9.3 4.1 16.7 13.8 30.4 28.8 40.6 11 7.5 23.9 12.4 38.4 14.7 11 1.7 23.8 2.5 36.2-4.2 1.5-.8 3-1.4 4.4-1.8 4.1-1.4 8-3.9 12.2-7.7 18.3-16.9 22.4-42 10.2-62.6-2.1-3.6-3.8-6.5-5.3-9.2-3.6-6.7-6.9-14.1-5.9-22.6 1.4-11.6 5.8-21.9 13.1-30.6 7.3-8.7 16.7-12.4 27.8-11 13.2 1.6 22.6 7.9 28 18.8 3.3 6.7 3 13.1-1 18.6-6.2 8.6-15.2 12.5-25.8 11.3-9.4-1-16.4-6.7-20.4-16.4-3.7-9.2-1.3-18.7 6.1-24.9-2.1.7-3.8 1.7-5.1 3.1-3.1 3.1-6.7 6.8-9.3 10.9-5.3 8.3-7.7 16.3-7.2 24.3.5 9.2 3.8 14.9 10.4 18 1.5.7 3 1.5 4.4 2.2 2.3 1.2 4.6 2.4 7 3.3 20.6 7.9 45.3-.1 57.5-18.6 13.6-20.7 9.8-47.1-9.2-62.7-2.1-1.8-4.5-3.4-6.8-4.9-.9-.6-1.8-1.2-2.6-1.8l-.3-.2c-1.1-.8-3.2-2.2-1.8-4.6.6-1 1.4-1.4 2-1.5 1-.2 2.1.1 3.3 1.1 1.2.9 2.5 1.8 3.7 2.7 3.6 2.6 7.2 5.2 10.6 8.3 10 9.2 15.2 21.3 15.3 36V189.8c3.8-2.4 6.5-5.5 8.3-9.6 2.1-4.8 3.2-10.4 3.3-16.9.4-22.4-6.8-39.4-22-52-8.1-6.8-17.9-11.4-29-13.7-3.8-.8-7.8-1.4-11.6-1.9-2.7-.4-5.5-.8-8.2-1.2-1-.2-1.7-1-2.4-1.7-.2-.3-.5-.5-.7-.7-.2-.2-.4-.5-.4-.9s.2-.6.5-.8c.3-.2.5-.4.8-.6.7-.6 1.5-1.2 2.5-1.3 1.4-.2 2.8 0 4.1.2.4.1.8.1 1.2.2 18.5 2 32.6 7 44.4 15.6-.8-1.7-1.5-3.4-2.2-5.1-2.3-5.3-4.5-10.4-6.9-15.4-5.6-12-14.6-21.4-26.6-28.1-1.6-.9-3.3-1.8-4.9-2.6-.7-.4-1.4-.7-2-1.1-1-.5-2.3-1.2-2.7-2.5-.2-.7 0-1.4.5-2.2.8-1.2 3.6-1.4 4.8-.8 15.6 7.4 26.2 16.4 33.2 28.5.2.4.5.8.8 1.3 1.7-3.6 2.3-8.5 1.6-13-1.8-10.6-7.5-19.1-17.3-25.9-10.6-7.3-22.9-12-37.6-14.4-25.7-4.1-46.8 3.8-62.6 23.4-1.2 1.5-2.5 3-3.7 4.6-.8 1-1.7 2-2.5 3-16 19.7-37.1 28.7-62.4 26.7-1.4-.1-2.9-.2-4.3-.4-7.5-.7-15.3-1.4-22.8.1-26 4.9-44 19.8-53.4 44.1-2.1 5.4-3.5 11.2-4.8 16.9-.6 2.6-1.2 5.3-1.9 7.9-.2.6-.3 1.2-.5 1.9l-.3 1c-.1.5-.6.8-1.1.8-.5-.1-.9-.5-.9-1-.4-13.2 1.5-24.6 5.7-34.9-12.8 3.8-27.6 8.8-41.2 17.3-12 7.6-20.1 17.9-24.1 30.6-5.2 16.8-5 34.3.5 52.2.1.3.2.6.3 1 3.7-18.8 14.9-32.3 33.5-40.1 18.5-7.8 36.8-6.4 54.3 3.9V179c-.1-19.7 5-35.8 15.7-49.2 23.3-29.4 53-42.9 88.2-40.4 5.8.4 11.7 1.6 17.3 2.7 1.9.4 3.7.7 5.6 1.1 1.6.3 2.6.9 3.1 1.8.6 1.2.3 2.5-.1 3.4l-1.5 3.9c-1.7 4.2-3.4 8.5-4.6 12.8-3 10.9-2.7 20.5.8 29.1 1.6-12 6.3-22.5 14-31.1 4.1-4.6 8.7-8.8 13.2-12.9 1.6-1.4 3.1-2.8 4.6-4.2.9-.8 2.2-2.1 3.8-1.9.8.1 1.6.5 2.2 1.3.6.8.8 1.5.7 2.3-.2 1.3-1.4 2.1-2.3 2.7-.2.1-.4.3-.6.4-7.8 5.9-14.1 12.2-19.2 19.1-6.1 8.2-9.4 17.5-10 27.7-.7 10.9 1.8 22.2 7.6 35.6l.3.6c.6 1.4 1.2 2.8 2.1 4 10 13.2 13.2 28.2 9.6 44.6-5.1 23-24.3 38.8-46.8 38.5-18-.3-31.3-10.5-34.6-26.8-1.7-8.4 0-17 4.7-23.7 3.6-5.1 8.7-8.7 14.5-10.1-.2 0-.3 0-.5-.1-3.2-.8-5.9-1.1-8.6-1.1zm360.9 103.7c-2.7 0-3.1-2.1-3.3-3.1-.6-2.8-1.2-5.6-1.9-8.4-1.4-6.2-2.8-12.7-4.2-19-1.4-6.7-2.7-13.6-4-20.2-.5-2.8-1.1-5.6-1.6-8.4l-.3-1.8-.2-.9c-.1-.3 0-.7.3-.9.2-.2.6-.4.9-.3 12.9 1.8 21.4 7.1 26.6 16.6 5.3 9.6 7.3 19.7 5.8 30-1.5 10.2-7.2 15.5-17.7 16.3-.1.1-.3.1-.4.1zm-13.3-60.7c.1.4.1.8.2 1.2.6 2.8 1.1 5.6 1.6 8.4 1.3 6.6 2.6 13.4 4 20.1 1.3 6.3 2.8 12.8 4.2 19 .6 2.8 1.3 5.6 1.9 8.4.3 1.3.5 1.5 1.6 1.4 9.4-.7 14.5-5.3 15.8-14.5 1.4-9.8-.5-19.5-5.6-28.7-4.6-8.5-12.2-13.4-23.7-15.3zM28.7 301c-.3 0-.6-.2-.8-.4-3.8-4.9-5.7-10.6-6-17.9-.9-18.5 3.8-36.2 13.9-52.6.9-1.5 1.9-3 2.9-4.5.5-.8 1-1.6 1.6-2.5.2-.3.6-.5 1-.5s.7.3.9.7c.3.7.5 1.4.8 2 .5 1.2.8 2.3 1.3 3.3 1 2.3 2 4.7 3.1 7 1.6 3.7 3.3 7.4 4.9 11.2.4.9.5 2.1.3 3.2-2.6 13.4-6.8 24.6-12.9 34.2-2.3 3.6-4.4 7.2-6.7 11-1.1 1.8-2.1 3.5-3.2 5.3-.4.3-.7.4-1.1.5zm12.2-75.1c-.2.3-.3.5-.5.8-1 1.6-2 3-2.9 4.5-9.9 16.1-14.5 33.4-13.6 51.4.3 6.2 1.8 11.2 4.7 15.5.8-1.4 1.6-2.7 2.4-4 2.3-3.8 4.5-7.4 6.7-11 5.9-9.5 10-20.4 12.6-33.5.1-.7.1-1.5-.1-2-1.6-3.7-3.2-7.4-4.9-11.2-1-2.3-2.1-4.7-3.1-7-.4-1.1-.8-2.2-1.3-3.5.1 0 .1 0 0 0zm195.8 40.5c-4.9 0-9.8-1-14.4-3.1-2.2-1-4.2-2.3-6.2-3.5-.9-.6-1.8-1.1-2.7-1.7-.5-.3-.6-.8-.4-1.3l.4-.8c.2-.5.7-.7 1.2-.6.2.1.4.1.5.1.4.1.9.2 1.3.4 4.6 1.9 9.1 1.4 13.7-1.3 11-6.5 16.7-22.2 12.3-34.2-1.8-4.9-4.8-8.5-9-10.5-15.3-7.5-30.6-6.8-45.4 2.2-5.4 3.3-9.4 8.4-13 16.6-.3.7-.6 1.3-.8 2l-.4 1c-.2.4-.7.7-1.1.6l-.8-.1c-.6-.1-.9-.6-.8-1.2.1-.9.3-1.8.4-2.7.3-1.9.6-3.9 1-5.9 3.1-14.4 9-25.9 18.2-35.1 9.2-9.3 22.8-14.9 37.1-15.3 14.4-.4 28.2 4.3 37.8 13.1 13.3 12.1 17.8 28.4 13 47.1-4.4 17.2-15.6 28.6-32.5 32.9-3.1.9-6.3 1.3-9.4 1.3zm-18.6-7.7c1.6 1 3.3 2 5 2.8 7.2 3.1 14.7 3.7 22.5 1.7 16.4-4.1 26.8-14.7 31-31.4 4.6-18.2.4-33.3-12.4-45.1-19.2-17.5-53.5-16.5-72.1 2.1-8.8 8.9-14.6 20-17.6 34-.2 1.2-.5 2.3-.6 3.5 2.4-5.2 6.3-11.8 13.1-16 15.4-9.4 31.4-10.2 47.4-2.3 4.7 2.3 8 6.2 10 11.7 4.7 12.9-1.4 29.7-13.2 36.7-4.3 2.6-8.7 3.4-13.1 2.3zm3.7-3.5c-1.5 0-3-.4-4.2-1.1-3-1.7-6.2-3.9-9.6-6.7-1.3-1-1.8-3-2.1-4.4-1.7-8-.1-15.5 4.3-21.1 4.5-5.7 11.7-8.9 20.1-9 4.5-1 7.2 2.5 8.8 5.2 3.3 5.5 3.7 13.2 1.2 20.5-2.5 7.4-7.6 13.2-13.6 15.6-1.8.6-3.4 1-4.9 1zm-12.6-9.4c3.4 2.7 6.4 4.8 9.4 6.5 1.9 1.1 4.4 1.1 7.3 0 5.4-2.1 10.1-7.5 12.4-14.3 2.3-6.8 2-13.9-1-18.8-2.1-3.5-4.1-4.8-6.7-4.2h-.2c-7.9.1-14.5 3.1-18.6 8.3-4.1 5.1-5.4 11.9-3.9 19.3.2 1.6.7 2.7 1.3 3.2zm-40.4 7.7c-.2 0-.4-.1-.6-.2-1.4-.9-2.8-1.7-4.1-2.4-3.1-1.6-6.3-3.3-8.4-7-10.4-18.2-16.4-35.3-18.3-52.1-3.6-31.5 6.4-57.1 29.7-76.2 25.6-21 55.4-27.6 88.7-19.5.8.2 1.2.5 1.3 1 0 .2 0 .4-.1.6-.6 2.4-1.3 4.7-2 7.1-1.5 5.3-2.9 10.2-3.9 15.4-2.4 12.2.1 24 7.5 35.3.5.8.9 1.6 1.1 2.5 1.5 6 3 12.1 4.6 18.1l.5 2.2c.1.3.1.5.1.8v.5c0 .4-.1.7-.5.9-.3.2-.7.2-1.1.1-.2-.1-.5-.2-.7-.4-.5-.2-.9-.4-1.3-.7-13.2-8.7-31.4-11.6-47.5-7.4-10.9 2.8-26 10.2-36 29.4-7.6 14.5-10.5 30.3-8.6 46.8l.5 4.2c0 .4-.1.8-.5 1-.1-.1-.3 0-.4 0zM229 94.8c-22.2 0-42.5 7.5-60.6 22.4-22.7 18.6-32.4 43.6-28.9 74.3 1.9 16.6 7.8 33.4 18.1 51.3 1.8 3.2 4.5 4.6 7.5 6.2.8.4 1.7.9 2.5 1.4l-.2-2c-1.9-16.9 1.1-33.1 8.9-48 10.3-19.8 26-27.5 37.3-30.4 16.6-4.3 35.4-1.4 49.1 7.7l-.3-1.1c-1.5-6-3-12.1-4.6-18.1-.2-.7-.5-1.3-.8-1.9-7.7-11.7-10.3-24.1-7.8-36.8 1-5.2 2.5-10.2 3.9-15.5.6-2.1 1.2-4.1 1.7-6.3-8.9-2.2-17.5-3.2-25.8-3.2zm263.9 155.3c-16.6 0-30.7-5.7-41.8-17-12-12.2-14.2-28.5-5.9-43.6.9-1.7 2.1-2.3 4-2 3.4.4 6.7.8 10.1 1.1 4 .4 8 .9 12.1 1.4 1.2.2 2.7 1.2 3.3 2.4 7.3 14.3 20.6 21.1 34.9 17.8 9-2.1 14.4-6.9 16.6-14.7 1.1-4.1.7-7.9-1.2-10.5-1.9-2.6-5-4.1-9.1-4.2-4.4-.2-8.8.4-12.3 1.8-23.4 9-46.7 5-64.5.4-11.6-3-20.7-10.5-28.1-17.4-1.2-1.1-1.4-3.2-1.4-4.4-.2-12.5-2.6-23.2-7.4-32.7-1.3-2.5-2.9-5-4.5-7.3-1-1.5-2-3-3-4.6l-.2-.3c-1.6-2.6-3.3-5.4-4.5-8.3-2.8-6.6-5.6-13.8-8.8-22-.7-1.9-.3-4-.1-4.9.4-1.5.9-3.1 1.4-4.5.6-1.7 1.1-3.5 1.5-5.3.5-2.1 1.4-3.3 3.3-4 17.3-6.8 34.8-6.8 52.2-.2 13.4 5.1 24.6 12.7 33.5 22.5 7.9 8.7 12.1 18.2 12.8 28.9.3 4.6.7 9.4 1.1 13.9.2 2.2.4 4.3.6 6.5 0 .5-.3 1-.8 1.1-14.9 2.7-28-3.6-34.2-16.6-1.8-3.7-3-7.7-4.1-11.5-.5-1.7-1.1-3.5-1.6-5.2l-.3-.9c-.1-.5-.3-1-.5-1.4-.2-.3-.5-.4-.7-.4-.3 0-.5.3-.6.6-.1.4-.1 1 0 1.6 1.7 9.6 4.8 17.4 9.5 23.9 5.3 7.4 12.8 11.4 22.2 11.7 5.7.2 11.5-.2 17.2-.6 2.3-.2 4.5-.3 6.8-.5 1.3-.1 2.6-.3 3.8-.5.5-.1 1-.2 1.5-.2 10.1-1.4 19.1 1.7 26.6 9.2 8.8 8.8 13.6 20.2 14.2 33.7.6 12.9-1.9 25.1-7.6 36-.3.6-.7 1.3-1 1.9-1.1 2.2-2.3 4.6-3.7 6.7-9.1 14.1-22 21.5-38.3 22.1-1.1.5-2 .5-3 .5zm-44.4-60.6c-.7 0-1 .3-1.4 1-7.9 14.3-5.8 29.6 5.5 41.1s25.8 17 43.1 16.4c15.6-.6 27.9-7.7 36.7-21.2 1.3-2.1 2.5-4.3 3.6-6.5.3-.7.7-1.3 1-2 5.5-10.6 8-22.4 7.4-35-.6-13.1-5.2-24-13.6-32.4-7-7.1-15.4-10-24.8-8.6-.5.1-1 .1-1.5.2-1.3.2-2.7.4-4 .5-2.3.1-4.5.3-6.8.5-5.7.4-11.6.9-17.4.6-9.9-.4-18.1-4.7-23.8-12.6-4.8-6.8-8-14.9-9.8-24.7-.1-.7-.2-1.7.1-2.6.3-1.1 1.2-1.9 2.3-2.1 1-.2 2.1.3 2.7 1.2.5.6.6 1.4.8 2 .1.3.1.5.2.7.6 1.8 1.1 3.6 1.6 5.3 1.1 3.8 2.3 7.7 4 11.2 5.7 11.8 17.5 17.7 31 15.6-.2-1.9-.3-3.7-.5-5.6-.4-4.6-.8-9.3-1.1-14-.7-10.2-4.8-19.3-12.3-27.7-8.6-9.6-19.6-17-32.7-22-16.9-6.5-34-6.4-50.7.1-1.3.5-1.7 1.1-2 2.5-.4 1.9-1 3.7-1.6 5.5-.5 1.4-1 2.9-1.3 4.4-.3 1.4-.4 2.7 0 3.6 3.1 8.2 6 15.4 8.7 21.9 1.2 2.8 2.8 5.4 4.4 8l.2.3c.9 1.5 1.9 3 2.9 4.5 1.6 2.4 3.3 4.9 4.6 7.5 5 9.8 7.5 20.8 7.6 33.6 0 1.4.3 2.5.8 2.9 7.2 6.8 16.1 14.1 27.2 16.9 17.5 4.5 40.4 8.5 63.2-.3 3.8-1.5 8.5-2.2 13.2-2 4.6.2 8.4 2 10.6 5.1 2.3 3.2 2.9 7.6 1.5 12.3-2.4 8.5-8.5 13.9-18.1 16.1l-.2-1 .2 1c-15.3 3.5-29.5-3.7-37.2-18.9-.3-.6-1.1-1.2-1.7-1.3-4-.5-8.1-.9-12-1.4-3.4-.4-6.7-.7-10.1-1.1-.1.5-.3.5-.5.5zM558 245.7c-.3 0-.7-.2-.9-.5-1.3-2.1-2.5-4.1-3.7-6.1-3-5-5.8-9.7-9-14.2-2.5-3.5-2.8-6.3-1.3-10.2 6.1-15.4 7.1-30.6 3.1-45.2-1.8-6.5-5.1-12.7-10-18.8-.3-.3-.3-.8-.1-1.2s.7-.6 1.1-.5c.4.1.8.2 1.1.2.6.1 1.1.2 1.5.4 13.7 5.3 24.5 13.9 32.3 25.7 8.6 13.1 10.9 27.7 6.8 43.5-3 11.6-9.9 20.6-20.5 26.6-.1.2-.2.3-.4.3zm-12.9-30.3c-1.3 3.3-1 5.3 1 8.2 3.2 4.6 6.1 9.3 9.1 14.4 1 1.7 2.1 3.5 3.2 5.3 9.6-5.8 15.9-14.1 18.7-24.8 4-15.2 1.8-29.3-6.5-41.9-7.4-11.2-17.8-19.6-30.8-24.7 4 5.5 6.8 11.2 8.5 17.1 4.1 14.9 3.1 30.6-3.2 46.4zm76.2 27.9c-.2 0-.4-.1-.6-.2-14.3-9.3-26.8-15.7-39.4-20.1-.5-.2-.8-.7-.7-1.2.2-1.1.5-2.3.7-3.4.5-2.4 1-4.6 1.2-6.8 2.4-19.3-4-35.6-19.4-50-7.9-7.4-17.4-12.7-28.3-15.8-2.5-.7-3.3-2.2-3.8-4.3-1.4-6.7-2.9-13.3-4.4-20.2-.6-2.5-1.1-5-1.7-7.6-.1-.3 0-.6.1-.8s.4-.4.7-.4c.6-.1 1.3-.3 2-.4 1.7-.3 3.5-.7 5.4-1 10.5-1.4 21.2.6 31.7 5.8 14.3 7.1 26.2 17.8 36.5 32.7 13.4 19.4 20.7 42 21.8 67.2.2 5.7.2 11.6.1 17.2 0 2.6-.1 5.2-.1 7.8 0 .4-.2.8-.6 1l-.9.4c-.1.1-.2.1-.3.1zm-38.5-21.9c12.2 4.4 24.5 10.6 38.3 19.6 0-2.3 0-4.6.1-6.9.1-5.6.1-11.4-.1-17.1-1.1-24.8-8.3-47-21.4-66.1-10-14.6-21.7-25.1-35.7-32-10.3-5.1-20.2-6.9-30.5-5.6-1.8.2-3.6.6-5.3 1-.3.1-.7.1-1 .2.5 2.2 1 4.4 1.5 6.5 1.6 7 3.1 13.5 4.5 20.2.4 1.7.8 2.3 2.3 2.7 11.2 3.2 20.9 8.7 29.1 16.3 15.7 14.7 22.4 32.1 20 51.8-.3 2.3-.8 4.6-1.3 7-.1.7-.3 1.5-.5 2.4zm-49.4-109.2zM502.9 209c-7.4 0-14.6-2.9-19.7-8.4-1.6-1.8-3-3.7-4.6-5.8-.7-1-1.4-2-2.2-3-.2-.3-.3-.7-.1-1s.5-.6.8-.6c1.1-.1 2.2-.2 3.1-.2 1.9-.1 3.5-.2 5.1-.6 6-1.4 12.2-3 18.8-4.9l.3-.1c4-1.2 8.2-2.3 12.7-1.4 5.9 1.2 8.5 5 7.4 10.8-1.1 5.9-4.7 10.3-10.7 13-3.4 1.4-7.2 2.2-10.9 2.2zm-23.7-17c.4.5.8 1 1.1 1.6 1.5 2 2.8 3.9 4.4 5.6 7.1 7.6 18.7 9.9 28.3 5.6 5.4-2.4 8.5-6.2 9.5-11.5.9-4.7-1-7.5-5.8-8.4-4-.8-7.7.3-11.7 1.4l-.3.1c-6.7 1.9-12.8 3.5-18.9 4.9-1.7.4-3.4.5-5.4.6-.4.1-.8.1-1.2.1zM339 206.1c-1.2 0-2.3-.1-3.5-.3-8.1-1.4-15-8.2-16.9-16.6-.2-.9-.3-1.8-.4-2.6 0-.3-.1-.6-.1-.9v-.2c.4-8 3.8-13.2 10.5-16.1l.4.9-.4-.9c6.2-2.7 13.3-2.5 19.4.5 6.2 3 10.7 8.6 12.5 15.3 1 3.9.4 7.6-1.8 11-3.8 5.9-12 9.9-19.7 9.9zm-18.8-20.7c0 .3.1.6.1.9.1.8.2 1.6.4 2.4 1.7 7.6 8 13.8 15.3 15.1 7.8 1.3 17-2.5 21.1-8.8 1.9-2.9 2.4-6 1.5-9.3-1.6-6.1-5.7-11.2-11.4-14-5.6-2.7-12-2.9-17.7-.5-6 2.6-8.9 7.1-9.3 14.2zm207.2-42.8c-.2 0-.5 0-.7-.2-8.9-5.6-18.7-4.9-27.2-3.4-1 .2-2 .3-2.9.4-1.1.1-2.2.3-3.2.5-.7.1-1.8.2-2.7-.4-.9-.7-1-1.8-1.1-2.6-.2-2.1-.4-4.3-.6-6.4-.3-3.1-.6-6.4-.8-9.6-.6-14.4-6.7-26.8-18.6-37.7-11.2-10.2-24.5-17.3-39.4-21.1-1.3-.3-3-1.3-3.8-2.7-3.2-5.9-7.4-10.9-12.9-15.5-.3-.3-.6-.6-1-.9l-.7-.7c-.3-.3-.4-.7-.2-1.1s.5-.6 1-.6h1.7c26.9 5.5 46.5 12.7 63.6 23.2 16.7 10.2 29 22.3 37.7 36.9 6.5 11 10.8 23.7 13.5 40.1.1.4 0 .7-.1 1v.2c-.1.5-.5.8-1 .8h-.1c-.3-.2-.4-.2-.5-.2zm-17.3-6.7c5.5 0 11.3 1 16.8 4.2-2.6-15.6-6.8-27.9-13.1-38.4-8.5-14.3-20.6-26.1-37-36.2-16.5-10.1-35.4-17.1-61.1-22.5 5.3 4.6 9.5 9.6 12.6 15.5.4.7 1.5 1.4 2.5 1.7 15.3 3.9 28.8 11.1 40.3 21.6 12.4 11.3 18.7 24.1 19.3 39.2.1 3.2.5 6.4.8 9.5.2 2.1.4 4.3.6 6.4.1.8.3 1.1.3 1.1.1 0 .3.2 1.1 0 1.1-.2 2.2-.4 3.3-.5 1-.1 1.9-.2 2.9-.4 3.2-.8 6.9-1.2 10.7-1.2zm-309.5-59c-1.9 0-3.9-.1-5.8-.2-4.4-.3-8.9-.6-13.5-.9l-6.6-.4c-.4 0-.7-.3-.9-.6-.2-.3-.1-.7.1-1 10.8-14.6 23.3-25.4 38.1-33.1 16.1-8.3 34.7-11.9 58.7-11.3.3 0 .7.2.8.5.2.3.2.6.1 1-.1.2-.1.3-.2.5-.1.3-.2.6-.5.9-1.9 2-3.8 4-5.6 5.9-3.9 4.1-8 8.3-11.6 12.8-14 17.1-31.9 25.9-53.1 25.9zm-23.9-3.5 4.7.3c4.6.3 9 .6 13.5.9 23.4 1.7 42.1-6.5 57.2-25.2 3.7-4.5 7.8-8.8 11.7-12.9 1.6-1.7 3.3-3.5 5-5.2-22.7-.3-40.5 3.3-55.9 11.1l-.5-.9.5.9c-14 7.3-25.9 17.4-36.2 31zm208.8-7.7c-.2 0-.4 0-.5-.1-.3-.2-.5-.4-.5-.7-2.3-15.6-10.9-26.9-27.3-35.6-.4-.2-.6-.6-.5-1s.3-.8.7-.9c4.8-1.5 26.5 3.4 37.1 7.7 13.6 5.6 22.8 13.1 28.8 23.6.2.3.2.8 0 1.1-.2.3-.6.5-1 .5-11.6-1.3-23.2.4-36.4 5.4h-.4zm-24.2-36.6c14.4 8.5 22.6 19.7 25.1 34.1 12.3-4.5 23.2-6.2 34.1-5.3-5.8-9.2-14.4-15.9-26.8-21-9.5-3.8-25.2-7.3-32.4-7.8z"/>
    <path d="M397 378.6c-2.5-1.8-4.2-3.9-5.2-6.8-1.7-5-5.1-8.2-10-9.9-7-2.4-14.2-3.5-21.6-3.4-11 0-21.6 2.4-31.8 6.3-12.3 4.7-24.3 10-37.7 10.7-.8 0-1.6 1.3-2.4 2 .9.6 1.8 1.8 2.8 1.8 2.5 0 5-.5 7.6-.7.8-.1 1.9-.1 2.5.3 12 6.8 24.6 12.5 38.1 15.5 8.3 1.8 16.8 2.6 25.2 3.4 4.7.4 9.4-.7 13.1-3.7 6.3-5.2 13.1-8 21.3-6.4h.3c1-.5 2.5-.8 2.9-1.5.4-.9.2-2.6-.5-3.4-1.4-1.5-3-3-4.6-4.2zm-1.9 4.7c-7-.6-12.9 1.9-18.2 6.4-4.6 3.9-10.1 4.5-15.9 4.2-14.2-.8-27.7-4.3-40.7-9.9-4.5-2-9-4.1-13.5-6.2.1-.3.1-.5.2-.8 14.3-4.1 27.5-11.6 42.5-13.6 9.9-1.3 19.7-1 29.3 1.9 4.3 1.3 7.7 3.5 9.1 8.1 1.3 4.1 4.1 7.1 7.8 9.4-.3.3-.5.6-.6.5z"/>
    <path d="M366.4 399.1c-.7 0-1.4 0-2.1-.1l-1.5-.1c-7.9-.7-16-1.5-23.9-3.2-12.3-2.7-24.5-7.7-38.4-15.6-.5-.3-1.6-.2-2-.2-.9.1-1.8.2-2.8.3-1.6.2-3.3.4-4.9.4-1 0-1.8-.7-2.6-1.4-.3-.2-.5-.5-.8-.6-.3-.2-.4-.5-.4-.8s.1-.6.4-.8l.7-.7c.6-.7 1.4-1.5 2.4-1.6 11.8-.6 22.9-5 33.5-9.1l3.9-1.5c11.1-4.3 21.7-6.4 32.2-6.4h.2c7.8 0 14.9 1.1 21.8 3.5 5.4 1.9 9 5.4 10.7 10.6.9 2.6 2.4 4.6 4.8 6.3 1.9 1.4 3.5 2.9 4.7 4.4.9 1.1 1.1 3.2.6 4.5-.4 1-1.5 1.3-2.5 1.7-.3.1-.6.2-.9.4-.3.1-.6.2-.9.1-7.1-1.4-13.6.5-20.4 6.2-3.2 2.3-7.3 3.7-11.8 3.7zm-67.1-21.4c.8 0 1.6.1 2.3.5 13.8 7.8 25.8 12.7 37.8 15.4 7.7 1.7 15.8 2.5 23.6 3.2l1.5.1c4.7.4 9.1-.8 12.3-3.5 7.3-6 14.3-8.1 22-6.6l.9-.3c.4-.2 1.2-.4 1.3-.6.2-.6.1-1.8-.3-2.4-1.1-1.4-2.5-2.8-4.3-4-2.7-1.9-4.6-4.3-5.5-7.3-1.5-4.6-4.6-7.6-9.4-9.3-6.6-2.3-13.5-3.4-21.1-3.4h-.2c-10.3 0-20.5 2.1-31.4 6.3l-3.9 1.5c-10.8 4.2-22 8.6-34.2 9.3-.2.1-.7.6-.9.9.4.3 1 .9 1.2.9 1.5 0 3-.2 4.6-.4 1-.1 1.9-.2 2.9-.3h.8zm64.2 17.3c-.9 0-1.7 0-2.5-.1-13.6-.7-27.4-4.1-41-10-3.1-1.4-6.3-2.8-9.3-4.2-1.4-.7-2.8-1.3-4.2-2-.4-.2-.7-.7-.6-1.2l.2-.8c.1-.4.4-.7.7-.8 5.4-1.6 10.7-3.6 15.8-5.6 8.6-3.3 17.4-6.8 26.9-8 10.9-1.5 20.7-.8 29.7 1.9 3.3 1 8 3 9.8 8.8 1.1 3.6 3.5 6.4 7.4 8.8.3.2.5.5.5.8s-.1.6-.3.9l-.3.3c-.2.2-.6.6-1.1.5-6.2-.5-11.9 1.5-17.4 6.1-4.6 3.8-9.8 4.6-14.3 4.6zm-54.7-17.5 2.7 1.2c3 1.4 6.2 2.9 9.3 4.2 13.6 5.9 26.8 9.1 40.3 9.8 4.9.3 10.5 0 15.2-3.9 5.4-4.5 10.9-6.7 16.8-6.7-3.1-2.3-5.1-5.1-6.1-8.5-1.1-3.7-3.7-6-8.4-7.4-8.8-2.7-18.2-3.3-28.9-1.9-9.2 1.2-17.9 4.6-26.4 7.9-4.7 1.9-9.5 3.8-14.5 5.3z"/>
    <g>
      <path d="M135.3 411.2c-6.1-8.2-10.8-17.2-15-26.4-1.7-3.7-3.5-7.4-5.7-10.8-4.2-6.6-9.6-7.2-15.4-2-6 5.4-8.6 12.4-8.6 20.8.3 8.7 3.2 17 7.3 24.9.8 1.5 1.5 4 3.8 2.8 2.4-1.2.6-3.1-.1-4.7-4-7.8-7.1-15.9-6.8-24.9.2-6.7 2.7-12.4 8-16.6 3.3-2.7 5.7-2.4 8 1.1 2.2 3.4 4.1 7 5.8 10.7 4.4 9.6 9.3 18.8 15.5 27.4 1.9 2.5 3.5 5.3 4.8 8.2 3.9 8.8 2.3 17.6-3 24.8-7.8 10.5-9.9 21.3-6.3 33.5.5 1.7.6 4.5 3.3 3.7 2.5-.8 1.1-3 .7-4.7-3-10.4-1.9-20 4.8-28.8 8.2-10.8 8.7-23.8 1.6-35.3-1-1.2-1.8-2.5-2.7-3.7z"/>
      <path d="M129.8 485c-.5 0-1-.1-1.4-.4-1.2-.7-1.5-2.2-1.8-3.4-.1-.3-.1-.6-.2-.8-3.6-12.4-1.5-23.7 6.5-34.4 5.4-7.3 6.4-15.7 2.9-23.7-1.2-2.6-2.8-5.3-4.7-8-5.6-7.7-10.6-16.5-15.6-27.6-1.8-3.9-3.7-7.5-5.7-10.6-.9-1.5-1.9-2.3-2.8-2.4-1-.2-2.2.3-3.6 1.5-4.9 3.9-7.4 9.3-7.6 15.8-.2 9.4 3.3 17.6 6.7 24.4.1.2.3.5.4.8.6 1 1.3 2.2 1 3.5-.2.8-.8 1.4-1.7 1.8-.9.4-1.7.5-2.4.3-1.3-.4-1.9-1.8-2.4-2.9-.1-.2-.2-.5-.3-.7-4.8-9.1-7.2-17.4-7.5-25.4 0-9.1 2.9-16.2 8.9-21.6 3.1-2.8 6.2-4.1 9.2-3.7 2.9.4 5.6 2.4 7.8 5.9 1.9 3 3.7 6.4 5.8 10.9 4.9 10.8 9.7 19.2 14.9 26.2.9 1.2 1.7 2.5 2.5 3.8l.1.1c7.3 11.9 6.7 25.6-1.6 36.5-6.2 8.1-7.7 17.3-4.7 27.9.1.3.2.5.3.8.4 1.1.9 2.5.3 3.7-.4.7-1 1.2-1.9 1.5-.6.2-1 .2-1.4.2zm-23.2-113.4c.2 0 .5 0 .7.1 1.6.3 2.9 1.3 4.2 3.3 2.1 3.2 4.1 6.9 5.9 10.9 5 11 9.9 19.6 15.4 27.2 2 2.8 3.7 5.6 4.9 8.4 3.9 8.7 2.8 17.9-3.1 25.8-7.7 10.3-9.6 20.7-6.2 32.6.1.3.2.6.2.9.2.8.4 1.8.8 2.1.2.1.6.1.9 0 .3-.1.6-.2.7-.4.2-.4-.1-1.3-.4-2l-.3-.9c-3.3-11.3-1.6-21.1 5-29.7 7.9-10.4 8.5-22.8 1.5-34.2l-.1-.1c-.8-1.2-1.5-2.5-2.4-3.6-5.3-7.2-10.2-15.6-15.1-26.6-2-4.5-3.8-7.8-5.6-10.7-1.9-3-4-4.6-6.3-4.9-2.3-.3-4.9.8-7.5 3.2-5.6 5.1-8.3 11.6-8.3 20.1.2 7.6 2.6 15.6 7.2 24.5.1.2.2.5.4.7.3.7.8 1.7 1.3 1.8.2.1.5 0 .8-.2.2-.1.6-.3.6-.5.1-.4-.4-1.2-.7-1.8-.2-.3-.4-.6-.5-.9-3.6-7.1-7.2-15.6-6.9-25.4.2-7.2 3-13 8.4-17.4 1.6-1.7 3.1-2.3 4.5-2.3z"/>
    </g>
  </g>
</svg>

