<svg aria-hidden="true" focusable="false" viewBox="0 0 32 24" width="32" height="24" fill="none" xmlns="http://www.w3.org/2000/svg">
  <path fill-rule="evenodd" clip-rule="evenodd" d="M12.788 15.676v1.378a1.25 1.25 0 01-1.25 1.25H9.856a1.25 1.25 0 01-1.25-1.25v-2.77a.25.25 0 00-.25-.25h-3.97a1.25 1.25 0 01-1.25-1.25v-1.628a1.25 1.25 0 011.25-1.25h3.97a.25.25 0 00.25-.25V6.887a1.25 1.25 0 011.25-1.25h1.682a1.25 1.25 0 011.25 1.25v1.378l10.59-1.008a.5.5 0 01.4.143l4.242 4.216a.5.5 0 010 .71l-4.243 4.215a.5.5 0 01-.4.143l-10.59-1.008zm-1.25-9.039a.25.25 0 01.25.25V17.054a.25.25 0 01-.25.25H9.856a.25.25 0 01-.25-.25v-2.77a1.25 1.25 0 00-1.25-1.25h-3.97a.25.25 0 01-.25-.25v-1.628a.25.25 0 01.25-.25h3.97a1.25 1.25 0 001.25-1.25V6.887a.25.25 0 01.25-.25h1.682zm1.25 8.034l10.45.996 3.72-3.697-3.72-3.695-10.45.995v2.2h7.455a.5.5 0 110 1h-7.455v2.201z" fill="#2AF4ED"/>
</svg>
