<svg aria-hidden="true" focusable="false" viewBox="0 0 24 24" width="24" height="24" fill="none" xmlns="http://www.w3.org/2000/svg">
  <path d="M8.75 8.625a.5.5 0 00-1 0v1h-1a.5.5 0 000 1h1v1a.5.5 0 001 0v-1h1a.5.5 0 000-1h-1v-1zM13.75 10.125a.5.5 0 01.5-.5h3a.5.5 0 010 1h-3a.5.5 0 01-.5-.5z" fill="#2AF4ED"/><path fill-rule="evenodd" clip-rule="evenodd" d="M16.127 4.726a5.375 5.375 0 015.292 4.437l1.534 7.919a3.125 3.125 0 01-5.316 2.722l-3.89-4.319-3.49.014-3.894 4.306a3.125 3.125 0 01-5.315-2.723l.001-.009 1.53-7.862.002-.02A5.376 5.376 0 017.875 4.75l8.25-.024.002.5v-.5zm-2.152 9.758h-.016l-3.926.016a.5.5 0 00-.369.165l-4.047 4.474a2.125 2.125 0 01-3.585-1.88l1.533-7.885a4.376 4.376 0 014.31-3.624h.002l8.25-.024a4.377 4.377 0 013.093 7.468 4.375 4.375 0 01-3.093 1.282h-.002l-2.15.008zm1.113.996l3.296 3.659a2.125 2.125 0 003.585-1.88l-.954-4.924a5.371 5.371 0 01-4.887 3.14h-.001l-1.039.005z" fill="#2AF4ED"/>
</svg>
